<svg xmlns="http://www.w3.org/2000/svg" xmlns:xlink="http://www.w3.org/1999/xlink" viewBox="0 0 232.37 366.09"><defs><style>.cls-1{isolation:isolate;}.cls-2{opacity:0.5;mix-blend-mode:multiply;fill:url(#radial-gradient);}.cls-3{fill:#d3daed;}.cls-4{fill:url(#linear-gradient);}.cls-5{fill:#fff;}</style><radialGradient id="radial-gradient" cx="116.18" cy="8077.75" r="117.45" gradientTransform="translate(0 -3878.42) scale(1 0.52)" gradientUnits="userSpaceOnUse"><stop offset="0" stop-color="#3c5185"/><stop offset="0.11" stop-color="#596b97"/><stop offset="0.41" stop-color="#a0aac3"/><stop offset="0.65" stop-color="#d3d8e4"/><stop offset="0.83" stop-color="#f3f4f8"/><stop offset="0.94" stop-color="#fff"/></radialGradient><linearGradient id="linear-gradient" x1="31.48" y1="85.41" x2="202.29" y2="85.41" gradientUnits="userSpaceOnUse"><stop offset="0.02" stop-color="#ffc107"/><stop offset="0.14" stop-color="#ffbc06"/><stop offset="1" stop-color="#ff9800"/></linearGradient></defs><title>homepage</title><g class="cls-1"><g id="Graphics"><path class="cls-2" d="M33.93,251.52c45.24-26.12,119.27-26.12,164.51,0s45.24,68.86,0,95-119.27,26.12-164.51,0S-11.31,277.64,33.93,251.52Z"/><rect class="cls-3" x="110.8" y="170.48" width="10.76" height="123.79"/><circle class="cls-4" cx="116.88" cy="85.41" r="85.41"/><path class="cls-5" d="M68.65,94.75a55.87,55.87,0,0,1,55.87-55.87c28.56,0,26.35-23.81-10.06-23.81A65.92,65.92,0,0,0,48.54,81C48.54,104.09,68.65,114.32,68.65,94.75Z"/></g></g></svg>