<svg xmlns="http://www.w3.org/2000/svg" xmlns:xlink="http://www.w3.org/1999/xlink" viewBox="0 0 351.19 364.45"><defs><style>.cls-1{opacity:0.1;}.cls-10,.cls-11,.cls-12,.cls-13,.cls-14,.cls-15,.cls-16,.cls-17,.cls-18,.cls-19,.cls-2,.cls-20,.cls-21,.cls-22,.cls-23,.cls-24,.cls-25,.cls-26,.cls-27,.cls-28,.cls-29,.cls-3,.cls-30,.cls-31,.cls-32,.cls-33,.cls-34,.cls-35,.cls-36,.cls-37,.cls-38,.cls-39,.cls-4,.cls-40,.cls-41,.cls-42,.cls-43,.cls-5,.cls-6,.cls-7,.cls-8,.cls-9{fill:#1067db;}.cls-2{opacity:0;}.cls-3{opacity:0.02;}.cls-4{opacity:0.05;}.cls-5{opacity:0.07;}.cls-6{opacity:0.1;}.cls-7{opacity:0.12;}.cls-8{opacity:0.15;}.cls-9{opacity:0.17;}.cls-10{opacity:0.2;}.cls-11{opacity:0.22;}.cls-12{opacity:0.24;}.cls-13{opacity:0.27;}.cls-14{opacity:0.29;}.cls-15{opacity:0.32;}.cls-16{opacity:0.34;}.cls-17{opacity:0.37;}.cls-18{opacity:0.39;}.cls-19{opacity:0.41;}.cls-20{opacity:0.44;}.cls-21{opacity:0.46;}.cls-22{opacity:0.49;}.cls-23{opacity:0.51;}.cls-24{opacity:0.54;}.cls-25{opacity:0.56;}.cls-26{opacity:0.59;}.cls-27{opacity:0.61;}.cls-28{opacity:0.63;}.cls-29{opacity:0.66;}.cls-30{opacity:0.68;}.cls-31{opacity:0.71;}.cls-32{opacity:0.73;}.cls-33{opacity:0.76;}.cls-34{opacity:0.78;}.cls-35{opacity:0.8;}.cls-36{opacity:0.83;}.cls-37{opacity:0.85;}.cls-38{opacity:0.88;}.cls-39{opacity:0.9;}.cls-40{opacity:0.93;}.cls-41{opacity:0.95;}.cls-42{opacity:0.98;}.cls-44{fill:#5368b5;}.cls-45{fill:#05105d;}.cls-46{fill:#f3f8fe;}.cls-47{fill:#1e365e;}.cls-48{fill:#344a6e;}.cls-49{fill:#49b5fa;}.cls-50{fill:#0060a9;}.cls-51{fill:url(#New_Gradient_Swatch_1);}.cls-52{fill:url(#New_Gradient_Swatch_1-2);}.cls-53{fill:#3c5185;}.cls-54{fill:#fff;}.cls-55{fill:url(#linear-gradient);}.cls-56{fill:url(#linear-gradient-2);}.cls-57{fill:#ffda6a;}.cls-58{fill:url(#New_Gradient_Swatch_1-3);}.cls-59{fill:url(#New_Gradient_Swatch_1-4);}.cls-60{fill:#a5cbef;}</style><linearGradient id="New_Gradient_Swatch_1" y1="207.46" x2="199.71" y2="207.46" gradientUnits="userSpaceOnUse"><stop offset="0" stop-color="#0060a9"/><stop offset="1" stop-color="#1c86af"/></linearGradient><linearGradient id="New_Gradient_Swatch_1-2" y1="238.5" x2="122.9" y2="238.5" xlink:href="#New_Gradient_Swatch_1"/><linearGradient id="linear-gradient" x1="235.51" y1="120.41" x2="277.39" y2="120.41" gradientUnits="userSpaceOnUse"><stop offset="0.15" stop-color="#ff9800"/><stop offset="1" stop-color="#ffc107"/></linearGradient><linearGradient id="linear-gradient-2" x1="213.36" y1="125.53" x2="235.51" y2="125.53" xlink:href="#linear-gradient"/><linearGradient id="New_Gradient_Swatch_1-3" x1="-1117.08" y1="142.18" x2="-1061.65" y2="142.18" gradientTransform="matrix(-1, 0, 0, 1, -808.46, 0)" xlink:href="#New_Gradient_Swatch_1"/><linearGradient id="New_Gradient_Swatch_1-4" x1="-1061.65" y1="151.28" x2="-1039.49" y2="151.28" gradientTransform="matrix(-1, 0, 0, 1, -808.46, 0)" xlink:href="#New_Gradient_Swatch_1"/></defs><title>homepage</title><g id="Graphics"><g class="cls-1"><polygon class="cls-2" points="154.32 303.8 258.46 364.45 351.19 310.91 245.81 250.98 154.32 303.8"/><polygon class="cls-3" points="154.32 303.8 256.1 363.09 348.82 309.56 245.81 250.98 154.32 303.8"/><polygon class="cls-4" points="154.32 303.8 253.75 361.72 346.45 308.21 245.81 250.98 154.32 303.8"/><polygon class="cls-5" points="154.32 303.8 251.4 360.36 344.09 306.86 245.81 250.98 154.32 303.8"/><polygon class="cls-6" points="154.32 303.8 249.05 358.99 341.72 305.51 245.81 250.98 154.32 303.8"/><polygon class="cls-7" points="154.32 303.8 246.7 357.63 339.36 304.16 245.81 250.98 154.32 303.8"/><polygon class="cls-8" points="154.32 303.8 244.35 356.26 336.99 302.81 245.81 250.98 154.32 303.8"/><polygon class="cls-9" points="154.32 303.8 242 354.9 334.63 301.46 245.81 250.98 154.32 303.8"/><polygon class="cls-10" points="154.32 303.8 239.64 353.53 332.26 300.11 245.81 250.98 154.32 303.8"/><polygon class="cls-11" points="154.32 303.8 237.29 352.17 329.9 298.76 245.81 250.98 154.32 303.8"/><polygon class="cls-12" points="154.32 303.8 234.94 350.81 327.53 297.41 245.81 250.98 154.32 303.8"/><polygon class="cls-13" points="154.32 303.8 232.59 349.44 325.17 296.06 245.81 250.98 154.32 303.8"/><polygon class="cls-14" points="154.32 303.8 230.24 348.07 322.8 294.71 245.81 250.98 154.32 303.8"/><polygon class="cls-15" points="154.32 303.8 227.88 346.71 320.44 293.36 245.81 250.98 154.32 303.8"/><polygon class="cls-16" points="154.32 303.8 225.53 345.35 318.07 292.01 245.81 250.98 154.32 303.8"/><polygon class="cls-17" points="154.32 303.8 223.18 343.98 315.71 290.65 245.81 250.98 154.32 303.8"/><polygon class="cls-18" points="154.32 303.8 220.83 342.62 313.34 289.31 245.81 250.98 154.32 303.8"/><polygon class="cls-19" points="154.32 303.8 218.48 341.25 310.98 287.95 245.81 250.98 154.32 303.8"/><polygon class="cls-20" points="154.32 303.8 216.13 339.89 308.61 286.6 245.81 250.98 154.32 303.8"/><polygon class="cls-21" points="154.32 303.8 213.78 338.52 306.25 285.25 245.81 250.98 154.32 303.8"/><polygon class="cls-22" points="154.32 303.8 211.42 337.16 303.88 283.9 245.81 250.98 154.32 303.8"/><polygon class="cls-23" points="154.32 303.8 209.07 335.8 301.51 282.55 245.81 250.98 154.32 303.8"/><polygon class="cls-24" points="154.32 303.8 206.72 334.43 299.15 281.2 245.81 250.98 154.32 303.8"/><polygon class="cls-25" points="154.32 303.8 204.37 333.07 296.78 279.85 245.81 250.98 154.32 303.8"/><polygon class="cls-26" points="154.32 303.8 202.02 331.7 294.42 278.5 245.81 250.98 154.32 303.8"/><polygon class="cls-27" points="154.32 303.8 199.67 330.34 292.05 277.15 245.81 250.98 154.32 303.8"/><polygon class="cls-28" points="154.32 303.8 197.31 328.97 289.69 275.8 245.81 250.98 154.32 303.8"/><polygon class="cls-29" points="154.32 303.8 194.96 327.61 287.32 274.45 245.81 250.98 154.32 303.8"/><polygon class="cls-30" points="154.32 303.8 192.61 326.24 284.96 273.1 245.81 250.98 154.32 303.8"/><polygon class="cls-31" points="154.32 303.8 190.26 324.88 282.59 271.75 245.81 250.98 154.32 303.8"/><polygon class="cls-32" points="154.32 303.8 187.91 323.51 280.23 270.4 245.81 250.98 154.32 303.8"/><polygon class="cls-33" points="154.32 303.8 185.56 322.15 277.86 269.05 245.81 250.98 154.32 303.8"/><polygon class="cls-34" points="154.32 303.8 183.21 320.79 275.5 267.7 245.81 250.98 154.32 303.8"/><polygon class="cls-35" points="154.32 303.8 180.85 319.42 273.13 266.35 245.81 250.98 154.32 303.8"/><polygon class="cls-36" points="154.32 303.8 178.5 318.06 270.77 265 245.81 250.98 154.32 303.8"/><polygon class="cls-37" points="154.32 303.8 176.15 316.69 268.4 263.64 245.81 250.98 154.32 303.8"/><polygon class="cls-38" points="154.32 303.8 173.8 315.33 266.04 262.29 245.81 250.98 154.32 303.8"/><polygon class="cls-39" points="154.32 303.8 171.45 313.96 263.67 260.94 245.81 250.98 154.32 303.8"/><polygon class="cls-40" points="154.32 303.8 169.09 312.6 261.3 259.59 245.81 250.98 154.32 303.8"/><polygon class="cls-41" points="154.32 303.8 166.74 311.23 258.94 258.24 245.81 250.98 154.32 303.8"/><polygon class="cls-42" points="154.32 303.8 164.39 309.87 256.57 256.89 245.81 250.98 154.32 303.8"/><polygon class="cls-43" points="154.32 303.8 162.04 308.5 254.21 255.54 245.81 250.98 154.32 303.8"/></g><polygon class="cls-44" points="146.33 316.98 237.79 264.18 237.79 262.94 106.15 191.67 36.95 253.4 146.33 316.98"/><polygon class="cls-45" points="146.33 315.75 237.79 262.94 106.15 190.44 36.95 252.17 146.33 315.75"/><polygon class="cls-46" points="142.63 314.51 234.09 261.71 234.71 244.91 102.45 187.97 33.25 249.7 142.63 314.51"/><polygon class="cls-44" points="91.46 159.8 237.79 243.06 237.79 244.29 146.33 297.09 0 212.61 91.46 159.8"/><polygon class="cls-47" points="91.46 158.57 237.79 243.06 146.33 295.86 0 211.37 91.46 158.57"/><polygon class="cls-46" points="110.52 178.31 151.63 201.96 78.06 244.43 36.95 220.79 110.52 178.31"/><polygon class="cls-44" points="1.23 211.99 1.23 232.54 146.33 316.98 147.57 316.27 147.57 296.48 1.23 211.99"/><polygon class="cls-48" points="0 211.37 0 231.92 146.33 316.98 146.33 295.86 0 211.37"/><polygon class="cls-49" points="122.9 282.85 199.71 238.5 199.71 237.47 89.15 177.61 31.04 229.46 122.9 282.85"/><polygon class="cls-50" points="122.9 281.82 199.71 237.47 89.15 176.57 31.04 228.42 122.9 281.82"/><polygon class="cls-46" points="119.79 280.78 196.6 236.43 197.12 222.32 86.04 174.5 27.93 226.34 119.79 280.78"/><polygon class="cls-49" points="76.81 150.85 199.71 220.77 199.71 221.8 122.9 266.15 0 195.19 76.81 150.85"/><polygon class="cls-51" points="76.81 149.81 199.71 220.77 122.9 265.11 0 194.16 76.81 149.81"/><polygon class="cls-46" points="92.82 166.39 127.34 186.25 65.56 221.92 31.04 202.06 92.82 166.39"/><polygon class="cls-49" points="1.04 194.68 1.04 211.93 122.9 282.85 123.94 282.25 123.94 265.63 1.04 194.68"/><polygon class="cls-52" points="0 194.16 0 211.41 122.9 282.85 122.9 265.11 0 194.16"/><polygon class="cls-47" points="192.28 44.39 192.28 201.11 247.72 169.43 247.72 13.4 192.28 44.39"/><polygon class="cls-48" points="192.28 201.11 170.12 188.32 170.12 31.6 192.28 44.39 192.28 201.11"/><polygon class="cls-53" points="247.72 13.4 223.97 0 170.12 31.6 192.28 44.39 247.72 13.4"/><polygon class="cls-54" points="246.19 13.22 224.38 0.92 173.28 30.79 193.62 42.54 246.19 13.22"/><polygon class="cls-55" points="235.51 53.57 235.51 210.28 277.39 186.56 277.39 30.53 235.51 53.57"/><polygon class="cls-56" points="235.51 210.28 213.36 197.49 213.36 40.77 235.51 53.57 235.51 210.28"/><polygon class="cls-57" points="277.39 30.53 253.64 17.13 213.36 40.77 235.51 53.57 277.39 30.53"/><polygon class="cls-54" points="275.86 30.36 254.05 18.05 216.51 39.97 236.85 51.71 275.86 30.36"/><polygon class="cls-58" points="253.18 79.32 253.18 236.04 308.62 204.35 308.62 48.33 253.18 79.32"/><polygon class="cls-59" points="253.18 236.04 231.03 223.25 231.03 66.53 253.18 79.32 253.18 236.04"/><polygon class="cls-60" points="308.62 48.33 284.87 34.93 231.03 66.53 253.18 79.32 308.62 48.33"/><polygon class="cls-54" points="307.09 48.15 285.28 35.84 234.18 65.72 254.52 77.47 307.09 48.15"/></g></svg>