<svg xmlns="http://www.w3.org/2000/svg" xmlns:xlink="http://www.w3.org/1999/xlink" viewBox="0 0 244.83 367.6"><defs><style>.cls-1{isolation:isolate;}.cls-2,.cls-48{opacity:0.3;}.cls-10,.cls-11,.cls-12,.cls-13,.cls-14,.cls-15,.cls-16,.cls-17,.cls-18,.cls-19,.cls-20,.cls-21,.cls-22,.cls-23,.cls-24,.cls-25,.cls-26,.cls-27,.cls-28,.cls-29,.cls-3,.cls-30,.cls-31,.cls-32,.cls-33,.cls-34,.cls-35,.cls-36,.cls-37,.cls-38,.cls-39,.cls-4,.cls-40,.cls-41,.cls-42,.cls-43,.cls-44,.cls-5,.cls-6,.cls-7,.cls-8,.cls-9{fill:#3c5185;}.cls-3{opacity:0;}.cls-4{opacity:0.02;}.cls-5{opacity:0.05;}.cls-6{opacity:0.07;}.cls-7{opacity:0.1;}.cls-8{opacity:0.12;}.cls-9{opacity:0.15;}.cls-10{opacity:0.17;}.cls-11{opacity:0.2;}.cls-12{opacity:0.22;}.cls-13{opacity:0.24;}.cls-14{opacity:0.27;}.cls-15{opacity:0.29;}.cls-16{opacity:0.32;}.cls-17{opacity:0.34;}.cls-18{opacity:0.37;}.cls-19{opacity:0.39;}.cls-20{opacity:0.41;}.cls-21{opacity:0.44;}.cls-22{opacity:0.46;}.cls-23{opacity:0.49;}.cls-24{opacity:0.51;}.cls-25{opacity:0.54;}.cls-26{opacity:0.56;}.cls-27{opacity:0.59;}.cls-28{opacity:0.61;}.cls-29{opacity:0.63;}.cls-30{opacity:0.66;}.cls-31{opacity:0.68;}.cls-32{opacity:0.71;}.cls-33{opacity:0.73;}.cls-34{opacity:0.76;}.cls-35{opacity:0.78;}.cls-36{opacity:0.8;}.cls-37{opacity:0.83;}.cls-38{opacity:0.85;}.cls-39{opacity:0.88;}.cls-40{opacity:0.9;}.cls-41{opacity:0.93;}.cls-42{opacity:0.95;}.cls-43{opacity:0.98;}.cls-45{fill:#b7d5f2;}.cls-46{fill:#c9e0f5;}.cls-47{fill:#dbeaf9;}.cls-48{fill:#231f20;}.cls-49{opacity:0.5;mix-blend-mode:multiply;fill:url(#radial-gradient);}.cls-50{fill:#1e365e;}.cls-51{fill:#2842a2;}.cls-52{fill:url(#linear-gradient);}.cls-53{fill:#fff;}.cls-54{fill:#6e84b5;opacity:0.49;}.cls-55{fill:url(#linear-gradient-2);}</style><radialGradient id="radial-gradient" cx="122.07" cy="7922.83" r="68.68" gradientTransform="translate(0 -3878.98) scale(1 0.52)" gradientUnits="userSpaceOnUse"><stop offset="0" stop-color="#3c5185"/><stop offset="0.11" stop-color="#596b97"/><stop offset="0.41" stop-color="#a0aac3"/><stop offset="0.65" stop-color="#d3d8e4"/><stop offset="0.83" stop-color="#f3f4f8"/><stop offset="0.94" stop-color="#fff"/></radialGradient><linearGradient id="linear-gradient" x1="72.26" y1="102.65" x2="172.17" y2="102.65" gradientUnits="userSpaceOnUse"><stop offset="0.02" stop-color="#ffc107"/><stop offset="0.14" stop-color="#ffbc06"/><stop offset="1" stop-color="#ff9800"/></linearGradient><linearGradient id="linear-gradient-2" x1="40.03" y1="34.55" x2="204.93" y2="34.55" xlink:href="#linear-gradient"/></defs><title>homepage</title><g class="cls-1"><g id="Graphics"><g class="cls-2"><path class="cls-3" d="M5.64,304.23c-5.32-3.06-5.32-8.09,0-11.16L111.41,232c5.32-3.07,14-3.07,19.33,0l105.77,61.06c5.31,3.07,5.31,8.1,0,11.16L130.74,365.3c-5.32,3.07-14,3.07-19.33,0Z"/><path class="cls-4" d="M6.61,304.19c-5.27-3.05-5.27-8,0-11.07l104.88-60.55c5.27-3,13.9-3,19.17,0l104.87,60.55c5.27,3,5.27,8,0,11.07L130.66,364.74c-5.27,3-13.9,3-19.17,0Z"/><path class="cls-5" d="M7.59,304.14c-5.23-3-5.23-7.95,0-11l104-60c5.23-3,13.78-3,19,0l104,60c5.23,3,5.23,7.95,0,11l-104,60c-5.23,3-13.78,3-19,0Z"/><path class="cls-6" d="M8.56,304.09c-5.18-3-5.18-7.88,0-10.87L111.65,233.7c5.18-3,13.66-3,18.84,0l103.1,59.52c5.18,3,5.18,7.88,0,10.87l-103.1,59.52c-5.18,3-13.66,3-18.84,0Z"/><path class="cls-7" d="M9.54,304c-5.14-3-5.14-7.81,0-10.78l102.2-59c5.13-3,13.54-3,18.67,0l102.2,59c5.14,3,5.14,7.82,0,10.78l-102.2,59c-5.13,3-13.54,3-18.67,0Z"/><path class="cls-8" d="M10.51,304c-5.09-2.94-5.09-7.75,0-10.69l101.31-58.49c5.09-2.94,13.42-2.94,18.51,0l101.31,58.49c5.09,2.94,5.09,7.75,0,10.69L130.33,362.49c-5.09,2.94-13.42,2.94-18.51,0Z"/><path class="cls-9" d="M11.49,304c-5-2.91-5-7.68,0-10.59l100.41-58c5-2.91,13.3-2.91,18.35,0l100.41,58c5.05,2.91,5.05,7.68,0,10.59l-100.41,58c-5,2.92-13.3,2.92-18.35,0Z"/><path class="cls-10" d="M12.46,303.91c-5-2.89-5-7.62,0-10.51L112,235.94c5-2.88,13.19-2.88,18.19,0l99.52,57.46c5,2.89,5,7.62,0,10.51l-99.52,57.45c-5,2.89-13.19,2.89-18.19,0Z"/><path class="cls-11" d="M13.43,303.86c-4.95-2.86-4.95-7.55,0-10.41l98.63-56.94c5-2.86,13.07-2.86,18,0l98.63,56.94c4.95,2.86,4.95,7.55,0,10.41L130.09,360.8c-5,2.86-13.07,2.86-18,0Z"/><path class="cls-12" d="M14.41,303.81c-4.91-2.84-4.91-7.48,0-10.31l97.73-56.43c4.92-2.84,13-2.84,17.86,0l97.74,56.43c4.91,2.83,4.91,7.47,0,10.31L130,360.24c-4.92,2.83-12.95,2.83-17.87,0Z"/><path class="cls-13" d="M15.38,303.76c-4.87-2.81-4.87-7.41,0-10.22l96.84-55.91c4.87-2.81,12.84-2.81,17.7,0l96.85,55.91c4.86,2.81,4.86,7.41,0,10.22l-96.85,55.92c-4.86,2.81-12.83,2.81-17.7,0Z"/><path class="cls-14" d="M16.36,303.72c-4.83-2.79-4.83-7.35,0-10.13l96-55.4c4.82-2.78,12.71-2.78,17.53,0l95.95,55.4c4.83,2.78,4.83,7.34,0,10.13l-95.95,55.4c-4.82,2.78-12.71,2.78-17.53,0Z"/><path class="cls-15" d="M17.33,303.67c-4.78-2.76-4.78-7.27,0-10l95.06-54.88c4.78-2.76,12.59-2.76,17.37,0l95.06,54.88c4.78,2.76,4.78,7.27,0,10l-95.06,54.88c-4.78,2.76-12.59,2.76-17.37,0Z"/><path class="cls-16" d="M18.3,303.62c-4.73-2.73-4.73-7.2,0-9.93l94.17-54.37c4.73-2.73,12.48-2.73,17.21,0l94.17,54.37c4.73,2.73,4.73,7.2,0,9.93L129.68,358c-4.73,2.73-12.48,2.73-17.21,0Z"/><path class="cls-17" d="M19.28,303.57c-4.69-2.7-4.69-7.13,0-9.84l93.27-53.85c4.69-2.71,12.36-2.71,17,0l93.27,53.85c4.69,2.71,4.69,7.14,0,9.84L129.6,357.43c-4.69,2.7-12.36,2.7-17,0Z"/><path class="cls-18" d="M20.25,303.53c-4.64-2.68-4.64-7.07,0-9.75l92.38-53.34c4.64-2.68,12.24-2.68,16.89,0l92.38,53.34c4.64,2.68,4.64,7.07,0,9.75l-92.38,53.33c-4.65,2.68-12.24,2.68-16.89,0Z"/><path class="cls-19" d="M21.22,303.48c-4.59-2.65-4.59-7,0-9.65L112.71,241c4.6-2.66,12.12-2.66,16.72,0l91.49,52.82c4.6,2.65,4.6,7,0,9.65L129.43,356.3c-4.59,2.66-12.12,2.66-16.72,0Z"/><path class="cls-20" d="M22.2,303.43c-4.55-2.63-4.55-6.93,0-9.56l90.59-52.3c4.56-2.63,12-2.63,16.56,0l90.6,52.3c4.55,2.63,4.55,6.93,0,9.56l-90.6,52.31c-4.55,2.63-12,2.63-16.56,0Z"/><path class="cls-21" d="M23.17,303.39c-4.51-2.61-4.51-6.87,0-9.47l89.71-51.79c4.51-2.6,11.88-2.6,16.39,0L219,293.92c4.5,2.6,4.5,6.86,0,9.47l-89.71,51.79c-4.51,2.6-11.88,2.6-16.39,0Z"/><path class="cls-22" d="M24.15,303.34c-4.47-2.58-4.47-6.79,0-9.37L113,242.69c4.46-2.57,11.77-2.57,16.23,0L218,294c4.47,2.58,4.47,6.79,0,9.37l-88.81,51.28c-4.46,2.57-11.77,2.57-16.23,0Z"/><path class="cls-23" d="M25.12,303.29c-4.42-2.55-4.42-6.72,0-9.27L113,243.26c4.42-2.56,11.65-2.56,16.07,0L217,294c4.42,2.55,4.42,6.72,0,9.27l-87.92,50.76c-4.42,2.55-11.65,2.55-16.07,0Z"/><path class="cls-24" d="M26.09,303.25c-4.37-2.53-4.37-6.66,0-9.19l87-50.24c4.38-2.53,11.53-2.53,15.91,0l87,50.24c4.38,2.53,4.38,6.66,0,9.19l-87,50.24c-4.38,2.52-11.53,2.52-15.91,0Z"/><path class="cls-25" d="M27.07,303.2c-4.33-2.5-4.33-6.59,0-9.09l86.13-49.73c4.33-2.5,11.42-2.5,15.75,0l86.13,49.73c4.33,2.5,4.33,6.59,0,9.09L129,352.93c-4.33,2.5-11.42,2.5-15.75,0Z"/><path class="cls-26" d="M28,303.15c-4.28-2.47-4.28-6.52,0-9l85.24-49.22c4.29-2.47,11.3-2.47,15.58,0l85.25,49.22c4.28,2.47,4.28,6.52,0,9l-85.25,49.22a17.28,17.28,0,0,1-15.57,0Z"/><path class="cls-27" d="M29,303.1c-4.24-2.44-4.24-6.45,0-8.9l84.35-48.7a17.14,17.14,0,0,1,15.41,0l84.35,48.7c4.24,2.45,4.24,6.46,0,8.9l-84.35,48.7a17.07,17.07,0,0,1-15.41,0Z"/><path class="cls-28" d="M30,303.06c-4.19-2.43-4.19-6.39,0-8.81l83.46-48.18a16.86,16.86,0,0,1,15.25,0l83.46,48.18c4.19,2.42,4.19,6.38,0,8.81L128.7,351.24a16.92,16.92,0,0,1-15.25,0Z"/><path class="cls-29" d="M31,303c-4.15-2.4-4.15-6.32,0-8.71l82.57-47.67a16.71,16.71,0,0,1,15.09,0l82.56,47.67c4.16,2.39,4.16,6.31,0,8.71l-82.56,47.67a16.71,16.71,0,0,1-15.09,0Z"/><path class="cls-30" d="M31.94,303c-4.11-2.37-4.11-6.25,0-8.61l81.67-47.16a16.56,16.56,0,0,1,14.93,0l81.67,47.16c4.1,2.36,4.1,6.24,0,8.61l-81.67,47.16a16.56,16.56,0,0,1-14.93,0Z"/><path class="cls-31" d="M32.91,302.92c-4.06-2.35-4.06-6.18,0-8.53l80.78-46.64a16.42,16.42,0,0,1,14.77,0l80.78,46.64c4.06,2.35,4.06,6.18,0,8.53l-80.78,46.63a16.35,16.35,0,0,1-14.77,0Z"/><path class="cls-32" d="M33.89,302.87c-4-2.32-4-6.11,0-8.43l79.88-46.12a16.18,16.18,0,0,1,14.6,0l79.89,46.12c4,2.32,4,6.11,0,8.43L128.37,349a16.16,16.16,0,0,1-14.59,0Z"/><path class="cls-33" d="M34.86,302.82c-4-2.29-4-6,0-8.33l79-45.61a16,16,0,0,1,14.43,0l79,45.61c4,2.29,4,6,0,8.33l-79,45.61a16,16,0,0,1-14.43,0Z"/><path class="cls-34" d="M35.83,302.77c-3.92-2.26-3.92-6,0-8.24l78.11-45.09a15.8,15.8,0,0,1,14.27,0l78.1,45.09c3.93,2.27,3.93,6,0,8.24l-78.1,45.1a15.86,15.86,0,0,1-14.27,0Z"/><path class="cls-35" d="M36.81,302.73c-3.88-2.24-3.88-5.91,0-8.15L114,250a15.65,15.65,0,0,1,14.11,0l77.21,44.58c3.88,2.24,3.88,5.91,0,8.15l-77.21,44.58a15.65,15.65,0,0,1-14.11,0Z"/><path class="cls-36" d="M37.78,302.68c-3.83-2.21-3.83-5.84,0-8.05l76.32-44.07a15.5,15.5,0,0,1,14,0l76.32,44.07c3.83,2.21,3.83,5.84,0,8.05l-76.32,44.06a15.44,15.44,0,0,1-14,0Z"/><path class="cls-37" d="M38.76,302.63c-3.8-2.19-3.8-5.77,0-8l75.42-43.54a15.29,15.29,0,0,1,13.79,0l75.42,43.54c3.79,2.19,3.79,5.77,0,8L128,346.18a15.29,15.29,0,0,1-13.79,0Z"/><path class="cls-38" d="M39.73,302.59c-3.75-2.17-3.75-5.71,0-7.87l74.53-43a15.14,15.14,0,0,1,13.63,0l74.53,43c3.74,2.16,3.74,5.7,0,7.87l-74.53,43a15.14,15.14,0,0,1-13.63,0Z"/><path class="cls-39" d="M40.7,302.54c-3.7-2.14-3.7-5.63,0-7.77l73.64-42.52a15,15,0,0,1,13.46,0l73.64,42.52c3.71,2.14,3.71,5.63,0,7.77L127.8,345.06a15,15,0,0,1-13.46,0Z"/><path class="cls-40" d="M41.68,302.49c-3.66-2.11-3.66-5.56,0-7.67l72.75-42a14.71,14.71,0,0,1,13.29,0l72.75,42c3.66,2.11,3.66,5.56,0,7.67l-72.75,42a14.68,14.68,0,0,1-13.29,0Z"/><path class="cls-41" d="M42.65,302.44c-3.61-2.08-3.61-5.49,0-7.58l71.86-41.48a14.53,14.53,0,0,1,13.13,0l71.86,41.48c3.61,2.09,3.61,5.5,0,7.58l-71.86,41.49a14.53,14.53,0,0,1-13.13,0Z"/><path class="cls-42" d="M43.63,302.4c-3.57-2.06-3.57-5.43,0-7.49l71-41a14.38,14.38,0,0,1,13,0l71,41c3.57,2.06,3.57,5.43,0,7.49l-71,41a14.38,14.38,0,0,1-13,0Z"/><path class="cls-43" d="M44.6,302.35c-3.52-2-3.52-5.36,0-7.39l70.07-40.46a14.23,14.23,0,0,1,12.81,0L197.55,295c3.52,2,3.52,5.36,0,7.39l-70.07,40.46a14.23,14.23,0,0,1-12.81,0Z"/><path class="cls-44" d="M45.57,302.3c-3.47-2-3.47-5.29,0-7.3l69.18-39.94a14.09,14.09,0,0,1,12.65,0L196.58,295c3.47,2,3.47,5.3,0,7.3L127.4,342.24a14,14,0,0,1-12.65,0Z"/></g><polygon class="cls-45" points="122.42 142.95 32.89 194.64 122.42 246.32 122.42 142.95 122.42 142.95"/><polygon class="cls-46" points="122.42 142.95 122.42 246.32 211.94 194.64 122.42 142.95"/><polygon class="cls-46" points="32.89 194.64 32.89 298.01 122.42 349.7 122.42 246.32 32.89 194.64"/><polygon class="cls-45" points="122.42 349.7 211.94 298.01 211.94 194.64 122.42 246.32 122.42 349.7"/><polygon class="cls-47" points="32.89 194.64 0 154.18 89.53 102.49 122.42 142.95 32.89 194.64"/><polygon class="cls-47" points="211.94 194.64 244.83 154.18 155.3 102.49 122.42 142.95 211.94 194.64"/><polygon class="cls-48" points="211.94 241.13 211.94 199.47 122.42 246.4 146.19 279.42 211.94 241.13"/><polygon class="cls-47" points="122.48 246.44 149.75 272.23 239.21 220.43 211.94 194.64 122.48 246.44"/><polygon class="cls-48" points="32.89 200.14 32.89 241.61 98.67 279.42 122.42 246.51 122.42 246.4 32.95 200.07 32.89 200.14"/><polygon class="cls-47" points="122.42 246.44 95.14 272.23 5.68 220.43 32.95 194.64 122.42 246.44"/><path class="cls-49" d="M74,190.56c26.45-15.27,69.74-15.27,96.19,0s26.45,40.27,0,55.54-69.74,15.27-96.19,0S47.52,205.84,74,190.56Z"/><path class="cls-50" d="M136.18,183.92l-2.74,2.29H109.5l-2.6-2.39a37.24,37.24,0,0,1-12-27.4V146h54.65v9.35A37.25,37.25,0,0,1,136.18,183.92Z"/><path class="cls-50" d="M125.69,193.52h-8.93a7.94,7.94,0,0,1-8-7.94h24.82A7.94,7.94,0,0,1,125.69,193.52Z"/><path class="cls-51" d="M141.42,134.91c-10.61-6.13-28-6.13-38.58,0s-10.61,16.14,0,22.27,28,6.13,38.58,0S152,141,141.42,134.91Z"/><path class="cls-52" d="M122.21,43.49A49.94,49.94,0,0,0,94.9,135.24v11.3h0c.15,3.88,3,7.81,8.13,10.75,10.52,6.07,27.94,6,38.46-.07,5.1-2.95,7.7-6.8,7.86-10.68h.17v-11.3a49.93,49.93,0,0,0-27.31-91.75Z"/><path class="cls-53" d="M94.28,98.89A32.66,32.66,0,0,1,127,66.23c16.69,0,15.4-13.93-5.88-13.93A38.55,38.55,0,0,0,82.52,90.85C82.52,104.35,94.28,110.34,94.28,98.89Z"/><path class="cls-54" d="M141.49,161.58c-10.52,6.08-27.94,6.15-38.46.07-5.1-2.94-8-6.86-8.13-10.75v3.75c.15,3.88,3,7.8,8.13,10.75,10.52,6.07,27.94,6,38.46-.07,5.1-3,7.7-6.8,7.86-10.68h.17V150.9h-.17C149.19,154.79,146.59,158.64,141.49,161.58Z"/><path class="cls-54" d="M141.34,172.45c-10.52,6.08-27.93,6.15-38.45.07a18.33,18.33,0,0,1-6.57-6,37.27,37.27,0,0,0,2.77,7,22.41,22.41,0,0,0,3.8,2.76c10.52,6.07,27.93,6,38.45-.08a20.82,20.82,0,0,0,3.15-2.2,37.08,37.08,0,0,0,3.33-7.64A17,17,0,0,1,141.34,172.45Z"/><path class="cls-55" d="M122,39.35h0A4.08,4.08,0,0,1,118,35.26l.15-31.21a4.08,4.08,0,0,1,4.08-4h0a4.07,4.07,0,0,1,4.05,4.09l-.15,31.21A4.08,4.08,0,0,1,122,39.35Zm33.36,5.91,15.76-26.93a4.07,4.07,0,1,0-7-4.11L148.36,41.15a4.08,4.08,0,0,0,1.46,5.57,4,4,0,0,0,2.05.56A4.07,4.07,0,0,0,155.39,45.26Zm20.34,23.3,27.14-15.42a4.07,4.07,0,1,0-4-7.08L171.71,61.48a4.07,4.07,0,0,0,2,7.61A4,4,0,0,0,175.73,68.56ZM74.38,66.71A4.07,4.07,0,0,0,73,61.13l-26.79-16a4.07,4.07,0,0,0-4.18,7l26.78,16a4,4,0,0,0,2.09.58A4.07,4.07,0,0,0,74.38,66.71Zm20.5-20.17A4.07,4.07,0,0,0,96.46,41L81.3,13.72a4.07,4.07,0,1,0-7.11,4L89.35,45a4.06,4.06,0,0,0,3.56,2.09A4,4,0,0,0,94.88,46.54Z"/></g></g></svg>