<svg xmlns="http://www.w3.org/2000/svg" xmlns:xlink="http://www.w3.org/1999/xlink" viewBox="0 0 268.46 367.6"><defs><style>.cls-1{fill:url(#New_Gradient_Swatch_1);}.cls-2{fill:url(#New_Gradient_Swatch_1-2);}.cls-3{fill:#fff;}.cls-4{fill:#d3daed;}.cls-5{fill:#f2b1b5;}.cls-6{fill:url(#New_Gradient_Swatch_1-3);}.cls-7{fill:url(#New_Gradient_Swatch_2);}.cls-8{fill:url(#New_Gradient_Swatch_1-4);}.cls-9{fill:url(#New_Gradient_Swatch_3);}.cls-10{fill:url(#linear-gradient);}.cls-11{fill:#1e365e;}.cls-12{fill:url(#New_Gradient_Swatch_1-5);}.cls-13{fill:url(#New_Gradient_Swatch_1-6);}.cls-14{fill:url(#linear-gradient-2);}.cls-15{fill:url(#linear-gradient-3);}.cls-16{fill:#f1f2f2;}.cls-17{fill:url(#New_Gradient_Swatch_1-7);}.cls-18{fill:url(#linear-gradient-4);}.cls-19{fill:url(#New_Gradient_Swatch_3-2);}.cls-20{fill:#a5cbef;}.cls-21{fill:url(#linear-gradient-5);}.cls-22{fill:#3c5185;}</style><linearGradient id="New_Gradient_Swatch_1" x1="-966.04" y1="99.76" x2="-1027.36" y2="26.05" gradientTransform="matrix(-1, 0, 0, 1, -961.15, 0)" gradientUnits="userSpaceOnUse"><stop offset="0" stop-color="#0060a9"/><stop offset="1" stop-color="#1c86af"/></linearGradient><linearGradient id="New_Gradient_Swatch_1-2" x1="-980.75" y1="-9.8" x2="-1060.01" y2="124.99" xlink:href="#New_Gradient_Swatch_1"/><linearGradient id="New_Gradient_Swatch_1-3" x1="-1136.01" y1="218.89" x2="-1092.85" y2="218.89" gradientTransform="matrix(-1, 0, 0, 1, -1003.79, 0)" xlink:href="#New_Gradient_Swatch_1"/><linearGradient id="New_Gradient_Swatch_2" x1="-1132.39" y1="224.23" x2="-1095.64" y2="224.23" gradientTransform="matrix(-1, 0, 0, 1, -1003.79, 0)" gradientUnits="userSpaceOnUse"><stop offset="0" stop-color="#f69139"/><stop offset="1" stop-color="#f69139"/></linearGradient><linearGradient id="New_Gradient_Swatch_1-4" x1="-1134.33" y1="176.57" x2="-1105.61" y2="176.57" gradientTransform="matrix(-1, 0, 0, 1, -1003.79, 0)" xlink:href="#New_Gradient_Swatch_1"/><linearGradient id="New_Gradient_Swatch_3" x1="81.93" y1="149.36" x2="115.96" y2="149.36" gradientUnits="userSpaceOnUse"><stop offset="0" stop-color="#f69139"/><stop offset="1" stop-color="#ffc107"/></linearGradient><linearGradient id="linear-gradient" x1="173.18" y1="88.77" x2="195.63" y2="88.77" gradientUnits="userSpaceOnUse"><stop offset="0" stop-color="#a8d9fb"/><stop offset="1" stop-color="#fff"/></linearGradient><linearGradient id="New_Gradient_Swatch_1-5" x1="185.1" y1="156" x2="202.73" y2="156" gradientTransform="matrix(1, 0, 0, 1, 0, 0)" xlink:href="#New_Gradient_Swatch_1"/><linearGradient id="New_Gradient_Swatch_1-6" x1="186.34" y1="166.08" x2="254.68" y2="166.08" gradientTransform="matrix(1, 0, 0, 1, 0, 0)" xlink:href="#New_Gradient_Swatch_1"/><linearGradient id="linear-gradient-2" x1="185.12" y1="88.26" x2="258.28" y2="88.26" gradientUnits="userSpaceOnUse"><stop offset="0" stop-color="#a8d9fb"/><stop offset="0.05" stop-color="#b3defc"/><stop offset="0.19" stop-color="#cfeafd"/><stop offset="0.34" stop-color="#e4f3fe"/><stop offset="0.51" stop-color="#f3fafe"/><stop offset="0.71" stop-color="#fcfeff"/><stop offset="1" stop-color="#fff"/></linearGradient><linearGradient id="linear-gradient-3" x1="-2568.31" y1="70.7" x2="-2559.92" y2="70.7" gradientTransform="matrix(-1, 0, 0, 1, -2362.23, 0)" gradientUnits="userSpaceOnUse"><stop offset="0.15" stop-color="#ff9800"/><stop offset="1" stop-color="#ffc107"/></linearGradient><linearGradient id="New_Gradient_Swatch_1-7" x1="185.13" y1="116.38" x2="221.22" y2="116.38" gradientTransform="matrix(1, 0, 0, 1, 0, 0)" xlink:href="#New_Gradient_Swatch_1"/><linearGradient id="linear-gradient-4" x1="-2565.1" y1="96.74" x2="-2558.18" y2="96.74" xlink:href="#linear-gradient-3"/><linearGradient id="New_Gradient_Swatch_3-2" x1="244.61" y1="153.77" x2="263.06" y2="153.77" xlink:href="#New_Gradient_Swatch_3"/><linearGradient id="linear-gradient-5" x1="244.77" y1="16.36" x2="263.06" y2="16.36" gradientUnits="userSpaceOnUse"><stop offset="0" stop-color="#a8d9fb"/><stop offset="0.09" stop-color="#b3defb"/><stop offset="0.49" stop-color="#dcf0fd"/><stop offset="0.81" stop-color="#f6fbff"/><stop offset="1" stop-color="#fff"/></linearGradient></defs><title>homepage</title><g id="Graphics"><path class="cls-1" d="M39.86,5.4C61.79,18.06,79.73,49.13,79.73,74.45c0,7.92-1.76,14.37-4.84,19.12l1.48,9.88a2.18,2.18,0,0,1-3.05,2.32l-8.91-4c-6.78,2.25-15.3,1-24.55-4.29C17.94,84.81,0,53.74,0,28.42S17.94-7.26,39.86,5.4Z"/><path class="cls-2" d="M69.3,97.76c3.09-4.75,4.84-11.2,4.84-19.12,0-25.32-17.94-56.39-39.86-69-10.48-6-20-6.79-27.15-3.21,7.22-7.81,19.21-8.79,32.73-1C61.79,18.06,79.73,49.13,79.73,74.45c0,7.92-1.76,14.37-4.84,19.12l1.48,9.88a2.18,2.18,0,0,1-3.05,2.32l-3-1.36Z"/><path class="cls-3" d="M39.48,63.21l-5-2.85,0-3.76a9.61,9.61,0,0,1,.38-3.43A6.22,6.22,0,0,1,36.61,51l3.19-2.66a4.33,4.33,0,0,0,1-3.25,9.86,9.86,0,0,0-1.11-4.4,7.06,7.06,0,0,0-2.76-3.07,2.44,2.44,0,0,0-2.79-.15,3.93,3.93,0,0,0-1.28,3.11l-5.36-3c.25-3.5,1.25-5.78,3-6.86s3.91-.86,6.54.63A17.4,17.4,0,0,1,43.47,38a20,20,0,0,1,2.58,9.78c0,2.46-.44,4.24-1.4,5.33a10.86,10.86,0,0,1-1.26,1.36c-.3.25-.68.55-1.16.91s-.89.68-1.22,1a9.18,9.18,0,0,0-.81.74,5.21,5.21,0,0,0-.75,3.37ZM37.22,75.54a6.65,6.65,0,0,1-2.43-2.71A8.14,8.14,0,0,1,33.73,69a3.23,3.23,0,0,1,1-2.67,2,2,0,0,1,2.38,0,6.62,6.62,0,0,1,2.43,2.7,8,8,0,0,1,1.06,3.78,3.2,3.2,0,0,1-1,2.68A2,2,0,0,1,37.22,75.54Z"/><path class="cls-4" d="M100.93,354.58l5.12-3,5.33-3.07,12-7a4.09,4.09,0,0,0-.65-7.39h0a9.09,9.09,0,0,0-7,.37l-9.27,4.5-11.24,4.14a2.26,2.26,0,0,0-1.49,2.27l.17,3a6.54,6.54,0,0,0,6.53,6.18Z"/><path class="cls-5" d="M99.11,340.8l7.34-1.8,5.47-2.66a4.07,4.07,0,0,1,.09,7.08l-8.14,4.65-.4.23a5.76,5.76,0,0,1-6.93-.88c-1.38-1.36-2.55-2.76-2.1-3.34l3.18-1A2.3,2.3,0,0,1,99.11,340.8Z"/><path class="cls-5" d="M100.64,349.09c3.5,0,5.08-2.84,5.08-6.34l4.59-112.06c0-3.5-7.43-10.95-10.94-10.95s-8.46,40.52-8.46,44l2.19,23.66,1.2,55.32A6.34,6.34,0,0,0,100.64,349.09Z"/><path class="cls-5" d="M103.05,235.77a5.08,5.08,0,0,0,4.45-7.51L90.81,197.69a7.51,7.51,0,0,1,2.36-9.82L115,173a5.08,5.08,0,1,0-5.73-8.38L87.45,179.49a17.61,17.61,0,0,0-5.54,23.06l16.68,30.57A5.07,5.07,0,0,0,103.05,235.77Z"/><path class="cls-4" d="M123.61,367.6l5.13-3,5.33-3.08,12-7a4.1,4.1,0,0,0-.66-7.39h0a9,9,0,0,0-7,.36L129.14,352l-11.25,4.13a2.28,2.28,0,0,0-1.49,2.27l.17,3a6.55,6.55,0,0,0,6.54,6.17Z"/><path class="cls-5" d="M121.79,353.83l7.35-1.8,5.47-2.66a4.07,4.07,0,0,1,.08,7.08l-8.13,4.64-.4.23a5.77,5.77,0,0,1-6.94-.87c-1.38-1.37-2.54-2.76-2.09-3.34l3.18-1A2.27,2.27,0,0,1,121.79,353.83Z"/><path class="cls-5" d="M123.33,362.11c3.5,0,5.07-2.84,5.07-6.34V239.11a6.34,6.34,0,0,0-6.34-6.34c-3.5,0-16.85,5-16.85,8.51L114,301l3,54.81A6.34,6.34,0,0,0,123.33,362.11Z"/><path class="cls-6" d="M90.89,154.45a9.7,9.7,0,0,1,14.31-8.53l.11.06a9.16,9.16,0,0,1,2.89,2.79C117.77,164.49,130,168.1,130,184.19l-3.75,28.92,4.45,28.23,1.52,49.16a17.69,17.69,0,0,1-10.6,2.51c-.37,0-4.69-.27-5.64-.43-10.84-1.88-21-2.59-25.1-10.72L89.3,261.3a121.77,121.77,0,0,1,4.64-41.72h0Z"/><path class="cls-5" d="M107.14,181.6a5.84,5.84,0,0,0,.84.1l5.2.19a67.82,67.82,0,0,0,57.31-27.79l6-8.22a5.07,5.07,0,1,0-8.19-6l-6,8.21a57.68,57.68,0,0,1-48.75,23.64l-5.2-.19a5.07,5.07,0,0,0-1.21,10Z"/><path class="cls-5" d="M106.53,156.07h0a3.75,3.75,0,0,0,3.75-3.75V135h-7.5v17.35A3.75,3.75,0,0,0,106.53,156.07Z"/><path class="cls-5" d="M98.9,146.74l7.53,1c5.54.73,10.66-3.81,10-9.36,0-.3-.09-.61-.15-.91l-3.86-17.73-18.54,4Z"/><path class="cls-7" d="M110.31,230.69a60.69,60.69,0,0,1-18.46-2.8c.61-2.79,1.29-5.56,2.09-8.31l-.08-1.73a52.58,52.58,0,0,0,33.13-.09l1.61,10.18A60.44,60.44,0,0,1,110.31,230.69Z"/><path class="cls-5" d="M167.68,144.76l0,0a1.33,1.33,0,0,0,1.86-.36l6.78-10.08a1.35,1.35,0,0,0-.37-1.87l0,0a1.34,1.34,0,0,0-1.87.36l-6.77,10.09A1.34,1.34,0,0,0,167.68,144.76Z"/><path class="cls-5" d="M167.5,144.91h0a1.49,1.49,0,0,0,1.53-1.45l.13-4.24a1.48,1.48,0,0,0-1.44-1.53h0a1.49,1.49,0,0,0-1.53,1.44l-.13,4.25A1.5,1.5,0,0,0,167.5,144.91Z"/><path class="cls-8" d="M106.89,182.84a7.17,7.17,0,0,0,1,.13l5.19.19a70,70,0,0,0,11.93-.6A6.34,6.34,0,1,0,123.34,170a56.75,56.75,0,0,1-9.75.48l-5.19-.19a6.34,6.34,0,0,0-1.51,12.55Z"/><path class="cls-9" d="M84.06,166.86a10.82,10.82,0,0,0,1.59-4c.29-3-2.16-5.54-2.76-8.49C82,150,85,146,84.86,141.67c-.2-4.81-1.48-8.82,0-13.69a18.14,18.14,0,0,1,.76-2.14c2.59-6.22,8.65-9.35,15-10.4a28.31,28.31,0,0,1,8.27-.22,12.93,12.93,0,0,1,4.7,1.23,4.13,4.13,0,0,1,1.61,1.34,5.34,5.34,0,0,1,.74,3.09c-.24,2.44-3.34,3.28-3.61,5.59-.13,1.15.64,2.45.74,3.62a9,9,0,0,1-.76,4.49c-1.2,2.65-3.72,4.89-3.59,7.79.06,1.29.66,2.5.84,3.78.66,4.54-4.11,8-2.85,12.59.8,2.95,4.15,5.11,3.84,8.15-.12,1.23-.86,2.32-1.07,3.54-.42,2.5,1.4,5.2.3,7.49-3.79,7.84-16.94,6.48-23,3.08a10.06,10.06,0,0,1-3.88-3.4C80.94,174.36,82.27,170.18,84.06,166.86Z"/><path class="cls-10" d="M188.18,119.2a4.79,4.79,0,0,1-4.42-3l-8.68-21.09a25.58,25.58,0,0,1,4.58-26.69l7.65-8.54a4.77,4.77,0,0,1,7.1,6.37l-7.65,8.54a16,16,0,0,0-2.86,16.69l8.68,21.09a4.75,4.75,0,0,1-2.59,6.22A4.65,4.65,0,0,1,188.18,119.2Z"/><path class="cls-11" d="M187.68,200.76l-4.35,3.18-12.85,5.18a2.57,2.57,0,0,0-1.62,2.39l-.27,3a3,3,0,0,0,3.46,3.28l18.81-2.8,1.86-1.47,1.59-.27L195.9,215h1.78a3,3,0,0,0,3-3v-4.1l-2.92-7.1Z"/><path class="cls-12" d="M192.72,209.67c-4.1,0-5.83-3.32-5.83-7.42l-1.59-37.38-.18-54a8.47,8.47,0,0,1,7.49-8.5c4.1-.27,9.84,3.92,10.12,8l-2.59,54.25-1.06,37.64C199.08,206.35,196.81,209.67,192.72,209.67Z"/><path class="cls-5" d="M253.67,83h-.07a1.38,1.38,0,0,1-1.47-1.29l-.59-9a1.37,1.37,0,0,1,1.28-1.46h.07a1.39,1.39,0,0,1,1.47,1.29l.59,9A1.38,1.38,0,0,1,253.67,83Z"/><path class="cls-5" d="M242,93.49a20.41,20.41,0,0,1-14.73-6.21L215,74.67a4.5,4.5,0,0,1,6.45-6.29L233.69,81A11.46,11.46,0,0,0,242,84.48h0A11.49,11.49,0,0,0,250.27,81l5.17-5.2a4.5,4.5,0,0,1,6.39,6.35l-5.13,5.16A20.37,20.37,0,0,1,242,93.49Z"/><path class="cls-5" d="M254.63,79.52l-.17-.1a1.31,1.31,0,0,1-.43-1.8l4.76-7.76a1.33,1.33,0,0,1,1.82-.43l.16.1a1.31,1.31,0,0,1,.43,1.81l-4.76,7.74A1.31,1.31,0,0,1,254.63,79.52Z"/><path class="cls-5" d="M257.8,78.67h0a1.42,1.42,0,0,1-.27-2L263,69.62a1.42,1.42,0,0,1,2-.27h0a1.43,1.43,0,0,1,.26,2l-5.41,7.06A1.42,1.42,0,0,1,257.8,78.67Z"/><path class="cls-5" d="M258.8,80.34h0a1.42,1.42,0,0,1,.09-2l6.6-6a1.42,1.42,0,0,1,2,.1h0a1.42,1.42,0,0,1-.1,2l-6.6,6A1.4,1.4,0,0,1,258.8,80.34Z"/><path class="cls-5" d="M258,82.86l0-.06a1.39,1.39,0,0,1,.53-1.88l7.84-4.36a1.39,1.39,0,0,1,1.88.53l0,.06a1.39,1.39,0,0,1-.53,1.88l-7.84,4.36A1.38,1.38,0,0,1,258,82.86Z"/><path class="cls-11" d="M213.27,224.68l-5.38,17.65h0a4.74,4.74,0,0,0,3.59,4.26l1.37.33a4.71,4.71,0,0,0,3.76-.67h0a14,14,0,0,0,6.07-9.89l1.47-12-2.08-4.26Z"/><path class="cls-13" d="M218.41,228c-3.78,0-5.95-2.87-6.31-6.71l-5.58-47.6-9.38-46-10.8-18.58c-.29-4.08,18.44-4.55,22.53-4.85s11.7,10.9,12,15l.44,53.27,3.44,47.36c.39,4.08-1.55,7.7-5.62,8.09Q218.77,228,218.41,228Z"/><path class="cls-14" d="M256.83,80.66a4.78,4.78,0,0,0-6.75.11A11.14,11.14,0,0,1,242,84.21h0a11.19,11.19,0,0,1-8.09-3.41l-10.72-11a16.65,16.65,0,0,0-5.92-6.94q-.45-.3-.93-.57l-14.2-7.95a11.33,11.33,0,0,0-17,9.81v48.61c5.37,7.8,17.6,13.54,36.09,9.73l1.2-18.31,1.4-20,3.23,3.31A20.66,20.66,0,0,0,242,93.76h0a20.71,20.71,0,0,0,14.93-6.35A4.78,4.78,0,0,0,256.83,80.66Z"/><path class="cls-3" d="M202.21,65.47l-6.65,4.9-.05-3.78a12.8,12.8,0,0,1,1-5.18L199,55.59l1.86.27Z"/><polygon class="cls-15" points="202.26 65.53 206.08 70.69 202.75 75.86 199.13 74.58 197.69 68.8 202.26 65.53"/><path class="cls-5" d="M204.59,66.28h0a3.92,3.92,0,0,1-3.92-3.92V48.77h7.85V62.36A3.92,3.92,0,0,1,204.59,66.28Z"/><path class="cls-5" d="M206.3,58.59h-3.43c-8.88,0-12.65-7.2-12.65-16.08V38.92a5,5,0,0,1,5-5h8.4a6.36,6.36,0,0,1,6.36,6.36L213.67,54C213.67,56,208.31,58.59,206.3,58.59Z"/><path class="cls-16" d="M218.94,42.17a16,16,0,0,0-8.82-11.63,24,24,0,0,0-6.82-1.88c-3.74-.54-7.69-.59-11.13,1-4,1.78-5.83,5.27-1.55,8.18a11.68,11.68,0,0,0,6,1.71c2.34.13,5,0,6.64,1.65,2.23,2.17,1.34,6,2.71,8.77h1a6.8,6.8,0,0,0,.23-2.56c.08-.86.9-1.82,1.67-1.42a1.61,1.61,0,0,1,.64,1.26,13.73,13.73,0,0,1-.28,5.3c-.41,1.58-.94,3.62.41,4.53,2.33,1.57,6.17-2.78,7.2-4.47A15.38,15.38,0,0,0,218.94,42.17Z"/><path class="cls-3" d="M202.21,65.47l5.37,7.43.48-4.52a15.75,15.75,0,0,1,3.07-7.77h0a1.16,1.16,0,0,0-.42-1.75L209,58.05Z"/><path class="cls-17" d="M221.22,118.79c-18.49,3.8-30.72-1.93-36.09-9.73v3.71c5.37,7.8,17.6,13.54,36.09,9.73Z"/><polygon class="cls-18" points="202.87 75.84 201.81 115.8 198.04 118.92 195.95 114.79 199.25 74.56 202.87 75.84"/><path class="cls-19" d="M253.76,280.17h0a9.14,9.14,0,0,1-9.14-9.16l.15-243.64,18.3,0L262.91,271A9.15,9.15,0,0,1,253.76,280.17Z"/><path class="cls-20" d="M262.92,256.26h-18.3V271a9.14,9.14,0,0,0,9.14,9.16h0a9.15,9.15,0,0,0,9.15-9.14Z"/><polygon class="cls-21" points="244.77 27.37 253.99 5.32 263.06 27.39 244.77 27.37"/><polygon class="cls-22" points="251.72 10.61 253.93 5.32 256.11 10.61 251.72 10.61"/><path class="cls-22" d="M262.92,256.84v-2.33a39.17,39.17,0,0,1-18.3-.08v2.35a42,42,0,0,0,18.3.06Z"/><path class="cls-22" d="M244.63,248.71v2.35a42,42,0,0,0,18.3.06v-2.33A39.17,39.17,0,0,1,244.63,248.71Z"/></g></svg>