<svg xmlns="http://www.w3.org/2000/svg" xmlns:xlink="http://www.w3.org/1999/xlink" viewBox="0 0 247.02 365.02"><defs><style>.cls-1{fill:url(#New_Gradient_Swatch_3);}.cls-11,.cls-2{fill:#a5cbef;}.cls-3{fill:url(#linear-gradient);}.cls-4{fill:#3c5185;}.cls-5{fill:#1e365e;}.cls-6{fill:url(#New_Gradient_Swatch_1);}.cls-7{fill:#f2b1b5;}.cls-8{fill:url(#linear-gradient-2);}.cls-9{fill:url(#New_Gradient_Swatch_1-2);}.cls-10{fill:url(#linear-gradient-3);}.cls-11{opacity:0.3;}.cls-12{fill:url(#linear-gradient-4);}.cls-13{fill:url(#New_Gradient_Swatch_1-3);}.cls-14{fill:url(#New_Gradient_Swatch_2);}.cls-15{fill:url(#New_Gradient_Swatch_1-4);}.cls-16{fill:url(#New_Gradient_Swatch_3-2);}.cls-17{fill:url(#New_Gradient_Swatch_1-5);}.cls-18{fill:url(#New_Gradient_Swatch_1-6);}.cls-19{fill:#fff;}</style><linearGradient id="New_Gradient_Swatch_3" x1="230.95" y1="237.11" x2="247.02" y2="237.11" gradientUnits="userSpaceOnUse"><stop offset="0" stop-color="#f69139"/><stop offset="1" stop-color="#ffc107"/></linearGradient><linearGradient id="linear-gradient" x1="231.09" y1="117.5" x2="247.02" y2="117.5" gradientUnits="userSpaceOnUse"><stop offset="0" stop-color="#a8d9fb"/><stop offset="0.09" stop-color="#b3defb"/><stop offset="0.49" stop-color="#dcf0fd"/><stop offset="0.81" stop-color="#f6fbff"/><stop offset="1" stop-color="#fff"/></linearGradient><linearGradient id="New_Gradient_Swatch_1" x1="176.53" y1="288.47" x2="196.12" y2="288.47" gradientUnits="userSpaceOnUse"><stop offset="0" stop-color="#0060a9"/><stop offset="1" stop-color="#1c86af"/></linearGradient><linearGradient id="linear-gradient-2" x1="169.67" y1="188.45" x2="192.16" y2="188.45" xlink:href="#linear-gradient"/><linearGradient id="New_Gradient_Swatch_1-2" x1="176.54" y1="278.15" x2="213.87" y2="278.15" xlink:href="#New_Gradient_Swatch_1"/><linearGradient id="linear-gradient-3" x1="176.4" y1="215.31" x2="215.27" y2="215.31" xlink:href="#linear-gradient"/><linearGradient id="linear-gradient-4" x1="187.69" y1="183.24" x2="214.45" y2="207.74" xlink:href="#linear-gradient"/><linearGradient id="New_Gradient_Swatch_1-3" x1="-2406.39" y1="184.31" x2="-2368.82" y2="184.31" gradientTransform="matrix(-1, 0, 0, 1, -2293.13, 0)" xlink:href="#New_Gradient_Swatch_1"/><linearGradient id="New_Gradient_Swatch_2" x1="-2403.23" y1="188.96" x2="-2371.25" y2="188.96" gradientTransform="matrix(-1, 0, 0, 1, -2293.13, 0)" gradientUnits="userSpaceOnUse"><stop offset="0" stop-color="#f69139"/><stop offset="1" stop-color="#f69139"/></linearGradient><linearGradient id="New_Gradient_Swatch_1-4" x1="-2404.92" y1="147.47" x2="-2379.93" y2="147.47" gradientTransform="matrix(-1, 0, 0, 1, -2293.13, 0)" xlink:href="#New_Gradient_Swatch_1"/><linearGradient id="New_Gradient_Swatch_3-2" x1="69.48" y1="123.78" x2="99.11" y2="123.78" xlink:href="#New_Gradient_Swatch_3"/><linearGradient id="New_Gradient_Swatch_1-5" x1="-2254.74" y1="86.84" x2="-2308.12" y2="22.67" gradientTransform="matrix(-1, 0, 0, 1, -2250.49, 0)" xlink:href="#New_Gradient_Swatch_1"/><linearGradient id="New_Gradient_Swatch_1-6" x1="-2267.55" y1="-8.53" x2="-2336.54" y2="108.8" gradientTransform="matrix(-1, 0, 0, 1, -2250.49, 0)" xlink:href="#New_Gradient_Swatch_1"/></defs><title>homepage</title><g id="Graphics"><path class="cls-1" d="M238.92,347.14h0a8,8,0,0,1-8-8l.14-212.08,15.93,0-.14,212.08A8,8,0,0,1,238.92,347.14Z"/><path class="cls-2" d="M246.9,326.32H231l0,12.85a8,8,0,0,0,8,8h0a8,8,0,0,0,8-8Z"/><polygon class="cls-3" points="231.09 127.08 239.12 107.89 247.02 127.1 231.09 127.08"/><polygon class="cls-4" points="237.15 112.49 239.07 107.89 240.96 112.5 237.15 112.49"/><path class="cls-4" d="M246.9,326.83v-2a34.17,34.17,0,0,1-15.93-.07v2a35.54,35.54,0,0,0,8.1.91A36.26,36.26,0,0,0,246.9,326.83Z"/><path class="cls-4" d="M231,319.75v2.05a36.7,36.7,0,0,0,15.93.05v-2A34.17,34.17,0,0,1,231,319.75Z"/><path class="cls-5" d="M177.09,338.68,175,346.1a5.13,5.13,0,0,0,2.55,4.44l1,.72a14.38,14.38,0,0,0,14.08.21l13-7.07a2.22,2.22,0,0,0,0-3.89h0c-2.48-1.42-5.42-3.57-8.09-3.22a28.18,28.18,0,0,1-3.76.38l-6,.83Z"/><path class="cls-6" d="M183,346a7.47,7.47,0,0,0,7.45-7.14l2.13-49.1,3.52-51.38c-.16-4.12-9.27-7.72-13.41-7.5s-6.34,7.68-6.17,11.8l1.13,47.07-.57,48.08c-.18,4.11,1.48,8,5.59,8.16Z"/><path class="cls-7" d="M187,248.6a4.19,4.19,0,0,0,1.91-.7,4.35,4.35,0,0,0,1.2-6l-13.43-20A19.35,19.35,0,0,1,178,198.71l12.54-14.92a4.35,4.35,0,1,0-6.65-5.6L171.31,193.1a28.09,28.09,0,0,0-1.84,33.56l13.43,20A4.32,4.32,0,0,0,187,248.6Z"/><path class="cls-8" d="M175.21,200.84a4.93,4.93,0,0,0,3.23-1.73L191,184.19a5,5,0,0,0-7.61-6.4L170.83,192.7a5,5,0,0,0,.61,7A4.91,4.91,0,0,0,175.21,200.84Z"/><path class="cls-5" d="M198.27,350.49l-2.15,7.43a5.14,5.14,0,0,0,2.56,4.43l1,.72a14.36,14.36,0,0,0,14.08.22l13-7.07a2.24,2.24,0,0,0,0-3.9h0c-2.48-1.42-5.43-3.57-8.1-3.22a29.58,29.58,0,0,1-3.76.39l-6,.82Z"/><path class="cls-9" d="M209.84,245.34V215.8c0-2.83,5.88-.88,3.44-2.29l-25.71-14.85c-4.9-2.82-8,23.72-8,29.38l-3,22.34a7.91,7.91,0,0,0,4,6.84l12.61,7.08,5.75,37.3-.58,48.08c-.18,4.12,1.48,8,5.6,8.16h.33a7.45,7.45,0,0,0,7.44-7.14l2.14-49.1-2.14-51.74A7.41,7.41,0,0,0,209.84,245.34Z"/><path class="cls-10" d="M177.1,188.43l1.39,21.64c-.46,4.61-.3,9.21-.77,13.82-.27,2.66-1.74,19.66-1.2,22.25.35,1.66,14.09,6.74,14.64,7,7.73,3.46,15.54,4.68,21.78,1.67l.33-22.37,1.29-16.49c.79-11.3,3-26.39-8.15-33.31q-.71-.45-1.44-.84l-11.82-6.46a9,9,0,0,0-9,0h0A14.11,14.11,0,0,0,177.1,188.43Z"/><path class="cls-7" d="M195.17,182.66a4,4,0,0,1-4-4V162.87a4,4,0,0,1,8,0v15.78A4,4,0,0,1,195.17,182.66Z"/><path class="cls-7" d="M191.16,175.3h0L194,148.73l19.67,2.13-.74,6.9A19.79,19.79,0,0,1,191.16,175.3Z"/><path class="cls-4" d="M207.68,155.78c-1.07.66-1.56,1.66-.65,3.31.36.65,1.11,2.24.47,2.94s-1.56-.14-2.32-.27c-1.69-.29-1.18,1.69-1.37,2.79-.77,4.37-5.12,9.67-9.93,9.4-2.95-.16-4.6-3.47-5.1-6.38-.76-4.36-.31-8.84.13-13.25.28-2.76.61-5.67,2.24-7.92a10.72,10.72,0,0,1,7-3.94,31.71,31.71,0,0,1,8.2,0c2.7.25,5.64.22,8.22,1.18,1.7.64,4,2.41,3.95,4.39-.09,2.94-2.43,4.74-4.92,5.82C212.15,154.51,209.27,154.78,207.68,155.78Z"/><path class="cls-11" d="M203.61,193.73a4.34,4.34,0,0,1,5.38,3L214.55,216l-1.16,14.93a11,11,0,0,1-5.55-6.8l-7.21-25A4.36,4.36,0,0,1,203.61,193.73Z"/><path class="cls-7" d="M218.94,227.24a11,11,0,0,0,9.8-5.89l9.73-18.17a4.35,4.35,0,0,0-7.67-4.11l-9.73,18.17a2.46,2.46,0,0,1-4.51-.39l-8.24-24.67a4.35,4.35,0,1,0-8.26,2.76l8.24,24.67A11,11,0,0,0,218,227.2C218.28,227.23,218.62,227.24,218.94,227.24Z"/><path class="cls-12" d="M208.79,212.33a5.08,5.08,0,0,0,1.58-.26,5,5,0,0,0,3.14-6.29l-4.6-13.8a5,5,0,0,0-9.44,3.15l4.61,13.8A5,5,0,0,0,208.79,212.33Z"/><path class="cls-7" d="M228.26,210.12a1.22,1.22,0,0,0,1.06-.78L236.2,192a1.24,1.24,0,0,0-2.31-.91L227,208.43a1.24,1.24,0,0,0,.7,1.61A1.17,1.17,0,0,0,228.26,210.12Z"/><path class="cls-7" d="M230.26,209.11a1.22,1.22,0,0,0,1.12-.7l8.16-16.73a1.24,1.24,0,1,0-2.23-1.08l-8.16,16.73a1.24,1.24,0,0,0,.57,1.66A1.32,1.32,0,0,0,230.26,209.11Z"/><path class="cls-7" d="M231,211.42a1.24,1.24,0,0,0,1.16-.64l9.06-16.26a1.25,1.25,0,0,0-2.18-1.21l-9,16.27a1.23,1.23,0,0,0,.48,1.68A1.16,1.16,0,0,0,231,211.42Z"/><path class="cls-7" d="M229.61,213.65a1.25,1.25,0,0,0,1.24-.45l11.46-14.67a1.24,1.24,0,1,0-2-1.53l-11.46,14.67a1.24,1.24,0,0,0,.22,1.74A1.22,1.22,0,0,0,229.61,213.65Z"/><path class="cls-7" d="M231.07,205.39a1.23,1.23,0,0,0,.52-1.21l-1.24-7.83a1.24,1.24,0,0,0-2.45.39l1.24,7.82a1.24,1.24,0,0,0,1.41,1A1.27,1.27,0,0,0,231.07,205.39Z"/><path class="cls-5" d="M86,302.42l4.46-2.61,4.64-2.68,10.48-6.07a3.56,3.56,0,0,0-.57-6.43h0a7.89,7.89,0,0,0-6.14.31l-8.06,3.93L81,292.46a2,2,0,0,0-1.3,2l.15,2.61a5.7,5.7,0,0,0,5.69,5.37Z"/><path class="cls-7" d="M84.44,290.43l6.39-1.56,4.76-2.32a3.53,3.53,0,0,1,.07,6.16l-7.08,4-.34.2a5,5,0,0,1-6-.76c-1.2-1.18-2.22-2.4-1.83-2.9l2.77-.88A2,2,0,0,1,84.44,290.43Z"/><path class="cls-7" d="M85.77,297.64c3,0,4.42-2.47,4.42-5.52l4-97.53c0-3.05-6.47-9.54-9.52-9.54s-7.37,35.28-7.37,38.32L79.2,244l1,48.15A5.52,5.52,0,0,0,85.77,297.64Z"/><path class="cls-7" d="M87.87,199a4.42,4.42,0,0,0,3.87-6.53L77.22,165.86a6.53,6.53,0,0,1,2-8.55l19-13a4.41,4.41,0,1,0-5-7.29l-19,13a15.33,15.33,0,0,0-4.83,20.07L84,196.7A4.43,4.43,0,0,0,87.87,199Z"/><path class="cls-5" d="M105.76,313.76l4.47-2.62,4.64-2.67,10.47-6.08a3.56,3.56,0,0,0-.56-6.43h0a7.89,7.89,0,0,0-6.14.32l-8.07,3.92-9.79,3.6a2,2,0,0,0-1.29,2l.15,2.61a5.69,5.69,0,0,0,5.69,5.38Z"/><path class="cls-7" d="M104.18,301.77l6.39-1.57,4.77-2.31a3.54,3.54,0,0,1,.07,6.16l-7.08,4-.35.2a5,5,0,0,1-6-.76c-1.2-1.19-2.21-2.4-1.82-2.91l2.77-.88A2,2,0,0,1,104.18,301.77Z"/><path class="cls-7" d="M105.52,309c3,0,4.41-2.47,4.41-5.52V201.91a5.52,5.52,0,0,0-5.52-5.52c-3,0-14.66,4.36-14.66,7.41l7.68,51.95L100,303.46A5.52,5.52,0,0,0,105.52,309Z"/><path class="cls-13" d="M77.29,128.22a8.44,8.44,0,0,1,12.45-7.43l.1.06a7.84,7.84,0,0,1,2.51,2.42c8.33,13.69,19,16.83,19,30.83l-3.27,25.18,3.87,24.57,1.32,42.8a15.44,15.44,0,0,1-9.22,2.18c-.32,0-4.08-.23-4.91-.38-9.43-1.63-18.27-2.25-21.84-9.32L75.9,221.22a106.09,106.09,0,0,1,4-36.31h0Z"/><path class="cls-7" d="M91.43,151.85a4.41,4.41,0,0,0,.73.09l4.52.16a59,59,0,0,0,49.89-24.19l5.23-7.15a4.42,4.42,0,0,0-7.13-5.21l-5.23,7.15A50.22,50.22,0,0,1,97,143.28l-4.52-.17a4.42,4.42,0,0,0-1,8.74Z"/><path class="cls-7" d="M90.9,129.62h0a3.26,3.26,0,0,0,3.26-3.26v-15.1H87.63v15.1A3.26,3.26,0,0,0,90.9,129.62Z"/><path class="cls-7" d="M84.26,121.51l6.55.86c4.82.64,9.27-3.31,8.73-8.14,0-.26-.08-.53-.13-.79L96.05,98l-16.14,3.5Z"/><path class="cls-14" d="M94.19,194.59a53.09,53.09,0,0,1-16.07-2.44c.53-2.43,1.12-4.85,1.81-7.24l-.07-1.5a45.84,45.84,0,0,0,28.85-.08l1.39,8.86A52.61,52.61,0,0,1,94.19,194.59Z"/><path class="cls-7" d="M144.13,119.79l0,0a1.17,1.17,0,0,0,1.62-.31l5.9-8.78a1.17,1.17,0,0,0-.32-1.63l0,0a1.17,1.17,0,0,0-1.62.32l-5.9,8.78A1.17,1.17,0,0,0,144.13,119.79Z"/><path class="cls-7" d="M144,119.91h0a1.3,1.3,0,0,0,1.33-1.26l.11-3.69a1.29,1.29,0,0,0-1.25-1.33h0a1.3,1.3,0,0,0-1.34,1.25l-.11,3.7A1.3,1.3,0,0,0,144,119.91Z"/><path class="cls-15" d="M91.21,152.93a5.39,5.39,0,0,0,.91.11l4.52.17a61.17,61.17,0,0,0,10.39-.52,5.52,5.52,0,0,0-1.5-10.94,48.18,48.18,0,0,1-8.49.42L92.52,142a5.52,5.52,0,0,0-1.31,10.92Z"/><path class="cls-16" d="M71.34,139a9.61,9.61,0,0,0,1.38-3.47c.26-2.61-1.88-4.83-2.4-7.4-.77-3.8,1.87-7.28,1.71-11.06-.17-4.19-1.29-7.67,0-11.91a15.36,15.36,0,0,1,.66-1.87c2.25-5.41,7.53-8.14,13.09-9a24.83,24.83,0,0,1,7.2-.19A11.36,11.36,0,0,1,97,95.14a3.66,3.66,0,0,1,1.41,1.17A4.71,4.71,0,0,1,99.09,99c-.21,2.12-2.91,2.85-3.14,4.86-.12,1,.55,2.14.64,3.15a7.87,7.87,0,0,1-.66,3.92c-1,2.3-3.24,4.25-3.13,6.78a31.62,31.62,0,0,0,.74,3.28c.57,4-3.58,7-2.49,11,.7,2.57,3.62,4.45,3.35,7.1-.11,1.07-.75,2-.93,3.08-.37,2.17,1.22,4.53.26,6.51-3.31,6.84-14.75,5.65-20,2.69a8.73,8.73,0,0,1-3.38-3C68.62,145.54,69.78,141.91,71.34,139Z"/><path class="cls-17" d="M34.7,4.7c19.08,11,34.7,38.07,34.7,60.11,0,6.89-1.53,12.51-4.21,16.64l1.29,8.6a1.9,1.9,0,0,1-2.66,2l-7.75-3.48c-5.91,2-13.32.91-21.37-3.74C15.61,73.82,0,46.77,0,24.74S15.61-6.32,34.7,4.7Z"/><path class="cls-18" d="M60.32,85.1C63,81,64.54,75.35,64.54,68.45c0-22-15.62-49.08-34.7-60.1C20.72,3.09,12.42,2.44,6.21,5.56,12.49-1.25,22.93-2.09,34.7,4.7c19.08,11,34.7,38.07,34.7,60.11,0,6.89-1.53,12.51-4.21,16.64l1.29,8.6a1.9,1.9,0,0,1-2.66,2l-2.63-1.18Z"/><path class="cls-19" d="M34.37,55,30,52.54l0-3.27a8.23,8.23,0,0,1,.33-3,5.43,5.43,0,0,1,1.57-1.85l2.77-2.32a3.78,3.78,0,0,0,.85-2.83,8.58,8.58,0,0,0-1-3.83,6.26,6.26,0,0,0-2.41-2.67,2.14,2.14,0,0,0-2.43-.13,3.46,3.46,0,0,0-1.11,2.71L23.91,32.7q.33-4.56,2.6-6t5.7.54a15.09,15.09,0,0,1,5.63,5.79,17.42,17.42,0,0,1,2.24,8.51c0,2.15-.38,3.69-1.21,4.64a10.24,10.24,0,0,1-1.1,1.19l-1,.79c-.42.31-.77.59-1.06.83a8,8,0,0,0-.7.65,4.46,4.46,0,0,0-.66,2.93Zm-2,10.73a5.86,5.86,0,0,1-2.12-2.35,7.16,7.16,0,0,1-.92-3.3,2.78,2.78,0,0,1,.84-2.32,1.72,1.72,0,0,1,2.07,0,5.79,5.79,0,0,1,2.12,2.35,7.25,7.25,0,0,1,.92,3.3,2.78,2.78,0,0,1-.84,2.32A1.72,1.72,0,0,1,32.4,65.75Z"/></g></svg>