<svg width="100%" height="100%" viewBox="0 0 475 100" xmlns="http://www.w3.org/2000/svg" xmlns:xlink="http://www.w3.org/1999/xlink"><defs><path id="a" d="M0 0h475v100H0z"/></defs><g fill="none" fill-rule="evenodd"><mask id="b" fill="#fff"><use xlink:href="#a"/></mask><path fill="#EA8A41" mask="url(#b)" d="M131 0v100h72l-8.273-20.002h-44.41V0H131M415.838 40.07l29.236-.086c14.405 0 13.907-19.987-.35-19.987h-28.923l.037 20.073zm29.236 19.921h-29.236l-.35 40.009H396V0h48.724c40.06 0 40.556 59.991.35 59.991zM284 19.997V0h-77v100h77V79.998h-57.75V59.991h38.515V39.984h-38.514V19.997H284M42.658 42.955l-2.49 6.971-29.494 30.13 40.033-18.58 6.92-13.182-14.97-5.34zm0-.001l32.628 4.856 5.14 27.386 4.776-39.567-34.334-15.634-8.21 22.959zM0 100h100V0H0v100zM325.645 59.991L340 25.285l14.353 34.706h-28.708zM370.9 100H392L350.642 0h-21.285L288 100h21.099l8.27-20.002h45.257L370.9 100z"/></g></svg>