<?xml version="1.0" encoding="UTF-8"?>
<svg width="200px" height="200px" viewBox="0 0 200 200" version="1.1" xmlns="http://www.w3.org/2000/svg" xmlns:xlink="http://www.w3.org/1999/xlink">
    <!-- Generator: Sketch 61.2 (89653) - https://sketch.com -->
    <title>b_@2x</title>
    <desc>Created with Sketch.</desc>
    <defs>
        <linearGradient x1="25.8889078%" y1="94.1467307%" x2="68.1617362%" y2="24.5862031%" id="linearGradient-1">
            <stop stop-color="#0060A9" offset="0%"></stop>
            <stop stop-color="#1C86AF" offset="100%"></stop>
        </linearGradient>
        <linearGradient x1="-587.841683%" y1="-9.30684564%" x2="-637.203447%" y2="117.96648%" id="linearGradient-2">
            <stop stop-color="#0060A9" offset="0%"></stop>
            <stop stop-color="#1C86AF" offset="100%"></stop>
        </linearGradient>
        <linearGradient x1="100%" y1="49.985922%" x2="-0.00580385621%" y2="49.985922%" id="linearGradient-3">
            <stop stop-color="#0060A9" offset="0%"></stop>
            <stop stop-color="#1C86AF" offset="100%"></stop>
        </linearGradient>
        <linearGradient x1="100%" y1="50.0364326%" x2="3.86689924e-13%" y2="50.0364326%" id="linearGradient-4">
            <stop stop-color="#F69139" offset="0%"></stop>
            <stop stop-color="#F69139" offset="100%"></stop>
        </linearGradient>
        <linearGradient x1="99.2477593%" y1="50.1095615%" x2="0.0660700093%" y2="50.1095615%" id="linearGradient-5">
            <stop stop-color="#0060A9" offset="0%"></stop>
            <stop stop-color="#1C86AF" offset="100%"></stop>
        </linearGradient>
        <linearGradient x1="0.000780831201%" y1="50.0026491%" x2="100.023535%" y2="50.0026491%" id="linearGradient-6">
            <stop stop-color="#F69139" offset="0%"></stop>
            <stop stop-color="#FFC107" offset="100%"></stop>
        </linearGradient>
        <linearGradient x1="0.00224999695%" y1="49.9889387%" x2="100.234046%" y2="49.9889387%" id="linearGradient-7">
            <stop stop-color="#A8D9FB" offset="0%"></stop>
            <stop stop-color="#FFFFFF" offset="100%"></stop>
        </linearGradient>
        <linearGradient x1="-0.111000713%" y1="49.9871351%" x2="100%" y2="49.9871351%" id="linearGradient-8">
            <stop stop-color="#0060A9" offset="0%"></stop>
            <stop stop-color="#1C86AF" offset="100%"></stop>
        </linearGradient>
        <linearGradient x1="0.0086612173%" y1="49.9619832%" x2="177.688642%" y2="49.9619832%" id="linearGradient-9">
            <stop stop-color="#0060A9" offset="0%"></stop>
            <stop stop-color="#1C86AF" offset="100%"></stop>
        </linearGradient>
        <linearGradient x1="-0.0273463846%" y1="50.0021478%" x2="100.005729%" y2="50.0021478%" id="linearGradient-10">
            <stop stop-color="#A8D9FB" offset="0%"></stop>
            <stop stop-color="#B3DEFC" offset="5%"></stop>
            <stop stop-color="#CFEAFD" offset="19%"></stop>
            <stop stop-color="#E4F3FE" offset="34%"></stop>
            <stop stop-color="#F3FAFE" offset="51%"></stop>
            <stop stop-color="#FCFEFF" offset="71%"></stop>
            <stop stop-color="#FFFFFF" offset="100%"></stop>
        </linearGradient>
        <linearGradient x1="100%" y1="50.0484027%" x2="6.77513932e-13%" y2="50.0484027%" id="linearGradient-11">
            <stop stop-color="#FF9800" offset="15%"></stop>
            <stop stop-color="#FFC107" offset="100%"></stop>
        </linearGradient>
        <linearGradient x1="0%" y1="49.9734568%" x2="100%" y2="49.9734568%" id="linearGradient-12">
            <stop stop-color="#0060A9" offset="0%"></stop>
            <stop stop-color="#1C86AF" offset="100%"></stop>
        </linearGradient>
        <linearGradient x1="-39899.5665%" y1="50%" x2="-39799.5665%" y2="50%" id="linearGradient-13">
            <stop stop-color="#FF9800" offset="15%"></stop>
            <stop stop-color="#FFC107" offset="100%"></stop>
        </linearGradient>
        <linearGradient x1="-0.0540817067%" y1="50%" x2="99.9457995%" y2="50%" id="linearGradient-14">
            <stop stop-color="#F69139" offset="0%"></stop>
            <stop stop-color="#FFC107" offset="100%"></stop>
        </linearGradient>
        <linearGradient x1="0%" y1="50.0226552%" x2="100%" y2="50.0226552%" id="linearGradient-15">
            <stop stop-color="#A8D9FB" offset="0%"></stop>
            <stop stop-color="#B3DEFB" offset="9%"></stop>
            <stop stop-color="#DCF0FD" offset="49%"></stop>
            <stop stop-color="#F6FBFF" offset="81%"></stop>
            <stop stop-color="#FFFFFF" offset="100%"></stop>
        </linearGradient>
    </defs>
    <g id="b" stroke="none" stroke-width="1" fill="none" fill-rule="evenodd">
        <g id="homepage-community" transform="translate(27.000000, 0.000000)" fill-rule="nonzero">
            <path d="M21.4973034,2.95723781 C33.3245955,9.88667808 43,26.8928162 43,40.7516968 C43,45.0867021 42.0507964,48.6171041 40.3896902,51.2170126 L41.1878841,56.6248222 C41.2536277,57.0572739 41.0808682,57.4915568 40.7377112,57.756467 C40.3945542,58.0213773 39.9360526,58.0744152 39.5429575,57.8946722 L34.7376144,55.7052756 C31.0810235,56.9368112 26.4860153,56.2526248 21.4973034,53.3571478 C9.67540449,46.422234 0,29.4160958 0,15.5572153 C0,1.69833476 9.67540449,-3.97220245 21.4973034,2.95723781 Z" id="Path" fill="url(#linearGradient-1)"></path>
            <path d="M37.3971074,53.5078901 C39.0570248,50.9065249 39.9971074,47.3741448 39.9971074,43.0367107 C39.9971074,29.1700652 30.3599174,12.1543987 18.5847107,5.24845877 C12.9549587,1.96252382 7.84090909,1.52987572 4,3.49048357 C7.8785124,-0.786708424 14.3194215,-1.32341113 21.5822314,2.94282774 C33.3628099,9.85972081 43,26.8753873 43,40.7420328 C43,45.0794669 42.0545455,48.611847 40.4,51.2132122 L41.1950413,56.6240517 C41.2605252,57.0567457 41.0884481,57.4912719 40.7466465,57.7563306 C40.4048448,58.0213892 39.9481541,58.0744569 39.5566116,57.8946132 L37.9450413,57.1498013 L37.3971074,53.5078901 Z" id="Path" fill="url(#linearGradient-2)"></path>
            <path d="M21.458221,34.0782729 L18.7628032,32.5247394 L18.7628032,30.4751653 C18.718954,29.8445417 18.7883567,29.2110999 18.967655,28.605474 C19.1895622,28.14409 19.5121283,27.7396445 19.9110512,27.4226082 L21.6307278,25.9726435 C22.0418098,25.4811542 22.2365399,24.8412188 22.1698113,24.2010702 C22.1574789,23.3654222 21.9525923,22.544196 21.5714286,21.8026325 C21.2514406,21.1073774 20.7333291,20.5246409 20.083558,20.129177 C19.6487929,19.785643 19.0481999,19.7529927 18.5795148,20.0474121 C18.109927,20.479416 17.8566825,21.1015874 17.8894879,21.7426715 L15,20.1073731 C15.1347709,18.1995249 15.6738544,16.956698 16.6172507,16.3679906 C17.5606469,15.7792831 18.7250674,15.899205 20.1428571,16.7114033 C21.6005841,17.5813297 22.7983483,18.8338987 23.6091644,20.3363148 C24.5168461,21.9634898 24.9957734,23.7992183 25,25.6673878 C25,27.0083326 24.7628032,27.9786096 24.245283,28.5727681 C24.0401801,28.8390058 23.8129371,29.087021 23.5660377,29.3141034 C23.4043127,29.4503783 23.1994609,29.6139081 22.9407008,29.8101439 C22.6819407,30.0063797 22.4609164,30.1808116 22.2830189,30.3552434 C22.1296433,30.4807784 21.9838304,30.6154767 21.8463612,30.758617 C21.5090327,31.3066852 21.3664281,31.954606 21.4420485,32.5956023 L21.458221,34.0782729 Z M20.2398922,40.7993496 C19.675865,40.4397145 19.2222119,39.9281427 18.9299191,39.3221299 C18.5717899,38.6846435 18.3754633,37.9673583 18.3584906,37.2343989 C18.3052509,36.6909788 18.504392,36.1533384 18.8975741,35.7789833 C19.2787094,35.4936792 19.7994577,35.4936792 20.180593,35.7789833 C20.7444238,36.13647 21.1981647,36.6462526 21.490566,37.2507519 C21.8473344,37.8789257 22.0437236,38.5870723 22.0619946,39.311228 C22.1195239,39.8568128 21.9198275,40.3979714 21.5229111,40.7720946 C21.1477306,41.0655728 20.6269312,41.0766361 20.2398922,40.7993496 L20.2398922,40.7993496 Z" id="Shape" fill="#FFFFFF"></path>
            <path d="M54.8632902,193 L57.6087649,191.427791 L60.466847,189.818896 L66.9015534,186.150408 C67.6410872,185.734046 68.0663121,184.936201 67.9915328,184.105291 C67.9167536,183.274381 67.355553,182.561332 66.5530068,182.277532 L66.5530068,182.277532 C65.3256075,181.849112 63.9737766,181.918946 62.7994281,182.471438 L57.8286174,184.829752 L51.8014424,186.999401 C51.2938886,187.17796 50.9681981,187.662898 51.0024663,188.189039 L51.0936247,189.761249 C51.1961088,191.578081 52.7333816,193 54.5951774,193 L54.8632902,193 Z" id="Path" fill="#D3DAED"></path>
            <path d="M53.6642805,185.45123 L57.7658226,184.461945 L60.8224215,183 C61.5397165,183.388342 61.989408,184.125936 61.9998155,184.931189 C62.0102229,185.736442 61.5797395,186.485041 60.8727129,186.891191 L56.3241361,189.446846 L56.1006189,189.573255 C54.8463561,190.288145 53.2609708,190.090137 52.2281819,189.089604 C51.4570473,188.342144 50.8032592,187.572699 51.0547162,187.253929 L52.8316786,186.704326 C52.8008851,186.152529 53.1380922,185.645021 53.6642805,185.45123 Z" id="Path" fill="#F2B1B5"></path>
            <path d="M54.5170103,190 C56.5015464,190 57.3974227,188.463085 57.3974227,186.568999 L60,125.925783 C60,124.031697 55.7871134,120 53.7969072,120 C51.806701,120 49,141.928102 49,143.811365 L50.2417526,156.615385 L50.9221649,186.552764 C50.9176396,187.465532 51.2943824,188.342397 51.9690378,188.98935 C52.6436932,189.636303 53.5606435,190 54.5170103,190 L54.5170103,190 Z" id="Path" fill="#F2B1B5"></path>
            <path d="M55.386943,128 C56.3378427,127.997884 57.2174344,127.486508 57.7021767,126.653971 C58.186919,125.821435 58.2052255,124.790686 57.7503626,123.940866 L48.8862111,107.417873 C47.8981208,105.584215 48.4406859,103.286671 50.1396202,102.110193 L61.7336542,94.0730029 C62.5726961,93.5384234 63.0566974,92.5791647 62.9946818,91.5737292 C62.9326661,90.5682936 62.3345935,89.6781589 61.4364503,89.2545526 C60.5383071,88.8309464 59.4843393,88.9419017 58.6904194,89.5436381 L47.1016965,97.5808283 C43.1069004,100.339891 41.8321187,105.739942 44.1593718,110.044689 L53.0182123,126.567682 C53.4897955,127.451209 54.3989561,128.000957 55.386943,128 L55.386943,128 Z" id="Path" fill="#F2B1B5"></path>
            <path d="M66.8679713,200 L69.6186556,198.429419 L72.476579,196.816957 L78.9109282,193.152268 C79.6461098,192.732708 80.0670027,191.936342 79.9912519,191.108203 C79.9155012,190.280064 79.3567334,189.569125 78.557039,189.283405 L78.557039,189.283405 C77.3312364,188.848422 75.9773011,188.916408 74.8036686,189.471874 L69.8331339,191.832981 L63.8009316,193.995147 C63.2957224,194.176379 62.9713409,194.658894 63.0019999,195.183553 L63.0931532,196.754133 C63.2011043,198.567847 64.7391359,199.98458 66.5998735,199.984294 L66.8679713,200 Z" id="Path" fill="#D3DAED"></path>
            <path d="M65.659641,192.452216 L69.7677187,191.462532 L72.8250227,190 C73.5418916,190.389504 73.9906011,191.128001 73.9998542,191.933567 C74.0091072,192.739133 73.5774755,193.487416 72.8697365,193.892755 L68.3256995,196.443939 L68.1021307,196.570399 C66.8470715,197.287881 65.2593987,197.09209 64.2232111,196.092052 C63.4518985,195.338793 62.8035488,194.574537 63.0550638,194.255639 L64.8324362,193.705815 C64.795257,193.15378 65.1319428,192.643545 65.659641,192.452216 Z" id="Path" fill="#F2B1B5"></path>
            <path d="M67.1578266,197 C69.1198793,197 70,195.462966 70,193.568734 L70,130.431266 C70,128.53623 68.4087671,127 66.4458818,127 C64.4838292,127 57,129.706046 57,131.60569 L61.927555,163.926705 L63.6093144,193.590382 C63.6216273,195.47485 65.2058518,196.997065 67.1578266,197 L67.1578266,197 Z" id="Path" fill="#F2B1B5"></path>
            <path d="M49.9739302,83.2951267 C49.9747769,81.4297149 50.932926,79.7022398 52.496502,78.7471079 C54.060078,77.791976 55.9986107,77.7499732 57.6001838,78.6365249 L57.6588063,78.6692935 C58.2758871,79.0541687 58.8019255,79.5745944 59.1989791,80.1930331 C64.299136,88.7784048 70.8168915,90.7499819 70.8168915,99.5374265 L68.8183974,115.331889 L71.1899437,130.749512 L72,157.597914 C70.3045507,158.652405 68.3277748,159.132094 66.3509233,158.968733 C66.1537386,158.968733 63.8514733,158.821275 63.3451882,158.733892 C57.5682079,157.707143 52.1536211,157.319381 49.9686009,152.879236 L49.1265687,141.650531 C48.6575574,133.966071 49.4942546,126.256511 51.5993721,118.865436 L51.5993721,118.865436 L49.9739302,83.2951267 Z" id="Path" fill="url(#linearGradient-3)"></path>
            <path d="M58.0951285,98.8165705 C58.2445325,98.8457157 58.3958344,98.8638902 58.547844,98.8709507 L61.3503684,98.9742731 C73.4958253,99.4316258 85.0721646,93.7676128 92.2374207,83.8620117 L95.4711027,79.3919581 C96.0487444,78.5963742 96.1618578,77.55028 95.7678342,76.6477291 C95.3738106,75.7451782 94.5325115,75.1232895 93.5608462,75.0163226 C92.5891809,74.9093557 91.6347684,75.3335613 91.0571268,76.1291453 L87.8234448,80.5937608 C81.729151,89.0207706 71.8814376,93.8391734 61.5497788,93.4492434 L58.7472544,93.345921 C57.3595574,93.3384406 56.1866793,94.3816888 56.0199814,95.7717678 C55.8532836,97.1618469 56.7457115,98.4572484 58.0951285,98.7839424 L58.0951285,98.8165705 Z" id="Path" fill="#F2B1B5"></path>
            <path d="M58,85 L58,85 C59.1045695,85 60,84.1234811 60,83.0422402 L60,74 L56,74 L56,83.0579022 C56.0087868,84.1330217 56.9016488,85 58,85 L58,85 Z" id="Path" fill="#F2B1B5"></path>
            <path d="M53.6645952,79.4244547 L57.6614879,79.9586937 C60.6020969,80.3486882 63.3197717,77.9232429 62.9694464,74.9582161 C62.9694464,74.7979444 62.9216748,74.6323303 62.889827,74.4720586 L60.840955,65 L51,67.1369562 L53.6645952,79.4244547 Z" id="Path" fill="#F2B1B5"></path>
            <path d="M60.0462585,124.999687 C56.6389524,125.012923 53.2501051,124.501611 50,123.4839 C50.3319728,121.973527 50.7020408,120.473981 51.137415,118.985261 L51.0938776,118.048722 C56.9521111,119.965558 63.2761319,119.948469 69.1238095,118 L70,123.510968 C66.7785186,124.512253 63.4213049,125.014371 60.0462585,124.999687 Z" id="Path" fill="url(#linearGradient-4)"></path>
            <path d="M91.3150886,78.8721239 L91.3150886,78.8721239 C91.4702054,78.9825106 91.6615337,79.0237902 91.8462403,78.9867213 C92.0309469,78.9496523 92.193604,78.8373312 92.2977972,78.6749034 L95.8799287,73.1527277 C96.0981323,72.8137269 96.0107077,72.3555729 95.6844436,72.1282765 L95.6844436,72.1282765 C95.5284917,72.0176168 95.3363463,71.9761977 95.1507815,72.0132397 C94.9652167,72.0502817 94.8016349,72.1627102 94.6964516,72.325497 L91.1196035,77.853151 C91.0150723,78.0151115 90.9769392,78.2135239 91.013608,78.4046616 C91.0502769,78.5957994 91.158738,78.7639744 91.3150886,78.8721239 L91.3150886,78.8721239 Z" id="Path" fill="#F2B1B5"></path>
            <path d="M90.9288878,78.9996944 L90.9288878,78.9996944 C91.1837653,79.0056504 91.4309496,78.9243557 91.6160153,78.77371 C91.801081,78.6230643 91.9088539,78.4154195 91.9156045,78.1964951 L91.9994432,75.8478296 C92.0081272,75.629435 91.9149404,75.4171003 91.7405741,75.2579726 C91.5662078,75.0988449 91.3250935,75.0060945 91.0707686,75.0003159 L91.0707686,75.0003159 C90.5424361,74.9878788 90.1015894,75.3442585 90.0840518,75.7979758 L90.0002132,78.1521806 C89.9892539,78.6048203 90.4022059,78.9816827 90.9288878,78.9996944 L90.9288878,78.9996944 Z" id="Path" fill="#F2B1B5"></path>
            <path d="M57.8119704,98.8087282 C57.9942378,98.8438706 58.1788757,98.8667415 58.3645147,98.8771712 L61.2322192,98.9772033 C63.4349359,99.0510597 65.6402473,98.9453781 67.8240719,98.6613125 C69.1022998,98.5470411 70.2125255,97.7756925 70.7175468,96.6510207 C71.2225682,95.5263489 71.0414695,94.228551 70.2455668,93.2686944 C69.4496641,92.3088379 68.1664784,91.8407129 66.901323,92.048665 C65.1165053,92.280184 63.31407,92.3647343 61.5140168,92.3013777 L58.6463122,92.2013456 C56.8202385,92.130308 55.2436813,93.4088115 55.025362,95.1377423 C54.8070427,96.8666732 56.0203285,98.4650158 57.8119704,98.8087282 L57.8119704,98.8087282 Z" id="Path" fill="url(#linearGradient-5)"></path>
            <path d="M46.1270499,90.9282365 C46.5463564,90.2745825 46.8324208,89.5418178 46.9682638,88.7734351 C47.1216928,87.157334 45.8254826,85.7890351 45.5080433,84.199869 C45.0371751,81.8457484 46.6243713,79.6909469 46.5503022,77.3583744 C46.4444891,74.7672256 45.7672854,72.6070372 46.5503022,69.9835664 C46.660554,69.5911198 46.794847,69.2060926 46.9523919,68.8307476 C48.3226713,65.4800313 51.5288076,63.7938992 54.8883729,63.2282638 C56.333262,62.9708211 57.8074557,62.9308902 59.2637438,63.1097497 C60.1262852,63.1686543 60.9700456,63.3934895 61.7503512,63.7723512 C62.0904891,63.9344397 62.3838566,64.1830556 62.6021465,64.4942097 C62.8955044,64.9957696 63.0320533,65.5763373 62.9936549,66.1587938 C62.8666792,67.4732227 61.2265765,67.925731 61.0837288,69.1701288 C61.0149503,69.7896343 61.4223307,70.4899447 61.4752372,71.1202242 C61.5470641,71.9482447 61.4086019,72.7811622 61.0731475,73.5389888 C60.438269,74.9665448 59.1050242,76.1732336 59.1738027,77.7354646 C59.2055466,78.4303881 59.5229859,79.0822155 59.6182176,79.771752 C59.9674008,82.2174517 57.4437588,84.0813549 58.1103812,86.5539896 C58.5336336,88.1431557 60.3060027,89.3067484 60.1419924,90.9443976 C60.0785045,91.606999 59.6869961,92.1941824 59.5758924,92.8513968 C59.3536849,94.1981478 60.316584,95.6526387 59.734612,96.8862626 C57.7294542,101.109673 50.7722441,100.377041 47.5661078,98.5454597 C46.7371247,98.1269922 46.0296024,97.4957075 45.513334,96.7138785 C44.4763658,94.9684893 45.1800228,92.7167218 46.1270499,90.9282365 Z" id="Path" fill="url(#linearGradient-6)"></path>
            <path d="M102.036672,65 C100.994118,64.9949337 100.058203,64.3518863 99.6686125,63.3729559 L95.0182143,51.9348362 C93.0391676,47.0312154 93.9912423,41.4147671 97.4719958,37.4595676 L101.570561,32.8279155 C102.519123,31.792484 104.11268,31.7183815 105.151022,32.6614195 C106.189364,33.6044575 106.288809,35.2161695 105.374458,36.2826724 L101.275893,40.9143245 C99.1005052,43.388312 98.5060368,46.9000871 99.7436189,49.9661129 L104.394017,61.4042326 C104.654037,62.0376431 104.653784,62.7498715 104.393314,63.3830925 C104.132845,64.0163135 103.633668,64.518236 103.006398,64.7776373 C102.7012,64.9169661 102.371391,64.9925929 102.036672,65 Z" id="Path" fill="url(#linearGradient-7)"></path>
            <path d="M102.116753,109 L99.8135124,110.676804 L93.0096872,113.408202 C92.4914461,113.613523 92.1514882,114.112997 92.1519287,114.668442 L92.008969,116.250333 C91.9564767,116.740487 92.1364219,117.226995 92.4956412,117.566122 C92.8548604,117.905249 93.3522913,118.05823 93.8409717,117.979867 L103.800501,116.503435 L104.785335,115.728309 L105.627209,115.585939 L106.469083,116.508708 L107.411558,116.508708 C108.28883,116.508708 109,115.800472 109,114.926818 L109,112.7649 L107.453917,109.021092 L102.116753,109 Z" id="Path" fill="#1E365E"></path>
            <path d="M104.315876,114 C101.987713,114 101.005342,112.205613 101.005342,109.989652 L100.102469,89.7865794 L100.000257,60.60076 C99.9750378,58.259495 101.809978,56.2774772 104.253413,56.0066958 C106.581576,55.8607668 109.841004,58.1253701 110,60.3305209 L108.529283,89.6514599 L107.927367,109.995057 C107.927367,112.205613 106.63836,114 104.315876,114 Z" id="Path" fill="url(#linearGradient-8)"></path>
            <path d="M137.249019,44.9984064 L137.208032,44.9984064 C136.993619,45.0109947 136.782286,44.9486141 136.620763,44.8250585 C136.45924,44.7015028 136.360834,44.5269511 136.347304,44.3400008 L136.001842,39.746473 C135.987397,39.5609277 136.058343,39.3780101 136.19899,39.2381706 C136.339638,39.0983311 136.538399,39.0130912 136.751319,39.0013008 L136.792306,39.0013008 C137.237777,38.9779538 137.621732,39.2716566 137.653034,39.6597064 L137.998496,44.2532342 C138.025287,44.6387251 137.690964,44.9711278 137.249019,44.9984064 L137.249019,44.9984064 Z" id="Path" fill="#F2B1B5"></path>
            <path d="M131.450559,51 C128.418255,51.0098952 125.512513,49.8239828 123.402832,47.7154082 L116.699124,41.0459224 C115.75015,40.1038809 115.769719,38.5954738 116.742832,37.6768008 C117.715945,36.7581278 119.274104,36.7770717 120.223078,37.7191131 L126.910395,44.3938879 C128.100758,45.5817167 129.741071,46.2467016 131.450559,46.2344756 L131.450559,46.2344756 C133.152096,46.2390972 134.782682,45.5748581 135.968869,44.3938879 L138.793496,41.6435845 C139.751522,40.7103062 141.309681,40.7055702 142.273742,41.6330064 C143.237803,42.5604426 143.242695,44.0688498 142.284669,45.0021281 L139.481896,47.7312753 C137.374852,49.8320993 134.47527,51.0121844 131.450559,51 L131.450559,51 Z" id="Path" fill="#F2B1B5"></path>
            <path d="M138.419672,42.8884461 L138.329735,42.8311917 C138.004308,42.6143102 137.902537,42.1532582 138.102247,41.8006121 L140.620487,37.3576689 C140.824948,37.0040353 141.25426,36.894264 141.583344,37.1114748 L141.667991,37.1687293 C141.825747,37.2729243 141.938514,37.4409948 141.981231,37.6355905 C142.023948,37.8301863 141.993077,38.0351865 141.895479,38.2050343 L139.377238,42.6365266 C139.281829,42.8082099 139.126919,42.9314487 138.947038,42.9787722 C138.767157,43.0260958 138.577259,42.9935704 138.419672,42.8884461 L138.419672,42.8884461 Z" id="Path" fill="#F2B1B5"></path>
            <path d="M139.339503,42.8371765 L139.339503,42.8371765 C139.157629,42.72234 139.038153,42.5513999 139.007676,42.3624151 C138.977198,42.1734303 139.038248,41.9820894 139.177234,41.8309931 L142.46468,38.2841967 C142.601865,38.131951 142.80607,38.0319381 143.031832,38.0064252 C143.257595,37.9809122 143.486171,38.0320172 143.666672,38.1483619 L143.666672,38.1483619 C144.040537,38.3906705 144.11036,38.8402729 143.822931,39.1545453 L140.571544,42.7063727 C140.433098,42.865388 140.222431,42.969562 139.989241,42.9943194 C139.756051,43.0190768 139.520987,42.9622253 139.339503,42.8371765 L139.339503,42.8371765 Z" id="Path" fill="#F2B1B5"></path>
            <path d="M140.195722,43.7352585 L140.195722,43.7352585 C139.917156,43.4080284 139.938489,42.9022219 140.243476,42.6030095 L143.745469,39.2062625 C144.053592,38.9105087 144.527743,38.9358033 144.806679,39.2628749 L144.806679,39.2628749 C145.083877,39.5916239 145.060169,40.0975162 144.753618,40.3951239 L141.251626,43.791871 C141.105133,43.9350397 140.910995,44.009638 140.712585,43.9990002 C140.514175,43.9883624 140.328025,43.893375 140.195722,43.7352585 Z" id="Path" fill="#F2B1B5"></path>
            <path d="M140.098108,44.6063408 L140.098108,44.572914 C139.889957,44.2018165 140.023705,43.7350237 140.398206,43.5255419 L144.837393,41.0965298 C145.214559,40.8917277 145.688984,41.0233235 145.901892,41.3917996 L145.901892,41.4252264 C146.110043,41.7963239 145.976295,42.2631167 145.601794,42.4725986 L141.162607,44.9016106 C140.98169,45.0015236 140.767815,45.0265437 140.56813,44.9711554 C140.368446,44.9157671 140.199346,44.7845179 140.098108,44.6063408 L140.098108,44.6063408 Z" id="Path" fill="#F2B1B5"></path>
            <path d="M115.97786,121.548572 L113,131.370032 L113,131.370032 C113.081853,132.509431 113.883993,133.466349 114.987085,133.740538 L115.745387,133.924168 C116.460358,134.100918 117.216333,133.965491 117.826568,133.551342 L117.826568,133.551342 C119.685602,132.291829 120.910974,130.284655 121.186347,128.047986 L122,121.370506 L120.848708,119 L115.97786,121.548572 Z" id="Path" fill="#1E365E"></path>
            <path d="M118.511643,124 C116.447809,124 115.263016,122.44609 115.066461,120.366991 L112.01985,94.5948265 L106.898485,69.6889531 L101.001819,59.629146 C100.843482,57.4201033 111.069831,57.1656303 113.302921,57.0032007 C115.53601,56.8407711 119.690976,62.9048098 119.854772,65.1246811 L120.095007,93.9667653 L121.973205,119.608986 C122.18614,121.818029 121.126924,123.778013 118.904754,123.989171 C118.773717,123.99639 118.64268,124 118.511643,124 Z" id="Path" fill="url(#linearGradient-9)"></path>
            <path d="M139.209246,43.3190393 C138.172415,42.3120853 136.521152,42.3391576 135.517484,43.3795653 C134.364189,44.5926564 132.766846,45.2768278 131.098309,45.2723793 L131.098309,45.2723793 C129.43095,45.2794306 127.832913,44.6017697 126.673664,43.3960724 L120.810599,37.3434695 C120.105717,35.7921725 118.984358,34.4696533 117.572787,33.5248273 C117.408708,33.41478 117.239161,33.310235 117.064144,33.2111924 L109.297771,28.8368112 C107.380515,27.7218747 105.017581,27.7210091 103.099519,28.8345406 C101.181456,29.9480721 100,32.006726 100,34.2346325 L100,60.981635 C102.937002,65.2734807 109.625927,68.431839 119.73862,66.3354374 L120.394934,56.2606048 L121.160632,45.2558722 L122.927209,47.0771554 C125.070375,49.2984762 128.021303,50.5444103 131.098309,50.5271391 L131.098309,50.5271391 C134.17924,50.5281937 137.127668,49.2665872 139.263939,47.0331365 C140.266316,45.9915356 140.241853,44.3303099 139.209246,43.3190393 Z" id="Path" fill="url(#linearGradient-10)"></path>
            <path d="M110,35.3477673 L106.030929,38 L106.001086,35.9539919 C105.983196,34.9919497 106.186464,34.0370749 106.597939,33.150203 L108.084103,30 L109.194249,30.1461434 L110,35.3477673 Z" id="Path" fill="#FFFFFF"></path>
            <polygon id="Path" fill="url(#linearGradient-11)" points="109.72348 35 112 37.9970958 110.015495 41 107.858164 40.2565344 107 36.8993224"></polygon>
            <path d="M110.997452,36 L110.997452,36 C109.89429,36 109,34.997684 109,33.7612736 L109,26 L113,26 L113,33.7612736 C113,34.3560097 112.788857,34.9263038 112.413159,35.3463096 C112.037462,35.7663155 111.528092,36.0015099 110.997452,36 Z" id="Path" fill="#F2B1B5"></path>
            <path d="M111.914286,32 L110.012793,32 C105.089979,32 103,28.2059181 103,23.5265505 L103,21.6347791 C103,20.1796308 104.241002,19 105.771855,19 L110.428571,19 C112.375817,19 113.954371,20.5004903 113.954371,22.351439 L116,29.5812728 C116,30.6351844 113.028571,32 111.914286,32 Z" id="Path" fill="#F2B1B5"></path>
            <path d="M118.898715,22.616264 C118.405915,19.8282674 116.603497,17.4481288 114.055676,16.2209086 C112.865241,15.6929393 111.603253,15.3445504 110.310832,15.1870936 C108.257208,14.8901468 106.088273,14.8626517 104.199378,15.7369952 C102.002989,16.71582 100.998141,18.6349765 103.348277,20.2351901 C104.34102,20.8420015 105.479844,21.1670418 106.642861,21.1755218 C107.927749,21.247009 109.388348,21.1755218 110.288868,22.0828594 C111.513355,23.2761459 111.024658,25.3822689 111.776922,26.9054963 L112.326019,26.9054963 C112.457094,26.448554 112.499958,25.9707711 112.452312,25.4977482 C112.496239,25.0248329 112.946499,24.4969274 113.369304,24.716888 C113.586811,24.8812655 113.716472,25.1369092 113.720727,25.409764 C113.859242,26.3820247 113.807018,27.3720101 113.566979,28.3242424 C113.341849,29.1930869 113.050828,30.3148861 113.792109,30.8152965 C115.071506,31.678642 117.18004,29.2865701 117.74561,28.3572365 C118.800361,26.6421515 119.209257,24.6063791 118.898715,22.616264 L118.898715,22.616264 Z" id="Path" fill="#F1F2F2"></path>
            <path d="M110,35.9973064 L112.931803,40 L113.193863,37.5649832 C113.360503,36.0462564 113.939575,34.6000901 114.869959,33.3791246 L114.869959,33.3791246 C114.985644,33.2296887 115.026982,33.0367935 114.982507,32.8539391 C114.938033,32.6710847 114.812474,32.5177136 114.640656,32.4363636 L113.707065,32 L110,35.9973064 Z" id="Path" fill="#FFFFFF"></path>
            <path d="M120,64.3141173 C109.753394,66.3895177 102.975894,63.2600324 100,59 L100,61.0262462 C102.975894,65.2862786 109.753394,68.4212255 120,66.3403635 L120,64.3141173 Z" id="Path" fill="url(#linearGradient-12)"></path>
            <polygon id="Path" fill="url(#linearGradient-13)" points="110 41.6925158 109.387283 63.3119928 107.208092 65 106 62.7655546 107.907514 41"></polygon>
            <path d="M137.953936,152 L137.953936,152 C136.638193,152 135.376498,151.476657 134.447144,150.545399 C133.517791,149.61414 132.997133,148.351477 133,147.035918 L133.081313,15 L143,15 L142.913279,147.030498 C142.916158,148.347495 142.394929,149.611536 141.464559,150.543811 C140.53419,151.476087 139.271116,152 137.953936,152 Z" id="Path" fill="url(#linearGradient-14)"></path>
            <path d="M143,139 L133,139 L133,147.017573 C132.997109,148.337994 133.522035,149.605323 134.459006,150.540023 C135.395977,151.474723 136.668014,152 137.994542,152 L137.994542,152 C140.753829,152 142.99152,149.775042 142.994536,147.028452 L143,139 Z" id="Path" fill="#A5CBEF"></path>
            <polygon id="Path" fill="url(#linearGradient-15)" points="133 14.9891255 138.041006 3 143 15"></polygon>
            <polygon id="Path" fill="#3C5185" points="137 6 138.006834 3 139 6"></polygon>
            <path d="M143,139.42223 L143,138.047211 C139.709974,138.88441 136.283123,138.868232 133,138 L133,139.386822 C136.290404,140.192269 139.704776,140.204358 143,139.42223 Z" id="Path" fill="#3C5185"></path>
            <path d="M133,135 L133,136.386822 C136.290404,137.192269 139.704776,137.204358 143,136.42223 L143,135.047211 C139.709974,135.88441 136.283123,135.868232 133,135 L133,135 Z" id="Path" fill="#3C5185"></path>
        </g>
    </g>
</svg>