<?xml version="1.0" encoding="UTF-8"?>
<svg width="200px" height="200px" viewBox="0 0 200 200" version="1.1" xmlns="http://www.w3.org/2000/svg" xmlns:xlink="http://www.w3.org/1999/xlink">
    <!-- Generator: Sketch 61.2 (89653) - https://sketch.com -->
    <title>a_@2x</title>
    <desc>Created with Sketch.</desc>
    <defs>
        <radialGradient cx="49.9857413%" cy="78.7610428%" fx="49.9857413%" fy="78.7610428%" r="86.9861267%" gradientTransform="translate(0.499857,0.787610),scale(0.581081,1.000000),translate(-0.499857,-0.787610)" id="radialGradient-1">
            <stop stop-color="#3C5185" offset="0%"></stop>
            <stop stop-color="#596B97" offset="11%"></stop>
            <stop stop-color="#A0AAC3" offset="41%"></stop>
            <stop stop-color="#D3D8E4" offset="65%"></stop>
            <stop stop-color="#F3F4F8" offset="83%"></stop>
            <stop stop-color="#FFFFFF" offset="94%"></stop>
        </radialGradient>
        <linearGradient x1="-0.00769350114%" y1="50.0009969%" x2="99.9940388%" y2="50.0009969%" id="linearGradient-2">
            <stop stop-color="#FFC107" offset="2%"></stop>
            <stop stop-color="#FFBC06" offset="14%"></stop>
            <stop stop-color="#FF9800" offset="100%"></stop>
        </linearGradient>
        <linearGradient x1="-0.00778393027%" y1="49.9709496%" x2="99.9158407%" y2="49.9709496%" id="linearGradient-3">
            <stop stop-color="#FFC107" offset="2%"></stop>
            <stop stop-color="#FFBC06" offset="14%"></stop>
            <stop stop-color="#FF9800" offset="100%"></stop>
        </linearGradient>
    </defs>
    <g id="a" stroke="none" stroke-width="1" fill="none" fill-rule="evenodd">
        <g id="homepage-whats-new" transform="translate(34.000000, 0.000000)" fill-rule="nonzero">
            <g id="Group" opacity="0.3" transform="translate(1.000000, 124.000000)" fill="#3C5185">
                <path d="M2.51333333,41.1329496 C-0.368333333,39.4598561 -0.368333333,36.7096403 2.51333333,35.0310791 L59.8054167,1.64028777 C62.6870833,-0.0382733813 67.38875,-0.0382733813 70.2758333,1.64028777 L127.567917,35.0256115 C130.444167,36.7041727 130.444167,39.4543885 127.567917,41.127482 L70.2758333,74.523741 C67.3941667,76.2023022 62.6925,76.2023022 59.8054167,74.523741 L2.51333333,41.1329496 Z" id="Path" opacity="0"></path>
                <path d="M3.03875,41.1110791 C0.184166667,39.4434532 0.184166667,36.7369784 3.03875,35.0584173 L59.84875,1.95194245 C62.7033333,0.311654676 67.3779167,0.311654676 70.2325,1.95194245 L127.037083,35.0584173 C129.891667,36.698705 129.891667,39.432518 127.037083,41.1110791 L70.2325,74.217554 C67.3779167,75.8578417 62.7033333,75.8578417 59.84875,74.217554 L3.03875,41.1110791 Z" id="Path" opacity="0.02"></path>
                <path d="M3.56958333,41.083741 C0.736666667,39.4434532 0.736666667,36.7369784 3.56958333,35.0693525 L59.9029167,2.26359712 C62.7358333,0.623309353 67.3670833,0.623309353 70.1945833,2.26359712 L126.527917,35.0693525 C129.360833,36.7096403 129.360833,39.4161151 126.527917,41.083741 L70.1945833,73.8894964 C67.3616667,75.5297842 62.7304167,75.5297842 59.9029167,73.8894964 L3.56958333,41.083741 Z" id="Path" opacity="0.05"></path>
                <path d="M4.095,41.0564029 C1.28916667,39.4161151 1.28916667,36.7479137 4.095,35.1130935 L59.9354167,2.56978417 C62.74125,0.929496403 67.3345833,0.929496403 70.1404167,2.56978417 L125.98625,35.1130935 C128.792083,36.7533813 128.792083,39.4215827 125.98625,41.0564029 L70.1404167,73.5997122 C67.3345833,75.24 62.74125,75.24 59.9354167,73.5997122 L4.095,41.0564029 Z" id="Path" opacity="0.07"></path>
                <path d="M4.62583333,41.0071942 C1.84166667,39.3669065 1.84166667,36.7369784 4.62583333,35.1130935 L59.9841667,2.85410072 C62.7629167,1.21381295 67.3183333,1.21381295 70.0970833,2.85410072 L125.455417,35.1130935 C128.239583,36.7533813 128.239583,39.388777 125.455417,41.0071942 L70.0970833,73.2661871 C67.3183333,74.9064748 62.7629167,74.9064748 59.9841667,73.2661871 L4.62583333,41.0071942 Z" id="Path" opacity="0.1"></path>
                <path d="M5.15125,41.0071942 C2.39416667,39.3997122 2.39416667,36.7697842 5.15125,35.1623022 L60.0275,3.18215827 C62.7845833,1.57467626 67.2966667,1.57467626 70.05375,3.18215827 L124.93,35.1623022 C127.687083,36.7697842 127.687083,39.3997122 124.93,41.0071942 L70.05375,72.9873381 C67.2966667,74.5948201 62.7845833,74.5948201 60.0275,72.9873381 L5.15125,41.0071942 Z" id="Path" opacity="0.12"></path>
                <path d="M5.68208333,41.0071942 C2.97375,39.4161151 2.97375,36.8080576 5.68208333,35.2169784 L60.0708333,3.5047482 C62.7791667,1.91366906 67.275,1.91366906 70.0104167,3.5047482 L124.399167,35.2169784 C127.134583,36.8080576 127.134583,39.4161151 124.399167,41.0071942 L70.0104167,72.7194245 C67.3020833,74.3159712 62.80625,74.3159712 60.0708333,72.7194245 L5.68208333,41.0071942 Z" id="Path" opacity="0.15"></path>
                <path d="M6.2075,40.9579856 C3.49916667,39.3778417 3.49916667,36.7916547 6.2075,35.2115108 L60.125,3.79453237 C62.8333333,2.21985612 67.2695833,2.21985612 69.9779167,3.79453237 L123.884583,35.2115108 C126.592917,36.7916547 126.592917,39.3778417 123.884583,40.9579856 L69.9779167,72.3694964 C67.2695833,73.9496403 62.8333333,73.9496403 60.125,72.3694964 L6.2075,40.9579856 Z" id="Path" opacity="0.17"></path>
                <path d="M6.73291667,40.9306475 C4.05166667,39.3669065 4.05166667,36.8025899 6.73291667,35.2388489 L60.1575,4.10618705 C62.8658333,2.54244604 67.2370833,2.54244604 69.9075,4.10618705 L123.332083,35.2388489 C126.013333,36.8025899 126.013333,39.3669065 123.332083,40.9306475 L69.92375,72.0633094 C67.2154167,73.6270504 62.8441667,73.6270504 60.17375,72.0633094 L6.73291667,40.9306475 Z" id="Path" opacity="0.2"></path>
                <path d="M7.26375,40.9033094 C4.60416667,39.3505036 4.60416667,36.8135252 7.26375,35.2661871 L60.2008333,4.4123741 C62.8658333,2.85956835 67.2425,2.85956835 69.875,4.4123741 L122.8175,35.2661871 C125.477083,36.8135252 125.477083,39.3505036 122.8175,40.9033094 L69.875,71.7571223 C67.21,73.3044604 62.8604167,73.3044604 60.1954167,71.7571223 L7.26375,40.9033094 Z" id="Path" opacity="0.22"></path>
                <path d="M7.78916667,40.8759712 C5.15125,39.3395683 5.15125,36.8244604 7.78916667,35.2880576 L60.2441667,4.71856115 C62.8820833,3.18215827 67.1991667,3.18215827 69.8316667,4.71856115 L122.292083,35.2880576 C124.924583,36.8244604 124.924583,39.3395683 122.292083,40.8759712 L69.8316667,71.4509353 C67.1991667,72.9873381 62.8820833,72.9873381 60.2441667,71.4509353 L7.78916667,40.8759712 Z" id="Path" opacity="0.24"></path>
                <path d="M8.32,40.8541007 C5.70375,39.3286331 5.70375,36.8353957 8.32,35.3153957 L60.32,5.0247482 C62.9308333,3.5047482 67.2045833,3.5047482 69.8154167,5.0247482 L121.788333,35.3153957 C124.404583,36.8353957 124.404583,39.3286331 121.788333,40.8541007 L69.8154167,71.1447482 C67.2045833,72.6647482 62.9308333,72.6647482 60.32,71.1447482 L8.32,40.8541007 Z" id="Path" opacity="0.27"></path>
                <path d="M8.84541667,40.8267626 C6.25625,39.3176978 6.25625,36.8517986 8.84541667,35.3591367 L60.33625,5.35280576 C62.9254167,3.84374101 67.1558333,3.84374101 69.745,5.35280576 L121.235833,35.3591367 C123.825,36.8682014 123.825,39.3341007 121.235833,40.8267626 L69.745,70.8330935 C67.1558333,72.3421583 62.9254167,72.3421583 60.33625,70.8330935 L8.84541667,40.8267626 Z" id="Path" opacity="0.29"></path>
                <path d="M9.37083333,40.7994245 C6.80875,39.3067626 6.80875,36.8627338 9.37083333,35.3700719 L60.3795833,5.64258993 C62.9416667,4.14992806 67.1395833,4.14992806 69.7016667,5.64258993 L120.710417,35.3700719 C123.2725,36.8627338 123.2725,39.3067626 120.710417,40.7994245 L69.7016667,70.5323741 C67.1395833,72.025036 62.9416667,72.025036 60.3795833,70.5323741 L9.37083333,40.7994245 Z" id="Path" opacity="0.32"></path>
                <path d="M9.90166667,40.7720863 C7.36125,39.2958273 7.36125,36.8736691 9.90166667,35.3919424 L60.4229167,5.94877698 C62.9633333,4.46705036 67.1179167,4.46705036 69.63125,5.94877698 L120.1525,35.3919424 C122.692917,36.8736691 122.692917,39.2958273 120.1525,40.7720863 L69.6583333,70.2207194 C67.1179167,71.6969784 62.9633333,71.6969784 60.45,70.2207194 L9.90166667,40.7720863 Z" id="Path" opacity="0.34"></path>
                <path d="M10.4270833,40.7502158 C7.91375,39.2848921 7.91375,36.8846043 10.4270833,35.4192806 L60.46625,6.25496403 C62.9795833,4.78964029 67.09625,4.78964029 69.615,6.25496403 L119.654167,35.4192806 C122.1675,36.8846043 122.1675,39.2848921 119.654167,40.7502158 L69.615,69.9090647 C67.09625,71.3743885 62.985,71.3743885 60.46625,69.9090647 L10.4270833,40.7502158 Z" id="Path" opacity="0.37"></path>
                <path d="M10.9525,40.7228777 C8.46625,39.2739568 8.46625,36.8955396 10.9525,35.4466187 L60.5095833,6.56115108 C63.00125,5.10676259 67.0745833,5.10676259 69.56625,6.56115108 L119.123333,35.4411511 C121.615,36.8900719 121.615,39.2684892 119.123333,40.7174101 L69.56625,69.6028777 C67.08,71.0572662 63.00125,71.0572662 60.5095833,69.6028777 L10.9525,40.7228777 Z" id="Path" opacity="0.39"></path>
                <path d="M11.4833333,40.6955396 C9.01875,39.257554 9.01875,36.9064748 11.4833333,35.4684892 L60.5529167,6.87280576 C63.0229167,5.43482014 67.0529167,5.43482014 69.5229167,6.87280576 L118.597917,35.4684892 C121.0625,36.9064748 121.0625,39.257554 118.597917,40.6955396 L69.5229167,69.2966906 C67.0583333,70.7346763 63.0229167,70.7346763 60.5529167,69.2966906 L11.4833333,40.6955396 Z" id="Path" opacity="0.41"></path>
                <path d="M12.00875,40.6736691 C9.56583333,39.2466187 9.56583333,36.9174101 12.00875,35.4958273 L60.6016667,7.17899281 C63.0445833,5.75741007 67.0366667,5.75741007 69.4795833,7.17899281 L118.083333,35.4958273 C120.520833,36.9174101 120.520833,39.2466187 118.083333,40.6736691 L69.4904167,68.9905036 C67.0475,70.4120863 63.0554167,70.4120863 60.6125,68.9905036 L12.00875,40.6736691 Z" id="Path" opacity="0.44"></path>
                <path d="M12.5395833,40.6463309 C10.1183333,39.2356835 10.1183333,36.9338129 12.5395833,35.5231655 L60.6666667,7.48517986 C63.0825,6.08 67.0420833,6.08 69.4579167,7.48517986 L117.541667,35.5395683 C119.962917,36.9502158 119.962917,39.2520863 117.541667,40.6627338 L69.43625,68.7007194 C67.0204167,70.1058993 63.0608333,70.1058993 60.645,68.7007194 L12.5395833,40.6463309 Z" id="Path" opacity="0.46"></path>
                <path d="M13.065,40.6189928 C10.6708333,39.2247482 10.6708333,36.9447482 13.065,35.5505036 L60.6666667,7.79683453 C63.0608333,6.3971223 66.9770833,6.3971223 69.37125,7.79683453 L117,35.5395683 C119.394167,36.9338129 119.394167,39.2138129 117,40.6080576 L69.3766667,68.3617266 C66.9825,69.7559712 63.06625,69.7559712 60.6720833,68.3617266 L13.065,40.6189928 Z" id="Path" opacity="0.49"></path>
                <path d="M13.5904167,40.5971223 C11.2233333,39.2138129 11.2233333,36.9556835 13.5904167,35.5723741 L60.7154167,8.10302158 C63.0879167,6.71971223 66.9608333,6.71971223 69.3333333,8.10302158 L116.458333,35.5723741 C118.830833,36.9556835 118.830833,39.2138129 116.458333,40.5971223 L69.3333333,68.0664748 C66.9608333,69.4443165 63.0879167,69.4443165 60.7154167,68.0664748 L13.5904167,40.5971223 Z" id="Path" opacity="0.51"></path>
                <path d="M14.12125,40.5697842 C11.7758333,39.2028777 11.7758333,36.9666187 14.12125,35.5997122 L60.775,8.40920863 C63.1204167,7.04230216 66.9608333,7.04230216 69.30625,8.40920863 L115.96,35.5997122 C118.305417,36.9666187 118.305417,39.2028777 115.96,40.5697842 L69.3333333,67.7602878 C66.9879167,69.1271942 63.1475,69.1271942 60.8020833,67.7602878 L14.12125,40.5697842 Z" id="Path" opacity="0.54"></path>
                <path d="M14.625,40.542446 C12.3066667,39.1919424 12.3066667,36.977554 14.625,35.6215827 L60.7966667,8.70992806 C63.1204167,7.35942446 66.9175,7.35942446 69.2358333,8.70992806 L115.412917,35.6215827 C117.73125,36.9720863 117.73125,39.1864748 115.412917,40.542446 L69.2358333,67.4541007 C66.5838539,68.8049725 63.4540628,68.8049725 60.8020833,67.4541007 L14.625,40.542446 Z" id="Path" opacity="0.56"></path>
                <path d="M15.1666667,40.5151079 C12.87,39.1810072 12.87,36.9884892 15.1666667,35.6489209 L60.85625,9.02158273 C63.4817501,7.68787425 66.5778332,7.68787425 69.2033333,9.02158273 L114.892917,35.6489209 C117.189583,36.9884892 117.189583,39.1810072 114.892917,40.5151079 L69.2033333,67.142446 C66.5792779,68.482282 63.4803055,68.482282 60.85625,67.142446 L15.1666667,40.5151079 Z" id="Path" opacity="0.59"></path>
                <path d="M15.7083333,40.4932374 C13.43875,39.1646043 13.43875,36.9994245 15.7083333,35.676259 L60.9158333,9.33323741 C63.5119602,8.00442418 66.5801231,8.00442418 69.17625,9.33323741 L114.38375,35.676259 C116.653333,36.9994245 116.653333,39.1646043 114.38375,40.4932374 L69.1708333,66.836259 C66.5734586,68.1597925 63.5077914,68.1597925 60.9104167,66.836259 L15.7083333,40.4932374 Z" id="Path" opacity="0.61"></path>
                <path d="M16.25,40.4604317 C14.0020833,39.1482014 14.0020833,37.0048921 16.25,35.6981295 L60.9754167,9.63395683 C63.5448667,8.32145708 66.5797166,8.32145708 69.1491667,9.63395683 L113.869167,35.6981295 C116.1225,37.0048921 116.1225,39.1482014 113.869167,40.4604317 L69.1491667,66.5246043 C66.5797166,67.8371041 63.5448667,67.8371041 60.9754167,66.5246043 L16.25,40.4604317 Z" id="Path" opacity="0.63"></path>
                <path d="M16.7591667,40.4604317 C14.5329167,39.1646043 14.5329167,37.0431655 16.7591667,35.7528058 L60.9970833,9.96748201 C63.5398533,8.67128649 66.5413967,8.67128649 69.0841667,9.96748201 L113.322083,35.7528058 C115.542917,37.0431655 115.542917,39.1646043 113.322083,40.4604317 L69.0841667,66.2457554 C66.5413967,67.5419509 63.5398533,67.5419509 60.9970833,66.2457554 L16.7591667,40.4604317 Z" id="Path" opacity="0.66"></path>
                <path d="M17.2845833,40.4166906 C15.0854167,39.1317986 15.0854167,37.0376978 17.2845833,35.7528058 L61.0404167,10.2517986 C63.5567087,8.97277054 66.5245413,8.97277054 69.0408333,10.2517986 L112.796667,35.7528058 C114.995833,37.0376978 114.995833,39.1317986 112.796667,40.4166906 L69.0408333,65.9122302 C66.5259889,67.1973942 63.5552611,67.1973942 61.0404167,65.9122302 L17.2845833,40.4166906 Z" id="Path" opacity="0.68"></path>
                <path d="M17.8154167,40.3893525 C15.64875,39.1208633 15.64875,37.0486331 17.8154167,35.7801439 L61.08375,10.5634532 C63.5700272,9.2946813 66.5058061,9.2946813 68.9920833,10.5634532 L112.265833,35.7801439 C114.4325,37.0486331 114.4325,39.1208633 112.265833,40.3893525 L68.9920833,65.6115108 C66.5076943,66.8801978 63.5735557,66.8801978 61.0891667,65.6115108 L17.8154167,40.3893525 Z" id="Path" opacity="0.71"></path>
                <path d="M18.3408333,40.3620144 C16.1741667,39.1099281 16.1741667,37.0814388 18.3408333,35.807482 L61.1325,10.8696403 C63.5900015,9.61637911 66.4912485,9.61637911 68.94875,10.8696403 L111.740417,35.807482 C113.907083,37.0595683 113.907083,39.0880576 111.740417,40.3620144 L68.94875,65.2998561 C66.4912485,66.5531173 63.5900015,66.5531173 61.1325,65.2998561 L18.3408333,40.3620144 Z" id="Path" opacity="0.73"></path>
                <path d="M18.86625,40.3346763 C16.7429167,39.0989928 16.7429167,37.0541007 18.86625,35.8293525 L61.1758333,11.1758273 C63.6056169,9.93447636 66.4756331,9.93447636 68.9054167,11.1758273 L111.209583,35.8293525 C113.338333,37.0705036 113.338333,39.1099281 111.209583,40.3346763 L68.9054167,64.9936691 C66.4743922,66.2297604 63.6068578,66.2297604 61.1758333,64.9936691 L18.86625,40.3346763 Z" id="Path" opacity="0.76"></path>
                <path d="M19.3970833,40.3128058 C17.2954167,39.0880576 17.2954167,37.0814388 19.3970833,35.8566906 L61.2083333,11.4820144 C63.611437,10.2569681 66.4481464,10.2569681 68.85125,11.4820144 L110.673333,35.8566906 C112.775,37.0814388 112.775,39.0880576 110.673333,40.3128058 L68.85125,64.687482 C66.4481464,65.9125283 63.611437,65.9125283 61.2083333,64.687482 L19.3970833,40.3128058 Z" id="Path" opacity="0.78"></path>
                <path d="M19.9225,40.2854676 C17.8479167,39.0771223 17.8479167,37.0923741 19.9225,35.8840288 L61.2625,11.7882014 C63.6462882,10.5702453 66.4620451,10.5702453 68.8458333,11.7882014 L110.185833,35.8840288 C112.260417,37.0923741 112.260417,39.0771223 110.185833,40.2854676 L68.8458333,64.3758273 C66.4633031,65.5990922 63.6450303,65.5990922 61.2625,64.3758273 L19.9225,40.2854676 Z" id="Path" opacity="0.8"></path>
                <path d="M20.4533333,40.2581295 C18.395,39.0607194 18.395,37.1033094 20.4533333,35.8840288 L61.3058333,12.0779856 C63.654332,10.8802769 66.426918,10.8802769 68.7754167,12.0779856 L109.627917,35.8840288 C111.680833,37.0814388 111.680833,39.0388489 109.627917,40.2581295 L68.7916667,64.0696403 C66.443168,65.267349 63.670582,65.267349 61.3220833,64.0696403 L20.4533333,40.2581295 Z" id="Path" opacity="0.83"></path>
                <path d="M20.97875,40.236259 C18.9475,39.0497842 18.9475,37.1142446 20.97875,35.9332374 L61.3491667,12.422446 C63.6709826,11.2410338 66.4102674,11.2410338 68.7320833,12.422446 L109.1025,35.9332374 C111.128333,37.1142446 111.128333,39.0497842 109.1025,40.236259 L68.7320833,63.7470504 C66.4102674,64.9284626 63.6709826,64.9284626 61.3491667,63.7470504 L20.97875,40.236259 Z" id="Path" opacity="0.85"></path>
                <path d="M21.5041667,40.2089209 C19.5,39.0388489 19.5,37.1306475 21.5041667,35.9605755 L61.3925,12.7122302 C63.6863567,11.549804 66.3894767,11.549804 68.6833333,12.7122302 L108.571667,35.9605755 C110.58125,37.1306475 110.58125,39.0388489 108.571667,40.2089209 L68.6833333,63.4572662 C66.3894767,64.6196924 63.6863567,64.6196924 61.3925,63.4572662 L21.5041667,40.2089209 Z" id="Path" opacity="0.88"></path>
                <path d="M22.035,40.1815827 C20.0525,39.0279137 20.0525,37.1415827 22.035,35.9879137 L61.44125,13.0238849 C63.7040642,11.8673504 66.3771858,11.8673504 68.64,13.0238849 L108.04625,35.9879137 C110.02875,37.1415827 110.02875,39.0279137 108.04625,40.1815827 L68.64,63.1456115 C66.3778133,64.3047962 63.7034367,64.3047962 61.44125,63.1456115 L22.035,40.1815827 Z" id="Path" opacity="0.9"></path>
                <path d="M22.5604167,40.1542446 C20.605,39.0169784 20.605,37.152518 22.5604167,36.0097842 L61.4845833,13.3300719 C63.7200947,12.1872051 66.3611553,12.1872051 68.5966667,13.3300719 L107.520833,36.0097842 C109.47625,37.152518 109.47625,39.0169784 107.520833,40.1542446 L68.5966667,62.8394245 C66.3611553,63.9822913 63.7200947,63.9822913 61.4845833,62.8394245 L22.5604167,40.1542446 Z" id="Path" opacity="0.93"></path>
                <path d="M23.09125,40.1323741 C21.1575,39.0060432 21.1575,37.1634532 23.09125,36.0371223 L61.5495833,13.6198561 C63.7628328,12.4877633 66.3780005,12.4877633 68.59125,13.6198561 L107.049583,36.0371223 C108.983333,37.1634532 108.983333,39.0060432 107.049583,40.1323741 L68.59125,62.5496403 C66.3780005,63.6817331 63.7628328,63.6817331 61.5495833,62.5496403 L23.09125,40.1323741 Z" id="Path" opacity="0.95"></path>
                <path d="M23.6166667,40.105036 C21.71,39.0115108 21.71,37.1743885 23.6166667,36.0644604 L61.57125,13.942446 C63.7533996,12.8321829 66.3278504,12.8321829 68.51,13.942446 L106.464583,36.0863309 C108.37125,37.1798561 108.37125,39.0169784 106.464583,40.1269065 L68.51,62.2489209 C66.3278504,63.359184 63.7533996,63.359184 61.57125,62.2489209 L23.6166667,40.105036 Z" id="Path" opacity="0.98"></path>
                <path d="M24.1420833,40.0776978 C22.2625,38.9841727 22.2625,37.1853237 24.1420833,36.0863309 L61.6145833,14.2486331 C63.7702504,13.1555241 66.3109996,13.1555241 68.4666667,14.2486331 L105.939167,36.0863309 C107.81875,37.1798561 107.81875,38.9841727 105.939167,40.0776978 L68.4666667,61.9153957 C66.3128554,63.0163781 63.7683946,63.0163781 61.6145833,61.9153957 L24.1420833,40.0776978 Z" id="Path"></path>
            </g>
            <polygon id="Path" fill="#B7D5F2" points="67 78 18 106.002709 67 134 67 78"></polygon>
            <polygon id="Path" fill="#C9E0F5" points="66 78 66 134 115 106.002709"></polygon>
            <polygon id="Path" fill="#C9E0F5" points="18 106 18 161.998194 67 190 67 133.996388"></polygon>
            <polygon id="Path" fill="#B7D5F2" points="66 190 115 161.998194 115 106 66 133.996388"></polygon>
            <polygon id="Path" fill="#DBEAF9" points="17.7319066 106 0 84.046663 48.2680934 56 66 77.953337"></polygon>
            <polygon id="Path" fill="#DBEAF9" points="115.266645 106 133 84.046663 84.7279634 56 67 77.953337"></polygon>
            <polygon id="Path" fill="#231F20" opacity="0.3" points="115 131.406254 115 109 66 134.24065 79.0108356 152"></polygon>
            <polygon id="Path" fill="#DBEAF9" points="67 134.039696 81.7178103 148 130 119.960304 115.28219 106"></polygon>
            <polygon id="Path" fill="#231F20" opacity="0.3" points="18 109.037933 18 131.510649 54.0015637 152 67 134.165974 67 134.106364 18.0328382 109"></polygon>
            <polygon id="Path" fill="#DBEAF9" points="66 134.039696 51.2780538 148 3 119.960304 17.7165496 106"></polygon>
            <path d="M39.8098921,103.277742 C54.2149112,94.9074192 77.7912166,94.9074192 92.1962357,103.277742 C106.601255,111.648066 106.601255,125.351934 92.1962357,133.722258 C77.7912166,142.092581 54.2149112,142.092581 39.8098921,133.722258 C25.404873,125.351934 25.3885346,111.653547 39.8098921,103.277742 Z" id="Path" fill="url(#radialGradient-1)" opacity="0.5" style="mix-blend-mode: multiply;"></path>
            <path d="M73.6605678,99.7470778 L72.1564509,101 L59.0146404,101 L57.5873761,99.6923651 C53.3859878,95.8324438 50.9972022,90.3961359 51,84.7010694 L51,79 L81,79 L81,84.1156429 C80.9969749,90.1523465 78.3090272,95.8771054 73.6605678,99.7470778 Z" id="Path" fill="#1E365E"></path>
            <path d="M67.8674456,104.999886 L63.1901692,104.999886 C62.0817671,105.007942 61.0158831,104.590086 60.2291574,103.839087 C59.4424317,103.088088 59,102.066093 59,101 L72,101 C72,103.199277 70.1540221,104.986036 67.8674456,104.999886 L67.8674456,104.999886 Z" id="Path" fill="#1E365E"></path>
            <path d="M76.6290026,73.4839504 C70.7844805,70.1720165 61.2051932,70.1720165 55.3771967,73.4839504 C49.5492001,76.7958843 49.5326746,82.2041157 55.3771967,85.5160496 C61.2217187,88.8279835 70.801006,88.8279835 76.6290026,85.5160496 C82.4569991,82.2041157 82.4569991,76.774273 76.6290026,73.4839504 Z" id="Path" fill="#2842A2"></path>
            <path d="M65.9936107,24 C54.0524146,24 43.5305622,31.852968 40.1238975,43.3068271 C36.7172328,54.7606863 41.2354455,67.0935103 51.2326704,73.6291135 L51.2326704,79.7414723 L51.2326704,79.7414723 C51.3137448,81.8402291 52.8541578,83.9660318 55.6269013,85.5563269 C61.3129171,88.8396913 70.728354,88.8018271 76.4143698,85.5184627 C79.1708984,83.9227584 80.5761874,81.8402291 80.6626668,79.7414723 L80.7545511,79.7414723 L80.7545511,73.6291135 C90.7598032,67.0978803 95.284222,54.7609731 91.8763205,43.3029556 C88.468419,31.8449382 77.9391396,23.9923541 65.9936107,24 Z" id="Path" fill="url(#linearGradient-2)"></path>
            <path d="M51.3106048,53.6668001 C51.3105969,48.8891227 53.1614874,44.3076078 56.4551944,40.9323814 C59.7489014,37.557155 64.2149536,35.6653828 68.868682,35.6741599 C77.824804,35.6741599 77.1325693,28 65.7133797,28 C60.2223185,27.9927062 54.9537183,30.2269924 51.0684329,34.2105863 C47.1831475,38.1941802 45,43.6001963 45,49.2375035 C45,56.6747553 51.3106048,59.9746914 51.3106048,53.6668001 Z" id="Path" fill="#FFFFFF"></path>
            <path d="M76.5895276,87.6158354 C70.8114244,90.8128653 61.2435005,90.8496732 55.4653973,87.6526433 C52.6642256,86.1067111 51.0714024,84.0454681 51,82 L51,83.9718523 C51.0823874,86.0120622 52.6477481,88.0733052 55.4653973,89.6244956 C61.2435005,92.8162673 70.8114244,92.7794594 76.5895276,89.5876877 C79.3906994,88.0102059 80.8187477,86.0120622 80.9066276,83.9718523 L81,83.9718523 L81,82 L80.9066276,82 C80.8187477,84.0454681 79.3906994,86.0699032 76.5895276,87.6158354 Z" id="Path" fill="#6E84B5" opacity="0.49"></path>
            <path d="M76.4768932,93.3747971 C70.7572816,96.7440526 61.2916505,96.7828434 55.5720388,93.4135878 C54.131515,92.6211132 52.9046948,91.479165 52,90.0886646 C52.3722688,91.4301845 52.8768486,92.7298384 53.5060194,93.9677417 C54.1402331,94.549912 54.8327081,95.062548 55.5720388,95.4972064 C61.2916505,98.8609204 70.7572816,98.8221296 76.4768932,95.4528741 C77.0834146,95.1011675 77.656729,94.6930506 78.1895146,94.2337356 C78.9471888,92.896321 79.5545191,91.4761074 80,90 C79.1402128,91.4236167 77.9242407,92.5884008 76.4768932,93.3747971 Z" id="Path" fill="#6E84B5" opacity="0.49"></path>
            <path d="M66.6968487,21.6310468 L66.6968487,21.6310468 C65.4829052,21.6068464 64.5121655,20.6051006 64.5153668,19.3797178 L64.59718,2.20161527 C64.6209457,0.978607714 65.6102314,-0.00023508599 66.8222834,4.23513264e-08 L66.8222834,4.23513264e-08 C67.4109733,0.00291244548 67.9744049,0.241724546 68.388626,0.663898914 C68.802847,1.08607328 69.0339257,1.65702647 69.0310527,2.25115162 L68.9492205,19.4292541 C68.9253399,20.6630462 67.919492,21.6462276 66.6968487,21.6310468 L66.6968487,21.6310468 Z M84.8903411,24.8837558 L93.4853483,10.0613815 C93.9591809,9.37050519 94.0100961,8.47012056 93.6172223,7.72932425 C93.2243484,6.98852794 92.453757,6.53190332 91.6213383,6.54663551 C90.7889196,6.5613677 90.0346654,7.04497912 89.667769,7.79922189 L81.0727618,22.6215962 C80.4564889,23.6904557 80.8124505,25.0610118 81.8689997,25.6873453 C82.207314,25.8899448 82.5936163,25.9964456 82.9870051,25.9955768 C83.7774065,25.9963512 84.5085887,25.5728782 84.9067022,24.8837558 L84.8903411,24.8837558 Z M95.983136,37.7081642 L110.784436,29.2209377 C111.512854,28.848052 111.97951,28.101559 111.999343,27.277497 C112.019175,26.453435 111.588979,25.6849574 110.879358,25.276821 C110.169737,24.8686846 109.295353,24.8868367 108.602963,25.3240788 L93.8071157,33.8113054 C92.9313287,34.312738 92.4996904,35.3463137 92.755626,36.3291402 C93.0115617,37.3119668 93.8909495,37.9978077 94.8978527,37.9999404 C95.284184,38.0028079 95.6643561,37.9021388 95.999497,37.7081642 L95.983136,37.7081642 Z M40.7264017,36.6899172 C41.3571598,35.6317999 41.0205321,34.258086 39.9737932,33.618664 L25.3633717,24.8122033 C24.3091762,24.1768859 22.9442672,24.524344 22.3147619,25.5882727 C21.6852567,26.6522013 22.029536,28.0297124 23.0837314,28.6650298 L37.6886993,37.4714906 C38.0322559,37.6818169 38.4266983,37.7922901 38.8285194,37.7907412 C39.6089027,37.7860174 40.329506,37.3680539 40.7264017,36.6899172 Z M51.9064555,25.5882726 C52.4217666,25.2996186 52.802174,24.8159828 52.9638143,24.2439858 C53.1254546,23.6719888 53.0550558,23.0585966 52.7681377,22.5390356 L44.5003516,7.52401999 C44.1106688,6.82496358 43.3810567,6.38882156 42.5863532,6.37974445 C41.7916496,6.37094726 41.052589,6.79057275 40.6475682,7.48069202 C40.2425475,8.17081128 40.2330989,9.02657878 40.6227817,9.72563518 L48.8905678,24.7406508 C49.2818745,25.4523193 50.0256277,25.8929924 50.8320796,25.8910015 C51.2101478,25.8857602 51.5803766,25.7814425 51.9064555,25.5882726 L51.9064555,25.5882726 Z" id="Shape" fill="url(#linearGradient-3)"></path>
        </g>
    </g>
</svg>