<svg id="Layer_1" data-name="Layer 1" xmlns="http://www.w3.org/2000/svg" xmlns:xlink="http://www.w3.org/1999/xlink" viewBox="0 0 200 200"><defs><style>.cls-1{opacity:0.7;}.cls-10,.cls-11,.cls-12,.cls-13,.cls-14,.cls-15,.cls-16,.cls-17,.cls-18,.cls-19,.cls-2,.cls-20,.cls-21,.cls-22,.cls-23,.cls-24,.cls-25,.cls-26,.cls-27,.cls-28,.cls-29,.cls-3,.cls-30,.cls-31,.cls-32,.cls-33,.cls-34,.cls-35,.cls-36,.cls-37,.cls-38,.cls-39,.cls-4,.cls-40,.cls-41,.cls-42,.cls-43,.cls-5,.cls-6,.cls-7,.cls-8,.cls-9{fill:#3c5185;}.cls-2{opacity:0;}.cls-3{opacity:0.02;}.cls-4{opacity:0.05;}.cls-5{opacity:0.07;}.cls-6{opacity:0.1;}.cls-7{opacity:0.12;}.cls-8{opacity:0.15;}.cls-9{opacity:0.17;}.cls-10{opacity:0.2;}.cls-11{opacity:0.22;}.cls-12{opacity:0.24;}.cls-13{opacity:0.27;}.cls-14{opacity:0.29;}.cls-15{opacity:0.32;}.cls-16{opacity:0.34;}.cls-17{opacity:0.37;}.cls-18{opacity:0.39;}.cls-19{opacity:0.41;}.cls-20{opacity:0.44;}.cls-21{opacity:0.46;}.cls-22{opacity:0.49;}.cls-23{opacity:0.51;}.cls-24{opacity:0.54;}.cls-25{opacity:0.56;}.cls-26{opacity:0.59;}.cls-27{opacity:0.61;}.cls-28{opacity:0.63;}.cls-29{opacity:0.66;}.cls-30{opacity:0.68;}.cls-31{opacity:0.71;}.cls-32{opacity:0.73;}.cls-33{opacity:0.76;}.cls-34{opacity:0.78;}.cls-35{opacity:0.8;}.cls-36{opacity:0.83;}.cls-37{opacity:0.85;}.cls-38{opacity:0.88;}.cls-39{opacity:0.9;}.cls-40{opacity:0.93;}.cls-41{opacity:0.95;}.cls-42{opacity:0.98;}.cls-44{fill:url(#linear-gradient);}.cls-45{fill:#1e365e;}.cls-46{fill:#edf3fa;}.cls-47{fill:url(#linear-gradient-2);}.cls-48{fill:#fff;}.cls-49{fill:#d1e1f2;}.cls-50{fill:url(#linear-gradient-3);}.cls-51{fill:url(#linear-gradient-4);}.cls-52{fill:url(#blue-shirt);}.cls-53{fill:#f2b1b5;}.cls-54{fill:url(#New_Gradient_Swatch_1);}.cls-55{fill:url(#email_message);}.cls-56{fill:url(#email);}.cls-57{fill:#f8fbfe;}.cls-58{fill:url(#linear-gradient-5);}.cls-59{fill:url(#linear-gradient-6);}.cls-60{fill:url(#linear-gradient-7);}.cls-61{fill:url(#linear-gradient-8);}.cls-62{fill:#f3f8fe;}.cls-63{fill:#48486a;opacity:0.3;}.cls-64{fill:url(#linear-gradient-9);}.cls-65{fill:url(#linear-gradient-10);}.cls-66{fill:#f1f2f2;}</style><linearGradient id="linear-gradient" x1="82.1" y1="74.12" x2="194.07" y2="74.12" gradientUnits="userSpaceOnUse"><stop offset="0" stop-color="#fff"/><stop offset="0.4" stop-color="#d5e7f8"/><stop offset="0.79" stop-color="#b2d3f1"/><stop offset="1" stop-color="#a5cbef"/></linearGradient><linearGradient id="linear-gradient-2" x1="8.24" y1="142.43" x2="191" y2="142.43" gradientUnits="userSpaceOnUse"><stop offset="0" stop-color="#a5cbef"/><stop offset="0.21" stop-color="#b2d3f1"/><stop offset="0.6" stop-color="#d5e7f8"/><stop offset="1" stop-color="#fff"/></linearGradient><linearGradient id="linear-gradient-3" x1="24" y1="128.78" x2="38.48" y2="128.78" gradientUnits="userSpaceOnUse"><stop offset="0" stop-color="#fff"/><stop offset="0.18" stop-color="#f8fcff"/><stop offset="0.45" stop-color="#e4f3fe"/><stop offset="0.78" stop-color="#c3e5fc"/><stop offset="1" stop-color="#a8d9fb"/></linearGradient><linearGradient id="linear-gradient-4" x1="26.08" y1="136.24" x2="53.21" y2="136.24" xlink:href="#linear-gradient-3"/><linearGradient id="blue-shirt" x1="24.08" y1="77.55" x2="55.33" y2="77.55" gradientUnits="userSpaceOnUse"><stop offset="0" stop-color="#0060a9"/><stop offset="1" stop-color="#1c86af"/></linearGradient><linearGradient id="New_Gradient_Swatch_1" x1="43.64" y1="66.67" x2="52.29" y2="66.67" xlink:href="#blue-shirt"/><linearGradient id="email_message" x1="113.34" y1="59.59" x2="155.73" y2="59.59" gradientUnits="userSpaceOnUse"><stop offset="0" stop-color="#3c5185"/><stop offset="1" stop-color="#4a65a3"/></linearGradient><linearGradient id="email" x1="113.63" y1="59.58" x2="155.73" y2="59.58" gradientUnits="userSpaceOnUse"><stop offset="0" stop-color="#4a65a3"/><stop offset="1" stop-color="#3c5185"/></linearGradient><linearGradient id="linear-gradient-5" x1="113.09" y1="82.59" x2="155.48" y2="82.59" gradientTransform="translate(268.57 165.17) rotate(180)" xlink:href="#email_message"/><linearGradient id="linear-gradient-6" x1="113.38" y1="82.58" x2="155.48" y2="82.58" gradientTransform="translate(268.57 165.17) rotate(180)" xlink:href="#email"/><linearGradient id="linear-gradient-7" x1="171.76" y1="83.89" x2="159.35" y2="63.65" gradientUnits="userSpaceOnUse"><stop offset="0" stop-color="#fff"/><stop offset="1" stop-color="#7ea7df"/></linearGradient><linearGradient id="linear-gradient-8" x1="170.85" y1="84.47" x2="158.44" y2="64.23" gradientUnits="userSpaceOnUse"><stop offset="0" stop-color="#7ea7df"/><stop offset="1" stop-color="#fff"/></linearGradient><linearGradient id="linear-gradient-9" x1="110.76" y1="74.89" x2="98.35" y2="54.65" xlink:href="#linear-gradient-7"/><linearGradient id="linear-gradient-10" x1="109.85" y1="75.47" x2="97.44" y2="55.23" xlink:href="#linear-gradient-8"/></defs><title>prefooter</title><g class="cls-1"><path class="cls-2" d="M74.68,91.23,4.23,131.5a2.28,2.28,0,0,0,0,4L113.9,198.78a9.08,9.08,0,0,0,9.06,0l70.44-40.27a2.28,2.28,0,0,0,0-4L83.73,91.25A9.06,9.06,0,0,0,74.68,91.23Z"/><path class="cls-3" d="M74.75,91.29,4.52,131.44a2.28,2.28,0,0,0,0,3.95l109.35,63.13a9.07,9.07,0,0,0,9,0l70.22-40.15a2.27,2.27,0,0,0,0-3.95L83.78,91.31A9.07,9.07,0,0,0,74.75,91.29Z"/><path class="cls-4" d="M74.83,91.36l-70,40a2.27,2.27,0,0,0,0,3.94l109,62.94a9,9,0,0,0,9,0l70-40a2.28,2.28,0,0,0,0-3.94l-109-62.93A9,9,0,0,0,74.83,91.36Z"/><path class="cls-5" d="M74.9,91.42,5.1,131.32a2.27,2.27,0,0,0,0,3.93L113.77,198a9,9,0,0,0,9,0l69.8-39.9a2.27,2.27,0,0,0,0-3.93L83.87,91.44A9,9,0,0,0,74.9,91.42Z"/><path class="cls-6" d="M75,91.49,5.39,131.27a2.25,2.25,0,0,0,0,3.91l108.34,62.55a9,9,0,0,0,9,0L192.25,158a2.26,2.26,0,0,0,0-3.92L83.92,91.51A9,9,0,0,0,75,91.49Z"/><path class="cls-7" d="M75.05,91.55,5.67,131.21a2.25,2.25,0,0,0,0,3.9l108,62.36a8.94,8.94,0,0,0,8.91,0L192,157.84a2.25,2.25,0,0,0,0-3.91L84,91.57A8.94,8.94,0,0,0,75.05,91.55Z"/><path class="cls-8" d="M75.12,91.62,6,131.15A2.24,2.24,0,0,0,6,135l107.68,62.17a8.9,8.9,0,0,0,8.89,0l69.16-39.53a2.25,2.25,0,0,0,0-3.9L84,91.64A8.9,8.9,0,0,0,75.12,91.62Z"/><path class="cls-9" d="M75.19,91.68,6.25,131.09a2.24,2.24,0,0,0,0,3.88l107.34,62a8.92,8.92,0,0,0,8.87,0l68.94-39.41a2.24,2.24,0,0,0,0-3.88L84.05,91.7A8.9,8.9,0,0,0,75.19,91.68Z"/><path class="cls-10" d="M75.27,91.75,6.54,131a2.23,2.23,0,0,0,0,3.87l107,61.78a8.89,8.89,0,0,0,8.83,0l68.73-39.29a2.23,2.23,0,0,0,0-3.87L84.1,91.77A8.84,8.84,0,0,0,75.27,91.75Z"/><path class="cls-11" d="M75.34,91.81,6.82,131a2.23,2.23,0,0,0,0,3.86l106.67,61.59a8.85,8.85,0,0,0,8.81,0l68.51-39.16a2.23,2.23,0,0,0,0-3.86L84.15,91.83A8.85,8.85,0,0,0,75.34,91.81Z"/><path class="cls-12" d="M75.41,91.88l-68.3,39a2.22,2.22,0,0,0,0,3.85l106.35,61.39a8.78,8.78,0,0,0,8.77,0l68.31-39a2.22,2.22,0,0,0,0-3.84L84.19,91.9A8.8,8.8,0,0,0,75.41,91.88Z"/><path class="cls-13" d="M75.49,92,7.4,130.87a2.21,2.21,0,0,0,0,3.83l106,61.2a8.79,8.79,0,0,0,8.75,0L190.24,157a2.21,2.21,0,0,0,0-3.83L84.24,92A8.76,8.76,0,0,0,75.49,92Z"/><path class="cls-14" d="M75.56,92,7.69,130.81a2.2,2.2,0,0,0,0,3.82l105.67,61a8.78,8.78,0,0,0,8.73,0L190,156.86a2.2,2.2,0,0,0,0-3.82L84.28,92A8.73,8.73,0,0,0,75.56,92Z"/><path class="cls-15" d="M75.63,92.08,8,130.75a2.19,2.19,0,0,0,0,3.81l105.34,60.82a8.73,8.73,0,0,0,8.69,0l67.66-38.68a2.2,2.2,0,0,0,0-3.81L84.33,92.09A8.72,8.72,0,0,0,75.63,92.08Z"/><path class="cls-16" d="M75.71,92.14,8.26,130.69a2.2,2.2,0,0,0,0,3.8l105,60.63a8.71,8.71,0,0,0,8.67,0l67.44-38.55a2.18,2.18,0,0,0,0-3.79l-105-60.63A8.71,8.71,0,0,0,75.71,92.14Z"/><path class="cls-17" d="M75.78,92.21,8.55,130.64a2.18,2.18,0,0,0,0,3.78l104.68,60.43a8.66,8.66,0,0,0,8.64,0l67.23-38.43a2.18,2.18,0,0,0,0-3.78L84.42,92.23A8.66,8.66,0,0,0,75.78,92.21Z"/><path class="cls-18" d="M75.85,92.27l-67,38.31a2.17,2.17,0,0,0,0,3.77l104.34,60.24a8.62,8.62,0,0,0,8.61,0l67-38.31a2.17,2.17,0,0,0,0-3.77L84.47,92.29A8.67,8.67,0,0,0,75.85,92.27Z"/><path class="cls-19" d="M75.93,92.34,9.13,130.52a2.17,2.17,0,0,0,0,3.76l104,60.05a8.64,8.64,0,0,0,8.59,0l66.8-38.19a2.17,2.17,0,0,0,0-3.76l-104-60A8.59,8.59,0,0,0,75.93,92.34Z"/><path class="cls-20" d="M76,92.4,9.41,130.47a2.16,2.16,0,0,0,0,3.74l103.67,59.86a8.6,8.6,0,0,0,8.56,0L188.22,156a2.15,2.15,0,0,0,0-3.74L84.56,92.42A8.6,8.6,0,0,0,76,92.4Z"/><path class="cls-21" d="M76.07,92.47,9.7,130.41a2.15,2.15,0,0,0,0,3.73L113,193.81a8.57,8.57,0,0,0,8.53,0l66.38-38a2.15,2.15,0,0,0,0-3.73L84.6,92.49A8.55,8.55,0,0,0,76.07,92.47Z"/><path class="cls-22" d="M76.15,92.53,10,130.35a2.15,2.15,0,0,0,0,3.72l103,59.47a8.52,8.52,0,0,0,8.5,0l66.16-37.82a2.15,2.15,0,0,0,0-3.72l-103-59.47A8.54,8.54,0,0,0,76.15,92.53Z"/><path class="cls-23" d="M76.22,92.6,10.28,130.29a2.15,2.15,0,0,0,0,3.72l102.67,59.27a8.5,8.5,0,0,0,8.48,0l65.94-37.69a2.15,2.15,0,0,0,0-3.72L84.7,92.62A8.5,8.5,0,0,0,76.22,92.6Z"/><path class="cls-24" d="M76.29,92.66,10.56,130.24a2.14,2.14,0,0,0,0,3.7L112.89,193a8.47,8.47,0,0,0,8.45,0l65.73-37.57a2.13,2.13,0,0,0,0-3.7L84.74,92.68A8.5,8.5,0,0,0,76.29,92.66Z"/><path class="cls-25" d="M76.37,92.73,10.85,130.18a2.13,2.13,0,0,0,0,3.69l102,58.89a8.46,8.46,0,0,0,8.42,0l65.51-37.45a2.13,2.13,0,0,0,0-3.69l-102-58.89A8.44,8.44,0,0,0,76.37,92.73Z"/><path class="cls-26" d="M76.44,92.79l-65.3,37.33a2.13,2.13,0,0,0,0,3.68L112.8,192.5a8.45,8.45,0,0,0,8.4,0l65.3-37.33a2.13,2.13,0,0,0,0-3.68L84.83,92.81A8.43,8.43,0,0,0,76.44,92.79Z"/><path class="cls-27" d="M76.51,92.86,11.43,130.07a2.11,2.11,0,0,0,0,3.66l101.34,58.51a8.38,8.38,0,0,0,8.36,0l65.09-37.2a2.12,2.12,0,0,0,0-3.67L84.88,92.88A8.4,8.4,0,0,0,76.51,92.86Z"/><path class="cls-28" d="M76.59,92.92,11.72,130a2.1,2.1,0,0,0,0,3.65l101,58.31a8.36,8.36,0,0,0,8.34,0l64.87-37.08a2.1,2.1,0,0,0,0-3.65l-101-58.32A8.39,8.39,0,0,0,76.59,92.92Z"/><path class="cls-29" d="M76.66,93,12,130a2.1,2.1,0,0,0,0,3.64l100.67,58.12a8.33,8.33,0,0,0,8.31,0l64.65-37a2.1,2.1,0,0,0,0-3.64L85,93A8.33,8.33,0,0,0,76.66,93Z"/><path class="cls-30" d="M76.73,93.06,12.29,129.89a2.1,2.1,0,0,0,0,3.63l100.34,57.93a8.3,8.3,0,0,0,8.28,0l64.45-36.84a2.09,2.09,0,0,0,0-3.63L85,93.07A8.32,8.32,0,0,0,76.73,93.06Z"/><path class="cls-31" d="M76.81,93.12,12.58,129.84a2.08,2.08,0,0,0,0,3.61l100,57.74a8.31,8.31,0,0,0,8.26,0l64.23-36.72a2.09,2.09,0,0,0,0-3.62l-100-57.73A8.27,8.27,0,0,0,76.81,93.12Z"/><path class="cls-32" d="M76.88,93.19l-64,36.59a2.07,2.07,0,0,0,0,3.6l99.67,57.55a8.28,8.28,0,0,0,8.23,0l64-36.59a2.08,2.08,0,0,0,0-3.6L85.11,93.2A8.26,8.26,0,0,0,76.88,93.19Z"/><path class="cls-33" d="M77,93.25l-63.8,36.47a2.07,2.07,0,0,0,0,3.59l99.33,57.35a8.22,8.22,0,0,0,8.2,0l63.8-36.47a2.07,2.07,0,0,0,0-3.59L85.16,93.27A8.24,8.24,0,0,0,77,93.25Z"/><path class="cls-34" d="M77,93.32,13.44,129.66a2.07,2.07,0,0,0,0,3.58l99,57.16a8.19,8.19,0,0,0,8.17,0l63.59-36.35a2.07,2.07,0,0,0,0-3.58l-99-57.16A8.19,8.19,0,0,0,77,93.32Z"/><path class="cls-35" d="M77.1,93.38,13.73,129.61a2.05,2.05,0,0,0,0,3.56l98.67,57a8.2,8.2,0,0,0,8.15,0l63.37-36.23a2.05,2.05,0,0,0,0-3.56l-98.67-57A8.18,8.18,0,0,0,77.1,93.38Z"/><path class="cls-36" d="M77.17,93.45,14,129.55a2,2,0,0,0,0,3.55l98.33,56.78a8.17,8.17,0,0,0,8.12,0l63.16-36.11a2,2,0,0,0,0-3.55L85.29,93.46A8.15,8.15,0,0,0,77.17,93.45Z"/><path class="cls-37" d="M77.25,93.51l-62.94,36a2,2,0,0,0,0,3.55l98,56.58a8.11,8.11,0,0,0,8.09,0l62.94-36a2,2,0,0,0,0-3.54l-98-56.58A8.14,8.14,0,0,0,77.25,93.51Z"/><path class="cls-38" d="M77.32,93.58,14.59,129.44a2,2,0,0,0,0,3.53l97.66,56.38a8.1,8.1,0,0,0,8.07,0L183,153.51a2,2,0,0,0,0-3.53L85.38,93.59A8.11,8.11,0,0,0,77.32,93.58Z"/><path class="cls-39" d="M77.4,93.64,14.88,129.38a2,2,0,0,0,0,3.52l97.34,56.19a8.05,8.05,0,0,0,8,0l62.52-35.74a2,2,0,0,0,0-3.51L85.43,93.66A8.08,8.08,0,0,0,77.4,93.64Z"/><path class="cls-40" d="M77.47,93.71l-62.3,35.61a2,2,0,0,0,0,3.51l97,56a8,8,0,0,0,8,0l62.3-35.62a2,2,0,0,0,0-3.5l-97-56A8,8,0,0,0,77.47,93.71Z"/><path class="cls-41" d="M77.54,93.77,15.46,129.26a2,2,0,0,0,0,3.5l96.66,55.81a8.05,8.05,0,0,0,8,0l62.08-35.5a2,2,0,0,0,0-3.49L85.52,93.79A8,8,0,0,0,77.54,93.77Z"/><path class="cls-42" d="M77.62,93.84,15.74,129.21a2,2,0,0,0,0,3.48l96.33,55.62a8,8,0,0,0,8,0L181.89,153a2,2,0,0,0,0-3.49L85.57,93.86A8,8,0,0,0,77.62,93.84Z"/><path class="cls-43" d="M77.69,93.9,16,129.15a2,2,0,0,0,0,3.47l96,55.43a8,8,0,0,0,7.93,0l61.66-35.24a2,2,0,0,0,0-3.47l-96-55.43A8,8,0,0,0,77.69,93.9Z"/></g><path class="cls-44" d="M191.72,61.78,85.33.36A2.15,2.15,0,0,0,82.1,2.22V82.4a4.67,4.67,0,0,0,2.34,4.06l106.39,61.43a2.16,2.16,0,0,0,3.24-1.87V65.84A4.7,4.7,0,0,0,191.72,61.78Z"/><path class="cls-45" d="M190.35,62.7,84,1.27a2.16,2.16,0,0,0-3.24,1.87V83.32a4.7,4.7,0,0,0,2.35,4.06L189.46,148.8a2.15,2.15,0,0,0,3.23-1.86V66.76A4.68,4.68,0,0,0,190.35,62.7Z"/><polygon class="cls-46" points="186.39 67.76 86.27 9.63 86.27 82.97 186.39 141.11 186.39 67.76"/><path class="cls-47" d="M76.41,91.24,8.28,127.18s-.38,5.32,1.08,6.16l104.38,60.27a8.67,8.67,0,0,0,8.62,0l67-38.33c2.78-1.72,1.1-6.17,1.1-6.17L85,91.26A8.67,8.67,0,0,0,76.41,91.24Z"/><path class="cls-48" d="M76.41,87.12l-67,38.32a2.18,2.18,0,0,0,0,3.78l104.38,60.26a8.64,8.64,0,0,0,8.62,0l67-38.32a2.18,2.18,0,0,0,0-3.78L85,87.14A8.64,8.64,0,0,0,76.41,87.12Z"/><path class="cls-49" d="M70.47,136.74,52.79,146.85a.57.57,0,0,0,0,1l27.52,15.88a2.27,2.27,0,0,0,2.27,0l17.67-10.1a.58.58,0,0,0,0-1L72.74,136.75A2.27,2.27,0,0,0,70.47,136.74Z"/><path class="cls-49" d="M83.8,93l5.78,3.34a.34.34,0,0,1,0,.59l-2.87,1.65a.7.7,0,0,1-.74,0l-5.78-3.33a.35.35,0,0,1,0-.6L83.06,93A.75.75,0,0,1,83.8,93Z"/><path class="cls-49" d="M92.27,98,98,101.35a.35.35,0,0,1,0,.6l-2.87,1.65a.75.75,0,0,1-.74,0l-5.78-3.34a.35.35,0,0,1,0-.6L91.52,98A.77.77,0,0,1,92.27,98Z"/><path class="cls-49" d="M100.76,102.79l5.78,3.33a.35.35,0,0,1,0,.6l-2.87,1.65a.77.77,0,0,1-.75,0L97.15,105a.34.34,0,0,1,0-.59l2.87-1.65A.75.75,0,0,1,100.76,102.79Z"/><path class="cls-49" d="M109.51,107.72l5.78,3.33a.35.35,0,0,1,0,.6l-2.87,1.65a.75.75,0,0,1-.74,0L105.9,110a.34.34,0,0,1,0-.59l2.87-1.65A.75.75,0,0,1,109.51,107.72Z"/><path class="cls-49" d="M117.92,112.4l5.78,3.34a.35.35,0,0,1,0,.6L120.83,118a.75.75,0,0,1-.75,0l-5.77-3.33a.35.35,0,0,1,0-.6l2.87-1.65A.75.75,0,0,1,117.92,112.4Z"/><path class="cls-49" d="M126.09,117.45l5.78,3.33a.35.35,0,0,1,0,.6L129,123a.75.75,0,0,1-.74,0l-5.78-3.34a.35.35,0,0,1,0-.6l2.87-1.64A.7.7,0,0,1,126.09,117.45Z"/><path class="cls-49" d="M134.65,122.16l5.78,3.34a.35.35,0,0,1,0,.6l-2.87,1.65a.75.75,0,0,1-.75,0L131,124.41a.35.35,0,0,1,0-.6l2.87-1.65A.75.75,0,0,1,134.65,122.16Z"/><path class="cls-49" d="M143.08,127.18l5.78,3.34a.34.34,0,0,1,0,.6L146,132.76a.72.72,0,0,1-.75,0l-5.77-3.33a.35.35,0,0,1,0-.6l2.87-1.65A.75.75,0,0,1,143.08,127.18Z"/><path class="cls-49" d="M151.37,132.08l5.78,3.33a.35.35,0,0,1,0,.6l-2.86,1.65a.77.77,0,0,1-.75,0l-5.77-3.34a.35.35,0,0,1,0-.6l2.87-1.65A.73.73,0,0,1,151.37,132.08Z"/><path class="cls-49" d="M160.11,137.11l5.77,3.33a.35.35,0,0,1,0,.6L163,142.69a.75.75,0,0,1-.74,0l-5.78-3.33a.35.35,0,0,1,0-.6l2.86-1.65A.77.77,0,0,1,160.11,137.11Z"/><path class="cls-49" d="M168.6,141.87l5.77,3.34a.34.34,0,0,1,0,.59l-2.87,1.65a.7.7,0,0,1-.74,0L165,144.12a.35.35,0,0,1,0-.6l2.87-1.65A.77.77,0,0,1,168.6,141.87Z"/><path class="cls-49" d="M72.05,99.26,76,97a1.63,1.63,0,0,1,1.64,0l3.82,2.21a.81.81,0,0,1,0,1.4l-3.8,2.33a1.64,1.64,0,0,1-1.67,0l-3.92-2.26A.81.81,0,0,1,72.05,99.26Z"/><path class="cls-49" d="M80.82,104.3,84.73,102a1.63,1.63,0,0,1,1.64,0l3.83,2.21a.82.82,0,0,1,0,1.4l-3.81,2.33a1.64,1.64,0,0,1-1.67,0l-3.92-2.25A.82.82,0,0,1,80.82,104.3Z"/><path class="cls-49" d="M89.32,109.07l3.92-2.29a1.61,1.61,0,0,1,1.64,0L98.7,109a.81.81,0,0,1,0,1.4l-3.8,2.33a1.62,1.62,0,0,1-1.67,0l-3.92-2.26A.82.82,0,0,1,89.32,109.07Z"/><path class="cls-49" d="M98.37,114l3.92-2.29a1.61,1.61,0,0,1,1.64,0l3.82,2.2a.81.81,0,0,1,0,1.4l-3.8,2.33a1.62,1.62,0,0,1-1.67,0l-3.92-2.26A.82.82,0,0,1,98.37,114Z"/><path class="cls-49" d="M106.35,118.69l3.91-2.29a1.65,1.65,0,0,1,1.65,0l3.82,2.21a.82.82,0,0,1,0,1.4l-3.8,2.33a1.66,1.66,0,0,1-1.68,0l-3.92-2.25A.82.82,0,0,1,106.35,118.69Z"/><path class="cls-49" d="M114.45,123.7l3.91-2.29a1.63,1.63,0,0,1,1.65,0l3.82,2.2a.82.82,0,0,1,0,1.4l-3.8,2.34a1.66,1.66,0,0,1-1.68,0l-3.92-2.26A.82.82,0,0,1,114.45,123.7Z"/><path class="cls-49" d="M123.1,128.45l3.92-2.29a1.63,1.63,0,0,1,1.64,0l3.83,2.21a.82.82,0,0,1,0,1.4l-3.8,2.33a1.64,1.64,0,0,1-1.67,0l-3.92-2.25A.82.82,0,0,1,123.1,128.45Z"/><path class="cls-49" d="M131.58,133.25l3.91-2.29a1.65,1.65,0,0,1,1.65,0l3.82,2.21a.82.82,0,0,1,0,1.4l-3.8,2.33a1.63,1.63,0,0,1-1.68,0l-3.92-2.26A.82.82,0,0,1,131.58,133.25Z"/><path class="cls-49" d="M139.91,138.36l3.91-2.29a1.63,1.63,0,0,1,1.64,0l3.83,2.21a.82.82,0,0,1,0,1.4L145.5,142a1.62,1.62,0,0,1-1.67,0l-3.92-2.25A.82.82,0,0,1,139.91,138.36Z"/><path class="cls-49" d="M149,143.7l3.91-2.29a1.65,1.65,0,0,1,1.65,0l3.82,2.2a.81.81,0,0,1,0,1.4l-3.8,2.34a1.64,1.64,0,0,1-1.67,0L149,145.11A.81.81,0,0,1,149,143.7Z"/><path class="cls-49" d="M157.19,148.16l3.91-2.3a1.67,1.67,0,0,1,1.65,0l3.82,2.21a.82.82,0,0,1,0,1.4l-3.8,2.33a1.66,1.66,0,0,1-1.68,0l-3.92-2.26A.81.81,0,0,1,157.19,148.16Z"/><path class="cls-49" d="M63.33,104l3.92-2.29a1.63,1.63,0,0,1,1.64,0l3.83,2.21a.82.82,0,0,1,0,1.4l-3.8,2.33a1.64,1.64,0,0,1-1.67,0l-3.92-2.25A.82.82,0,0,1,63.33,104Z"/><path class="cls-49" d="M72.1,109,76,106.75a1.65,1.65,0,0,1,1.65,0L81.48,109a.82.82,0,0,1,0,1.4l-3.8,2.33a1.63,1.63,0,0,1-1.68,0l-3.92-2.26A.82.82,0,0,1,72.1,109Z"/><path class="cls-49" d="M80.6,113.81l3.92-2.29a1.63,1.63,0,0,1,1.64,0l3.82,2.2a.81.81,0,0,1,0,1.4l-3.8,2.34a1.64,1.64,0,0,1-1.67,0l-3.92-2.26A.82.82,0,0,1,80.6,113.81Z"/><path class="cls-49" d="M89.65,118.74l3.92-2.29a1.61,1.61,0,0,1,1.64,0l3.82,2.2a.81.81,0,0,1,0,1.4l-3.8,2.34a1.64,1.64,0,0,1-1.67,0l-3.92-2.26A.82.82,0,0,1,89.65,118.74Z"/><path class="cls-49" d="M97.63,123.43l3.91-2.29a1.65,1.65,0,0,1,1.65,0l3.82,2.21a.82.82,0,0,1,0,1.4l-3.8,2.33a1.66,1.66,0,0,1-1.68,0l-3.92-2.26A.82.82,0,0,1,97.63,123.43Z"/><path class="cls-49" d="M105.73,128.44l3.91-2.29a1.65,1.65,0,0,1,1.65,0l3.82,2.21a.81.81,0,0,1,0,1.39l-3.8,2.34a1.66,1.66,0,0,1-1.68,0l-3.92-2.26A.82.82,0,0,1,105.73,128.44Z"/><path class="cls-49" d="M114.38,133.19l3.92-2.29a1.63,1.63,0,0,1,1.64,0l3.83,2.21a.82.82,0,0,1,0,1.4L120,136.83a1.64,1.64,0,0,1-1.67,0l-3.92-2.26A.82.82,0,0,1,114.38,133.19Z"/><path class="cls-49" d="M122.86,138l3.91-2.29a1.62,1.62,0,0,1,1.65,0l3.82,2.2a.82.82,0,0,1,0,1.4l-3.8,2.33a1.63,1.63,0,0,1-1.68,0l-3.92-2.26A.82.82,0,0,1,122.86,138Z"/><path class="cls-49" d="M131.19,143.1l3.91-2.29a1.65,1.65,0,0,1,1.65,0l3.82,2.21a.82.82,0,0,1,0,1.4l-3.8,2.33a1.63,1.63,0,0,1-1.68,0l-3.92-2.26A.82.82,0,0,1,131.19,143.1Z"/><path class="cls-49" d="M140.26,148.45l3.91-2.3a1.65,1.65,0,0,1,1.65,0l3.82,2.21a.8.8,0,0,1,0,1.39l-3.8,2.34a1.64,1.64,0,0,1-1.67,0l-3.92-2.26A.8.8,0,0,1,140.26,148.45Z"/><path class="cls-49" d="M148.47,152.9l3.91-2.29a1.65,1.65,0,0,1,1.65,0l3.82,2.21a.82.82,0,0,1,0,1.4l-3.8,2.33a1.66,1.66,0,0,1-1.68,0l-3.92-2.25A.82.82,0,0,1,148.47,152.9Z"/><path class="cls-49" d="M54.61,108.74l3.92-2.29a1.63,1.63,0,0,1,1.64,0L64,108.65a.82.82,0,0,1,0,1.4l-3.8,2.33a1.62,1.62,0,0,1-1.67,0l-3.92-2.26A.82.82,0,0,1,54.61,108.74Z"/><path class="cls-49" d="M63.38,113.78l3.91-2.29a1.63,1.63,0,0,1,1.65,0l3.82,2.2a.82.82,0,0,1,0,1.4L69,117.42a1.63,1.63,0,0,1-1.68,0l-3.92-2.26A.82.82,0,0,1,63.38,113.78Z"/><path class="cls-49" d="M71.88,118.56l3.92-2.3a1.63,1.63,0,0,1,1.64,0l3.83,2.21a.81.81,0,0,1,0,1.39l-3.8,2.34a1.64,1.64,0,0,1-1.67,0L71.89,120A.81.81,0,0,1,71.88,118.56Z"/><path class="cls-49" d="M80.93,123.49l3.92-2.3a1.63,1.63,0,0,1,1.64,0l3.83,2.21a.81.81,0,0,1,0,1.39l-3.8,2.34a1.64,1.64,0,0,1-1.67,0l-3.92-2.26A.81.81,0,0,1,80.93,123.49Z"/><path class="cls-49" d="M88.91,128.17l3.91-2.29a1.65,1.65,0,0,1,1.65,0l3.82,2.21a.82.82,0,0,1,0,1.4l-3.8,2.33a1.63,1.63,0,0,1-1.68,0l-3.92-2.26A.82.82,0,0,1,88.91,128.17Z"/><path class="cls-49" d="M97,133.19l3.91-2.29a1.65,1.65,0,0,1,1.65,0l3.82,2.21a.82.82,0,0,1,0,1.4l-3.8,2.33a1.66,1.66,0,0,1-1.68,0L97,134.59A.81.81,0,0,1,97,133.19Z"/><path class="cls-49" d="M105.67,137.93l3.91-2.29a1.63,1.63,0,0,1,1.64,0l3.83,2.21a.82.82,0,0,1,0,1.4l-3.81,2.33a1.62,1.62,0,0,1-1.67,0l-3.92-2.26A.82.82,0,0,1,105.67,137.93Z"/><path class="cls-49" d="M114.14,142.73l3.91-2.29a1.63,1.63,0,0,1,1.65,0l3.82,2.2a.82.82,0,0,1,0,1.4l-3.8,2.34a1.66,1.66,0,0,1-1.68,0l-3.92-2.26A.82.82,0,0,1,114.14,142.73Z"/><path class="cls-49" d="M122.47,147.84l3.91-2.29a1.63,1.63,0,0,1,1.65,0l3.82,2.2a.82.82,0,0,1,0,1.4l-3.8,2.33a1.63,1.63,0,0,1-1.68,0l-3.92-2.26A.82.82,0,0,1,122.47,147.84Z"/><path class="cls-49" d="M131.54,153.19l3.92-2.29a1.63,1.63,0,0,1,1.64,0l3.82,2.21a.81.81,0,0,1,0,1.4l-3.8,2.33a1.64,1.64,0,0,1-1.67,0l-3.92-2.25A.82.82,0,0,1,131.54,153.19Z"/><path class="cls-49" d="M139.75,157.64l3.91-2.29a1.65,1.65,0,0,1,1.65,0l3.82,2.21a.82.82,0,0,1,0,1.4l-3.8,2.33a1.63,1.63,0,0,1-1.68,0l-3.92-2.25A.82.82,0,0,1,139.75,157.64Z"/><path class="cls-49" d="M45.9,113.48l3.91-2.29a1.63,1.63,0,0,1,1.64,0l3.83,2.21a.82.82,0,0,1,0,1.4l-3.81,2.33a1.62,1.62,0,0,1-1.67,0l-3.92-2.26A.82.82,0,0,1,45.9,113.48Z"/><path class="cls-49" d="M54.66,118.52l3.91-2.29a1.62,1.62,0,0,1,1.65,0l3.82,2.2a.82.82,0,0,1,0,1.4l-3.8,2.34a1.66,1.66,0,0,1-1.68,0l-3.92-2.26A.82.82,0,0,1,54.66,118.52Z"/><path class="cls-49" d="M63.16,123.3,67.08,121a1.63,1.63,0,0,1,1.64,0l3.83,2.21a.82.82,0,0,1,0,1.4l-3.8,2.33a1.64,1.64,0,0,1-1.67,0l-3.92-2.26A.81.81,0,0,1,63.16,123.3Z"/><path class="cls-49" d="M72.21,128.23l3.92-2.29a1.63,1.63,0,0,1,1.64,0l3.83,2.21a.82.82,0,0,1,0,1.4l-3.81,2.33a1.64,1.64,0,0,1-1.67,0l-3.92-2.26A.81.81,0,0,1,72.21,128.23Z"/><path class="cls-49" d="M80.93,133.43l3.92-2.29a1.63,1.63,0,0,1,1.64,0l19.9,11.5a.82.82,0,0,1,0,1.4l-3.8,2.33a1.66,1.66,0,0,1-1.68,0l-20-11.54A.82.82,0,0,1,80.93,133.43Z"/><path class="cls-49" d="M105.42,147.48l3.91-2.3a1.65,1.65,0,0,1,1.65,0l3.82,2.21a.81.81,0,0,1,0,1.39l-3.8,2.34a1.66,1.66,0,0,1-1.68,0l-3.92-2.26A.81.81,0,0,1,105.42,147.48Z"/><path class="cls-49" d="M113.75,152.58l3.91-2.29a1.62,1.62,0,0,1,1.65,0l3.82,2.2a.82.82,0,0,1,0,1.4l-3.8,2.34a1.66,1.66,0,0,1-1.68,0L113.75,154A.82.82,0,0,1,113.75,152.58Z"/><path class="cls-49" d="M122.82,157.93l3.92-2.29a1.63,1.63,0,0,1,1.64,0l3.82,2.21a.81.81,0,0,1,0,1.4l-3.8,2.33a1.64,1.64,0,0,1-1.67,0l-3.92-2.25A.82.82,0,0,1,122.82,157.93Z"/><path class="cls-49" d="M131,162.38l3.91-2.29a1.65,1.65,0,0,1,1.65,0l3.82,2.21a.82.82,0,0,1,0,1.4l-3.8,2.33a1.63,1.63,0,0,1-1.68,0L131,163.79A.82.82,0,0,1,131,162.38Z"/><path class="cls-45" d="M26.08,163.41v12.5a3.72,3.72,0,0,0,3.73,3.72H31a14.29,14.29,0,0,0,6.23-1.43l12.33-4.84a2.49,2.49,0,0,0,1.28-3h0a5.88,5.88,0,0,0-5.6-4.1H35.5l-1.38-2.46Z"/><path class="cls-43" d="M50.77,170.21a2.46,2.46,0,0,1-1.22,1.36l-12.33,4.84A14.16,14.16,0,0,1,31,177.85H29.81a3.73,3.73,0,0,1-3.73-3.73v1.79a3.72,3.72,0,0,0,3.73,3.72H31a14.29,14.29,0,0,0,6.23-1.43l12.33-4.84a2.49,2.49,0,0,0,1.28-3A.94.94,0,0,0,50.77,170.21Z"/><path class="cls-50" d="M30.49,170.27h-.12a5.07,5.07,0,0,1-5-5.19L26.08,133l.12-18.89a13.44,13.44,0,0,0-.73-4.45l-.77-2.24a12.72,12.72,0,0,1-.69-4.74L24.36,95c-.05-2.84,3.2-7.68,6-7.73s8,2.78,8.09,5.62L38.16,133l-3.08,30.42C35,166.21,34.41,170.27,30.49,170.27Z"/><path class="cls-45" d="M42.18,172.35v12.5a3.73,3.73,0,0,0,3.72,3.73h1.18a14.34,14.34,0,0,0,6.24-1.44l12.32-4.84a2.5,2.5,0,0,0,1.29-3h0a5.89,5.89,0,0,0-5.61-4.09H51.6l-.5-2.46Z"/><path class="cls-43" d="M66.87,180.94a2.51,2.51,0,0,1-1.23,1.36l-12.32,4.84a14.34,14.34,0,0,1-6.24,1.44H45.9a3.73,3.73,0,0,1-3.72-3.73v1.79a3.72,3.72,0,0,0,3.72,3.72h1.18a14.33,14.33,0,0,0,6.24-1.43l12.32-4.84a2.5,2.5,0,0,0,1.29-3A1.56,1.56,0,0,1,66.87,180.94Z"/><path class="cls-51" d="M46.59,179.07h-.25C45,179,41.89,176.45,42,173.69l-.89-32.95-5.51-25.22L33,114.05a13.29,13.29,0,0,1-6.73-10.89l-.22-4.33C26,96,43.57,93.5,46.41,93.41a5.16,5.16,0,0,1,5.31,5l1.49,44.23-2.06,31.57C51,176.92,49.32,179.07,46.59,179.07Z"/><path class="cls-52" d="M42.87,48.52,46,50.31a17.11,17.11,0,0,1,8.55,14.81l.77,6.57c.25,2.71-.87,3.66-1.55,6.3l-.43,8.73.32,21.55c-21-.88-29.56-8.64-29.56-8.64V59.37A12.53,12.53,0,0,1,42.87,48.52Z"/><path class="cls-53" d="M40.94,47.28h0a5.86,5.86,0,0,1-5.86-5.86V27.56H52.16v8.51A11.21,11.21,0,0,1,40.94,47.28Z"/><path class="cls-53" d="M40.79,52.22h0a3.57,3.57,0,0,1-3.58-3.57V39.16a1.23,1.23,0,0,1,1.23-1.22h4.69a1.23,1.23,0,0,1,1.23,1.22v9.49A3.57,3.57,0,0,1,40.79,52.22Z"/><path class="cls-45" d="M52.79,26a5.79,5.79,0,0,0-3-1.91c-3.35-1.1-7.39-.38-10.66.66-5.28,1.7-8.87,5.16-8.63,11.13.15,3.83,2.45,11.44,7.35,11.42a5,5,0,0,0,4.21-2.94A9.79,9.79,0,0,0,42.71,39a5.76,5.76,0,0,1,0-2.15,1.7,1.7,0,0,1,1.49-1.36c.92,0,1.49,1,1.95,1.77s1.29,1.67,2.15,1.33.87-1.5.55-2.33A5.82,5.82,0,0,1,48,33.79a3,3,0,0,1,1.91-2.25C52.84,30.07,54.09,27.77,52.79,26Z"/><path class="cls-53" d="M55.42,82.87a10.13,10.13,0,0,1-3-.45,9.86,9.86,0,0,1-7-8.25L44.11,63.49a3.42,3.42,0,0,1,6.79-.88L52.28,73.3A3.11,3.11,0,0,0,57.7,75l9.91-11.26a3.42,3.42,0,0,1,5.14,4.52L62.84,79.47A9.84,9.84,0,0,1,55.42,82.87Z"/><path class="cls-54" d="M51.21,62.13a3.82,3.82,0,0,0-4.66-3.23,3.94,3.94,0,0,0-2.87,4.4l1,7.92A3.81,3.81,0,0,0,49,74.51h0a3.82,3.82,0,0,0,3.3-4.27Z"/><path class="cls-53" d="M66,65.55l1.64-1.86a3.42,3.42,0,0,1,5.14,4.52l-2,2.25Z"/><path class="cls-53" d="M76,64.92a4.15,4.15,0,1,1-4.14-4.15A4.15,4.15,0,0,1,76,64.92Z"/><path class="cls-53" d="M75.37,57.76l-5.21,5.47a.91.91,0,0,1-1.29,0h0a.91.91,0,0,1,0-1.29L74,56.5a.91.91,0,0,1,1.29,0h0A.92.92,0,0,1,75.37,57.76Z"/><path class="cls-55" d="M113.34,41.18c0-1.49,1-2.09,2.34-1.35L152.52,61.1A2.38,2.38,0,0,1,153.59,63v3.82l2,3.84a.89.89,0,0,1-.42,1.23l-1.61.73v6.34c0,.68-.48,1-1.07.61l-38.11-22a2.36,2.36,0,0,1-1.07-1.85V41.18Z"/><path class="cls-56" d="M155.2,71.84l-.53.24a.91.91,0,0,0,0-.72l-2-3.84V63.71a2.38,2.38,0,0,0-1.07-1.86L114.05,40.22a1.76,1.76,0,0,0-.42-.17c.39-.61,1.14-.74,2-.24L152.52,61.1A2.38,2.38,0,0,1,153.59,63v3.82l2,3.84A.89.89,0,0,1,155.2,71.84ZM152.59,73v6.52c.56.29,1,0,1-.64V72.57Z"/><polygon class="cls-57" points="149.82 64.62 127.77 51.93 127.77 50.51 149.82 63.17 149.82 64.62"/><polygon class="cls-57" points="149.82 69.47 127.77 56.82 127.77 55.4 149.82 68.06 149.82 69.47"/><polygon class="cls-57" points="140.03 69.03 127.77 62.01 127.77 60.58 140.03 67.62 140.03 69.03"/><polygon class="cls-57" points="115.65 42.93 115.68 56.67 125.58 62.33 125.58 48.57 115.65 42.93"/><path class="cls-58" d="M155.48,101c0,1.49-1,2.09-2.34,1.35L116.3,81.07a2.36,2.36,0,0,1-1.07-1.85V75.4l-2-3.83a.89.89,0,0,1,.42-1.23l1.61-.74V63.27c0-.68.48-1,1.07-.62l38.11,22a2.36,2.36,0,0,1,1.07,1.85V101Z"/><path class="cls-59" d="M113.62,70.34l.54-.25a.87.87,0,0,0,0,.72l2,3.84v3.81a2.38,2.38,0,0,0,1.07,1.86L154.78,102a1.6,1.6,0,0,0,.41.18c-.39.6-1.14.73-2,.23L116.3,81.07a2.36,2.36,0,0,1-1.07-1.85V75.4l-2-3.83A.89.89,0,0,1,113.62,70.34Zm2.61-1.19V62.62c-.55-.28-1,0-1,.65V69.6Z"/><polygon class="cls-57" points="119 72.55 141.05 85.24 141.05 86.67 119 74 119 72.55"/><polygon class="cls-57" points="119 67.7 141.05 80.35 141.05 81.78 119 69.11 119 67.7"/><polygon class="cls-57" points="118.79 77.14 131.05 84.16 131.05 85.59 118.79 78.56 118.79 77.14"/><polygon class="cls-57" points="153.17 100.24 153.14 86.5 143.25 80.84 143.25 94.6 153.17 100.24"/><path class="cls-60" d="M165.81,67.38c-3.24-1.87-5.89-.34-5.89,3.4A13.07,13.07,0,0,0,165.81,81c3.24,1.87,5.9.34,5.9-3.4A13.09,13.09,0,0,0,165.81,67.38Z"/><path class="cls-61" d="M164.9,68c-3.25-1.87-5.9-.34-5.9,3.4a13,13,0,0,0,5.9,10.21c3.24,1.87,5.89.34,5.89-3.4A13.08,13.08,0,0,0,164.9,68Z"/><path class="cls-62" d="M166.82,76.25l-3.31-1.66a2,2,0,0,0-2.86,1.86l0,.62a12.09,12.09,0,0,0,4.22,4.5,4.82,4.82,0,0,0,3.11.76c0-1.18.09-2.38.07-3.3C168.06,77.89,167.84,76.77,166.82,76.25Z"/><path class="cls-63" d="M167,77.59a.84.84,0,0,0-.81.88l.17,3.72a4,4,0,0,0,1.69.14v-.08l-.17-3.86A.84.84,0,0,0,167,77.59Z"/><path class="cls-53" d="M167,77.59a.84.84,0,0,0-.73.94l.47,3.75a3.59,3.59,0,0,0,1.7,0l-.5-3.93A.84.84,0,0,0,167,77.59Z"/><path class="cls-62" d="M167.46,82.09h.07a1,1,0,0,0,.82-1.07L168,78.3a.95.95,0,1,0-1.88.24l.35,2.72A.94.94,0,0,0,167.46,82.09Z"/><path class="cls-53" d="M164.57,77.11h0a.78.78,0,0,0,.73-.81l-.1-1.74-1.53.09.1,1.74A.76.76,0,0,0,164.57,77.11Z"/><polygon class="cls-49" points="165.24 75.3 165.67 75.5 165.05 78.36 164.12 77.13 165.24 75.3"/><polygon class="cls-49" points="164.12 77.13 163.68 74.8 163.48 74.81 162.85 77.6 164.12 77.13"/><path class="cls-53" d="M164.3,75.19h0a1.47,1.47,0,0,0,1.3-1.63L165.31,71l-3.7.42.21,1.85A2.24,2.24,0,0,0,164.3,75.19Z"/><path class="cls-43" d="M161.55,71.24a2.29,2.29,0,0,1,.08-.28,1.31,1.31,0,0,1,.2-.39,1.48,1.48,0,0,1,.33-.28,2,2,0,0,1,1-.41,2.83,2.83,0,0,1,2.14.45.87.87,0,0,1,.29.39s0,0,0,0l.06,0A1,1,0,0,1,166,71a1.78,1.78,0,0,1,.17.4,3.23,3.23,0,0,1,.17.82,4,4,0,0,1-.23,1.64c-.09.27-.26.91-.61.95a.13.13,0,0,1-.14-.09.37.37,0,0,1,0-.18c0-.28,0-.55.07-.82a.37.37,0,0,0-.05-.25.21.21,0,0,0-.28,0c-.17.1-.18.32-.28.48a.22.22,0,0,1-.13.1c-.07,0-.12-.08-.15-.15-.16-.42.11-1-.24-1.33s-.8,0-1.19.22a.48.48,0,0,1-.42,0,.72.72,0,0,1-.3-.45c-.06-.18-.19-.39-.42-.24s-.17.19-.29.11-.12-.31-.14-.39A1.67,1.67,0,0,1,161.55,71.24Z"/><path class="cls-43" d="M162,73.94a.5.5,0,0,1,.13.26.32.32,0,0,0,0,.09c.08.14.23-.11.28-.17.16-.21.4-.16.64-.12a.61.61,0,0,1,.32.13.75.75,0,0,1,.1.2.59.59,0,0,0,.11.19.42.42,0,0,0,.46,0,1,1,0,0,0,.46-.54c0-.12.08-.54.31-.41s0,.43,0,.58.21.49.16.74a1,1,0,0,1-.25.38.91.91,0,0,1-.36.29,2,2,0,0,1-.4.11,2.8,2.8,0,0,1-.91.07,1.21,1.21,0,0,1-.81-.38.94.94,0,0,1-.2-.64c0-.14,0-.29,0-.43S162,74,162,73.94Z"/><path class="cls-64" d="M104.81,58.38c-3.24-1.87-5.89-.34-5.89,3.4A13.07,13.07,0,0,0,104.81,72c3.24,1.87,5.9.34,5.9-3.4A13.09,13.09,0,0,0,104.81,58.38Z"/><path class="cls-65" d="M103.9,59c-3.25-1.87-5.9-.34-5.9,3.4a13,13,0,0,0,5.9,10.21c3.24,1.87,5.89.34,5.89-3.4A13.08,13.08,0,0,0,103.9,59Z"/><path class="cls-62" d="M105.82,67.25l-3.31-1.66a2,2,0,0,0-2.86,1.86l0,.62a12.09,12.09,0,0,0,4.22,4.5,4.82,4.82,0,0,0,3.11.76c0-1.18.09-2.38.07-3.3C107.06,68.89,106.84,67.77,105.82,67.25Z"/><path class="cls-63" d="M106,68.59a.84.84,0,0,0-.81.88l.17,3.72a4,4,0,0,0,1.69.14v-.08l-.17-3.86A.84.84,0,0,0,106,68.59Z"/><path class="cls-53" d="M106,68.59a.84.84,0,0,0-.73.94l.47,3.75a3.59,3.59,0,0,0,1.7,0l-.5-3.93A.84.84,0,0,0,106,68.59Z"/><path class="cls-62" d="M106.46,73.09h.07a1,1,0,0,0,.82-1.07L107,69.3a.95.95,0,1,0-1.88.24l.35,2.72A.94.94,0,0,0,106.46,73.09Z"/><path class="cls-53" d="M103.57,68.11h0a.78.78,0,0,0,.73-.81l-.1-1.74-1.53.09.1,1.74A.76.76,0,0,0,103.57,68.11Z"/><polygon class="cls-49" points="104.24 66.3 104.67 66.5 104.05 69.36 103.12 68.13 104.24 66.3"/><polygon class="cls-49" points="103.12 68.13 102.67 65.8 102.48 65.81 101.85 68.6 103.12 68.13"/><path class="cls-53" d="M103.3,66.19h0a1.47,1.47,0,0,0,1.3-1.63L104.31,62l-3.7.42.21,1.85A2.24,2.24,0,0,0,103.3,66.19Z"/><path class="cls-66" d="M106.35,63.4a3.32,3.32,0,0,0-1.82-2.4,4.93,4.93,0,0,0-1.41-.39,4.18,4.18,0,0,0-2.3.2c-.81.37-1.2,1.09-.31,1.69a2.41,2.41,0,0,0,1.24.35,2.06,2.06,0,0,1,1.37.34c.45.45.27,1.23.55,1.81h.22a1.33,1.33,0,0,0,0-.53c0-.18.19-.38.35-.29s.12.16.13.26a2.87,2.87,0,0,1-.06,1.09c-.08.33-.19.75.09.94.48.32,1.27-.58,1.48-.93A3.15,3.15,0,0,0,106.35,63.4Z"/></svg>