<svg xmlns="http://www.w3.org/2000/svg" xmlns:xlink="http://www.w3.org/1999/xlink" viewBox="0 0 200 200"><defs><style>.cls-1{isolation:isolate;}.cls-2{opacity:0.7;}.cls-10,.cls-11,.cls-12,.cls-13,.cls-14,.cls-15,.cls-16,.cls-17,.cls-18,.cls-19,.cls-20,.cls-21,.cls-22,.cls-23,.cls-24,.cls-25,.cls-26,.cls-27,.cls-28,.cls-29,.cls-3,.cls-30,.cls-31,.cls-32,.cls-33,.cls-34,.cls-35,.cls-36,.cls-37,.cls-38,.cls-39,.cls-4,.cls-40,.cls-41,.cls-42,.cls-43,.cls-44,.cls-5,.cls-51,.cls-6,.cls-7,.cls-8,.cls-9{fill:#3c5185;}.cls-3{opacity:0;}.cls-4{opacity:0.02;}.cls-5{opacity:0.05;}.cls-6{opacity:0.07;}.cls-7{opacity:0.1;}.cls-8{opacity:0.12;}.cls-9{opacity:0.15;}.cls-10{opacity:0.17;}.cls-11{opacity:0.2;}.cls-12{opacity:0.22;}.cls-13{opacity:0.24;}.cls-14{opacity:0.27;}.cls-15{opacity:0.29;}.cls-16{opacity:0.32;}.cls-17{opacity:0.34;}.cls-18{opacity:0.37;}.cls-19{opacity:0.39;}.cls-20{opacity:0.41;}.cls-21{opacity:0.44;}.cls-22{opacity:0.46;}.cls-23{opacity:0.49;}.cls-24{opacity:0.51;}.cls-25{opacity:0.54;}.cls-26{opacity:0.56;}.cls-27{opacity:0.59;}.cls-28{opacity:0.61;}.cls-29{opacity:0.63;}.cls-30{opacity:0.66;}.cls-31{opacity:0.68;}.cls-32{opacity:0.71;}.cls-33{opacity:0.73;}.cls-34{opacity:0.76;}.cls-35{opacity:0.78;}.cls-36{opacity:0.8;}.cls-37{opacity:0.83;}.cls-38{opacity:0.85;}.cls-39{opacity:0.88;}.cls-40{opacity:0.9;}.cls-41{opacity:0.93;}.cls-42{opacity:0.95;}.cls-43{opacity:0.98;}.cls-45{fill:url(#linear-gradient);}.cls-46{fill:#1e365e;}.cls-47{fill:#edf3fa;}.cls-48{fill:url(#linear-gradient-2);}.cls-49{fill:#fff;}.cls-50{fill:#d1e1f2;}.cls-51,.cls-55{opacity:0.3;}.cls-52{fill:url(#linear-gradient-3);}.cls-53{fill:#f2b1b5;}.cls-54{fill:url(#blue-shirt);}.cls-55{fill:#2d3d64;}.cls-56{fill:#ef9ea3;}.cls-57{fill:url(#blue-shirt-2);}.cls-58{fill:url(#linear-gradient-4);}.cls-59{fill:#ffcd39;}.cls-60{fill:url(#linear-gradient-5);}.cls-61{fill:#4a65a3;}.cls-62{fill:url(#linear-gradient-6);}.cls-63{fill:url(#email_message);}.cls-64{fill:url(#email);}.cls-65{opacity:0.5;mix-blend-mode:multiply;fill:url(#radial-gradient);}.cls-66{fill:#2842a2;}.cls-67{fill:url(#linear-gradient-7);}.cls-68{fill:#6e84b5;opacity:0.49;}.cls-69{fill:url(#linear-gradient-8);}</style><linearGradient id="linear-gradient" x1="-442.51" y1="87.97" x2="-325.22" y2="87.97" gradientTransform="matrix(-1, 0, 0, 1, -319.03, 0)" gradientUnits="userSpaceOnUse"><stop offset="0" stop-color="#fff"/><stop offset="0.4" stop-color="#d5e7f8"/><stop offset="0.79" stop-color="#b2d3f1"/><stop offset="1" stop-color="#a5cbef"/></linearGradient><linearGradient id="linear-gradient-2" x1="-508.26" y1="148.75" x2="-345.56" y2="148.75" gradientTransform="matrix(-1, 0, 0, 1, -319.03, 0)" gradientUnits="userSpaceOnUse"><stop offset="0" stop-color="#a5cbef"/><stop offset="0.21" stop-color="#b2d3f1"/><stop offset="0.6" stop-color="#d5e7f8"/><stop offset="1" stop-color="#fff"/></linearGradient><linearGradient id="linear-gradient-3" x1="-17.59" y1="66.7" x2="3.58" y2="66.7" gradientTransform="translate(78.08 -8) rotate(-7.35)" gradientUnits="userSpaceOnUse"><stop offset="0.15" stop-color="#ff9800"/><stop offset="1" stop-color="#ffc107"/></linearGradient><linearGradient id="blue-shirt" x1="53.3" y1="100.3" x2="90.16" y2="100.3" gradientUnits="userSpaceOnUse"><stop offset="0" stop-color="#0060a9"/><stop offset="1" stop-color="#1c86af"/></linearGradient><linearGradient id="blue-shirt-2" x1="55.28" y1="96.75" x2="65.4" y2="96.75" xlink:href="#blue-shirt"/><linearGradient id="linear-gradient-4" x1="-41.87" y1="66.44" x2="-4.25" y2="66.44" gradientTransform="translate(89.43 1.32) rotate(-0.48)" xlink:href="#linear-gradient-3"/><linearGradient id="linear-gradient-5" x1="72.21" y1="62.69" x2="64.93" y2="50.12" gradientUnits="userSpaceOnUse"><stop offset="0" stop-color="#3c5185"/><stop offset="0.13" stop-color="#41588e"/><stop offset="0.69" stop-color="#5573b1"/><stop offset="1" stop-color="#5d7dbe"/></linearGradient><linearGradient id="linear-gradient-6" x1="69.22" y1="60.75" x2="65.21" y2="53.82" xlink:href="#linear-gradient-5"/><linearGradient id="email_message" x1="21.38" y1="24.32" x2="69.65" y2="24.32" gradientUnits="userSpaceOnUse"><stop offset="0" stop-color="#3c5185"/><stop offset="1" stop-color="#4a65a3"/></linearGradient><linearGradient id="email" x1="42.69" y1="24.91" x2="89.6" y2="24.91" gradientTransform="matrix(1.03, 0.04, 0.2, 0.98, -28.03, -2.67)" gradientUnits="userSpaceOnUse"><stop offset="0" stop-color="#4a65a3"/><stop offset="1" stop-color="#3c5185"/></linearGradient><radialGradient id="radial-gradient" cx="117.96" cy="7649.25" r="13.6" gradientTransform="translate(0 -3853.6) scale(1 0.52)" gradientUnits="userSpaceOnUse"><stop offset="0" stop-color="#3c5185"/><stop offset="0.11" stop-color="#596b97"/><stop offset="0.41" stop-color="#a0aac3"/><stop offset="0.65" stop-color="#d3d8e4"/><stop offset="0.83" stop-color="#f3f4f8"/><stop offset="0.94" stop-color="#fff"/></radialGradient><linearGradient id="linear-gradient-7" x1="108.1" y1="79.33" x2="127.88" y2="79.33" gradientUnits="userSpaceOnUse"><stop offset="0.02" stop-color="#ffc107"/><stop offset="0.14" stop-color="#ffbc06"/><stop offset="1" stop-color="#ff9800"/></linearGradient><linearGradient id="linear-gradient-8" x1="101.72" y1="65.84" x2="134.37" y2="65.84" xlink:href="#linear-gradient-7"/></defs><title>prefooter</title><g class="cls-1"><g id="Layer_1" data-name="Layer 1"><g class="cls-2"><path class="cls-3" d="M130.08,103.17,192.79,139a2,2,0,0,1,0,3.53L95.16,198.92a8.11,8.11,0,0,1-8.06,0L24.39,163.09a2,2,0,0,1,0-3.53L122,103.19A8.08,8.08,0,0,1,130.08,103.17Z"/><path class="cls-4" d="M130,103.23,192.54,139a2,2,0,0,1,0,3.51L95.2,198.68a8.05,8.05,0,0,1-8,0L24.65,163a2,2,0,0,1,0-3.52L122,103.24A8.07,8.07,0,0,1,130,103.23Z"/><path class="cls-5" d="M130,103.29l62.33,35.62a2,2,0,0,1,0,3.51l-97,56a8,8,0,0,1-8,0L24.91,162.84a2,2,0,0,1,0-3.51l97-56A8,8,0,0,1,130,103.29Z"/><path class="cls-6" d="M129.89,103.34,192,138.86a2,2,0,0,1,0,3.5L95.29,198.22a8,8,0,0,1-8,0L25.16,162.71a2,2,0,0,1,0-3.49l96.75-55.86A8,8,0,0,1,129.89,103.34Z"/><path class="cls-7" d="M129.82,103.4l62,35.41a2,2,0,0,1,0,3.49L95.33,198a8,8,0,0,1-8,0L25.42,162.59a2,2,0,0,1,0-3.49l96.45-55.68A8,8,0,0,1,129.82,103.4Z"/><path class="cls-8" d="M129.76,103.46l61.75,35.3a2,2,0,0,1,0,3.48L95.37,197.75a8,8,0,0,1-7.94,0l-61.76-35.3a2,2,0,0,1,0-3.48l96.15-55.51A8,8,0,0,1,129.76,103.46Z"/><path class="cls-9" d="M129.69,103.52l61.56,35.19a2,2,0,0,1,0,3.47L95.41,197.52a7.92,7.92,0,0,1-7.91,0L25.93,162.34a2,2,0,0,1,0-3.46l95.86-55.34A7.92,7.92,0,0,1,129.69,103.52Z"/><path class="cls-10" d="M129.63,103.58,191,138.66a2,2,0,0,1,0,3.45L95.45,197.28a7.91,7.91,0,0,1-7.89,0L26.19,162.22a2,2,0,0,1,0-3.46l95.56-55.17A7.91,7.91,0,0,1,129.63,103.58Z"/><path class="cls-11" d="M129.56,103.63l61.18,35a2,2,0,0,1,0,3.44l-95.26,55a7.9,7.9,0,0,1-7.86,0l-61.19-35a2,2,0,0,1,0-3.44l95.27-55A7.9,7.9,0,0,1,129.56,103.63Z"/><path class="cls-12" d="M129.49,103.69l61,34.87a2,2,0,0,1,0,3.43l-95,54.83a7.87,7.87,0,0,1-7.84,0L26.7,162a2,2,0,0,1,0-3.43l95-54.83A7.87,7.87,0,0,1,129.49,103.69Z"/><path class="cls-13" d="M129.43,103.75l60.8,34.76a2,2,0,0,1,0,3.42L95.57,196.58a7.81,7.81,0,0,1-7.81,0L27,161.85a2,2,0,0,1,0-3.43l94.66-54.65A7.85,7.85,0,0,1,129.43,103.75Z"/><path class="cls-14" d="M129.36,103.81,190,138.46a2,2,0,0,1,0,3.41L95.61,196.35a7.82,7.82,0,0,1-7.79,0L27.21,161.72a2,2,0,0,1,0-3.41l94.37-54.48A7.8,7.8,0,0,1,129.36,103.81Z"/><path class="cls-15" d="M129.3,103.87l60.42,34.54a2,2,0,0,1,0,3.4L95.65,196.12a7.79,7.79,0,0,1-7.76,0L27.47,161.6a2,2,0,0,1,0-3.4l94.07-54.32A7.81,7.81,0,0,1,129.3,103.87Z"/><path class="cls-16" d="M129.23,103.93l60.23,34.42a2,2,0,0,1,0,3.39L95.69,195.89a7.78,7.78,0,0,1-7.74,0L27.72,161.47a2,2,0,0,1,0-3.39l93.77-54.14A7.75,7.75,0,0,1,129.23,103.93Z"/><path class="cls-17" d="M129.17,104l60,34.32a2,2,0,0,1,0,3.38l-93.48,54a7.72,7.72,0,0,1-7.71,0L28,161.35A2,2,0,0,1,28,158l93.48-54A7.76,7.76,0,0,1,129.17,104Z"/><path class="cls-18" d="M129.1,104,189,138.25a1.94,1.94,0,0,1,0,3.37l-93.18,53.8a7.75,7.75,0,0,1-7.7,0L28.24,161.22a1.93,1.93,0,0,1,0-3.36l93.18-53.8A7.71,7.71,0,0,1,129.1,104Z"/><path class="cls-19" d="M129,104.1l59.65,34.1a1.94,1.94,0,0,1,0,3.36L95.82,195.19a7.72,7.72,0,0,1-7.67,0L28.49,161.1a1.94,1.94,0,0,1,0-3.36l92.89-53.62A7.69,7.69,0,0,1,129,104.1Z"/><path class="cls-20" d="M129,104.16l59.47,34a1.93,1.93,0,0,1,0,3.35L95.86,195a7.68,7.68,0,0,1-7.65,0L28.75,161a1.93,1.93,0,0,1,0-3.35l92.59-53.46A7.66,7.66,0,0,1,129,104.16Z"/><path class="cls-21" d="M128.91,104.22l59.27,33.88a1.93,1.93,0,0,1,0,3.34L95.9,194.72a7.65,7.65,0,0,1-7.62,0L29,160.85a1.92,1.92,0,0,1,0-3.33l92.29-53.29A7.65,7.65,0,0,1,128.91,104.22Z"/><path class="cls-22" d="M128.84,104.27l59.09,33.78a1.92,1.92,0,0,1,0,3.32l-92,53.12a7.64,7.64,0,0,1-7.6,0L29.26,160.73a1.92,1.92,0,0,1,0-3.33l92-53.11A7.62,7.62,0,0,1,128.84,104.27Z"/><path class="cls-23" d="M128.78,104.33,187.67,138a1.91,1.91,0,0,1,0,3.31L96,194.25a7.58,7.58,0,0,1-7.57,0L29.52,160.6a1.91,1.91,0,0,1,0-3.31l91.7-52.94A7.61,7.61,0,0,1,128.78,104.33Z"/><path class="cls-24" d="M128.71,104.39,187.41,138a1.9,1.9,0,0,1,0,3.3L96,194a7.57,7.57,0,0,1-7.54,0L29.77,160.48a1.91,1.91,0,0,1,0-3.3l91.4-52.77A7.57,7.57,0,0,1,128.71,104.39Z"/><path class="cls-25" d="M128.64,104.45l58.52,33.45a1.9,1.9,0,0,1,0,3.29l-91.1,52.6a7.54,7.54,0,0,1-7.52,0L30,160.36a1.91,1.91,0,0,1,0-3.3l91.1-52.6A7.56,7.56,0,0,1,128.64,104.45Z"/><path class="cls-26" d="M128.58,104.51l58.32,33.34a1.89,1.89,0,0,1,0,3.28L96.1,193.55a7.5,7.5,0,0,1-7.49,0L30.28,160.23a1.89,1.89,0,0,1,0-3.28l90.8-52.43A7.52,7.52,0,0,1,128.58,104.51Z"/><path class="cls-27" d="M128.51,104.56l58.13,33.23a1.89,1.89,0,0,1,0,3.28L96.14,193.32a7.52,7.52,0,0,1-7.47,0L30.54,160.11a1.89,1.89,0,0,1,0-3.27L121,104.58A7.52,7.52,0,0,1,128.51,104.56Z"/><path class="cls-28" d="M128.45,104.62l57.94,33.12a1.88,1.88,0,0,1,0,3.26L96.18,193.09a7.46,7.46,0,0,1-7.44,0L30.8,160a1.88,1.88,0,0,1,0-3.26L121,104.64A7.48,7.48,0,0,1,128.45,104.62Z"/><path class="cls-29" d="M128.38,104.68l57.75,33a1.87,1.87,0,0,1,0,3.25L96.23,192.85a7.44,7.44,0,0,1-7.43,0l-57.75-33a1.87,1.87,0,0,1,0-3.25L121,104.7A7.45,7.45,0,0,1,128.38,104.68Z"/><path class="cls-30" d="M128.32,104.74l57.56,32.9a1.87,1.87,0,0,1,0,3.24L96.27,192.62a7.43,7.43,0,0,1-7.4,0L31.31,159.73a1.86,1.86,0,0,1,0-3.23l89.62-51.75A7.43,7.43,0,0,1,128.32,104.74Z"/><path class="cls-31" d="M128.25,104.8l57.37,32.79a1.86,1.86,0,0,1,0,3.23L96.31,192.39a7.42,7.42,0,0,1-7.38,0L31.57,159.61a1.86,1.86,0,0,1,0-3.23l89.32-51.57A7.4,7.4,0,0,1,128.25,104.8Z"/><path class="cls-32" d="M128.19,104.86l57.17,32.68a1.85,1.85,0,0,1,0,3.22l-89,51.4a7.39,7.39,0,0,1-7.35,0L31.82,159.49a1.86,1.86,0,0,1,0-3.22l89-51.4A7.36,7.36,0,0,1,128.19,104.86Z"/><path class="cls-33" d="M128.12,104.91l57,32.58a1.85,1.85,0,0,1,0,3.21L96.39,191.92a7.35,7.35,0,0,1-7.33,0l-57-32.58a1.84,1.84,0,0,1,0-3.2l88.73-51.23A7.36,7.36,0,0,1,128.12,104.91Z"/><path class="cls-34" d="M128.06,105l56.79,32.47a1.84,1.84,0,0,1,0,3.19L96.43,191.69a7.32,7.32,0,0,1-7.3,0l-56.8-32.46a1.85,1.85,0,0,1,0-3.2l88.43-51A7.32,7.32,0,0,1,128.06,105Z"/><path class="cls-35" d="M128,105l56.61,32.36a1.83,1.83,0,0,1,0,3.18L96.47,191.46a7.33,7.33,0,0,1-7.28,0l-56.6-32.36a1.84,1.84,0,0,1,0-3.18l88.13-50.88A7.31,7.31,0,0,1,128,105Z"/><path class="cls-36" d="M127.93,105.09l56.41,32.25a1.83,1.83,0,0,1,0,3.17L96.51,191.22a7.27,7.27,0,0,1-7.25,0L32.85,159a1.84,1.84,0,0,1,0-3.18l87.83-50.71A7.29,7.29,0,0,1,127.93,105.09Z"/><path class="cls-37" d="M127.86,105.15l56.22,32.14a1.82,1.82,0,0,1,0,3.16L96.55,191a7.24,7.24,0,0,1-7.22,0L33.1,158.87a1.83,1.83,0,0,1,0-3.17l87.54-50.54A7.26,7.26,0,0,1,127.86,105.15Z"/><path class="cls-38" d="M127.79,105.2l56,32a1.82,1.82,0,0,1,0,3.16L96.59,190.76a7.23,7.23,0,0,1-7.2,0l-56-32a1.82,1.82,0,0,1,0-3.15l87.24-50.37A7.23,7.23,0,0,1,127.79,105.2Z"/><path class="cls-39" d="M127.73,105.26l55.84,31.92a1.82,1.82,0,0,1,0,3.15l-87,50.19a7.2,7.2,0,0,1-7.17,0L33.61,158.62a1.82,1.82,0,0,1,0-3.15l86.94-50.19A7.22,7.22,0,0,1,127.73,105.26Z"/><path class="cls-40" d="M127.66,105.32l55.66,31.81a1.8,1.8,0,0,1,0,3.13l-86.65,50a7.19,7.19,0,0,1-7.15,0L33.87,158.49a1.81,1.81,0,0,1,0-3.13l86.65-50A7.16,7.16,0,0,1,127.66,105.32Z"/><path class="cls-41" d="M127.6,105.38l55.46,31.7a1.8,1.8,0,0,1,0,3.12L96.72,190.06a7.15,7.15,0,0,1-7.13,0l-55.46-31.7a1.8,1.8,0,0,1,0-3.12l86.35-49.86A7.17,7.17,0,0,1,127.6,105.38Z"/><path class="cls-42" d="M127.53,105.44,182.8,137a1.79,1.79,0,0,1,0,3.11l-86,49.68a7.13,7.13,0,0,1-7.11,0l-55.27-31.6a1.79,1.79,0,0,1,0-3.11l86.05-49.68A7.12,7.12,0,0,1,127.53,105.44Z"/><path class="cls-43" d="M127.47,105.49,182.55,137a1.79,1.79,0,0,1,0,3.1L96.8,189.59a7.13,7.13,0,0,1-7.08,0L34.64,158.12a1.79,1.79,0,0,1,0-3.1l85.76-49.51A7.13,7.13,0,0,1,127.47,105.49Z"/><path class="cls-44" d="M127.4,105.55l54.89,31.38a1.78,1.78,0,0,1,0,3.09L96.84,189.36a7.09,7.09,0,0,1-7.06,0L34.89,158a1.78,1.78,0,0,1,0-3.09l85.46-49.34A7.07,7.07,0,0,1,127.4,105.55Z"/></g><path class="cls-45" d="M8.27,77,103,22.28a1.92,1.92,0,0,1,2.88,1.66l17.62,71.38a4.18,4.18,0,0,1-2.09,3.61L26.68,153.61c-1.28.74-2.27.12-2.88-1.66L6.18,80.57A4.17,4.17,0,0,1,8.27,77Z"/><path class="cls-46" d="M9.49,77.77,104.2,23.09a1.92,1.92,0,0,1,2.88,1.66L124.7,96.13a4.15,4.15,0,0,1-2.09,3.61L27.9,154.43c-1.28.73-2.46-.7-2.87-1.67L7.41,81.39A4.19,4.19,0,0,1,9.49,77.77Z"/><polygon class="cls-47" points="13.02 82.28 103.42 29.94 119.76 95.82 29.35 148.2 13.02 82.28"/><path class="cls-48" d="M128.54,103.18l60.65,32s.34,4.73-1,5.48L95.31,194.31a7.7,7.7,0,0,1-7.67,0L28,160.21c-2.47-1.53-1-5.5-1-5.5l93.89-51.51A7.69,7.69,0,0,1,128.54,103.18Z"/><path class="cls-49" d="M128.54,99.51l59.68,34.12a1.93,1.93,0,0,1,0,3.36L95.31,190.64a7.69,7.69,0,0,1-7.67,0L28,156.54a1.94,1.94,0,0,1,0-3.36l92.93-53.65A7.69,7.69,0,0,1,128.54,99.51Z"/><path class="cls-50" d="M133.83,143.69l15.73,9a.51.51,0,0,1,0,.89l-24.5,14.14a2,2,0,0,1-2,0l-15.73-9a.52.52,0,0,1,0-.89l24.49-14.14A2,2,0,0,1,133.83,143.69Z"/><path class="cls-50" d="M122,104.72l-5.14,3a.3.3,0,0,0,0,.53l2.55,1.47a.65.65,0,0,0,.66,0l5.15-3a.31.31,0,0,0,0-.53l-2.56-1.47A.7.7,0,0,0,122,104.72Z"/><path class="cls-50" d="M114.43,109.21l-5.15,3a.31.31,0,0,0,0,.53l2.56,1.47a.65.65,0,0,0,.66,0l5.14-3a.3.3,0,0,0,0-.53l-2.55-1.47A.65.65,0,0,0,114.43,109.21Z"/><path class="cls-50" d="M106.86,113.46l-5.14,3a.31.31,0,0,0,0,.53l2.56,1.47a.65.65,0,0,0,.66,0l5.14-3a.31.31,0,0,0,0-.53l-2.55-1.47A.67.67,0,0,0,106.86,113.46Z"/><path class="cls-50" d="M99.07,117.85l-5.14,3a.31.31,0,0,0,0,.53l2.56,1.47a.65.65,0,0,0,.66,0l5.14-3a.31.31,0,0,0,0-.53l-2.55-1.47A.67.67,0,0,0,99.07,117.85Z"/><path class="cls-50" d="M91.59,122l-5.14,3a.3.3,0,0,0,0,.53L89,127a.65.65,0,0,0,.66,0l5.15-3a.31.31,0,0,0,0-.53L92.25,122A.65.65,0,0,0,91.59,122Z"/><path class="cls-50" d="M84.31,126.51l-5.14,3a.31.31,0,0,0,0,.53l2.56,1.47a.65.65,0,0,0,.66,0l5.14-3a.31.31,0,0,0,0-.53L85,126.51A.67.67,0,0,0,84.31,126.51Z"/><path class="cls-50" d="M76.7,130.71l-5.15,3a.31.31,0,0,0,0,.53l2.56,1.47a.65.65,0,0,0,.66,0l5.14-3a.3.3,0,0,0,0-.53l-2.55-1.47A.65.65,0,0,0,76.7,130.71Z"/><path class="cls-50" d="M69.19,135.18l-5.14,3a.31.31,0,0,0,0,.53l2.55,1.47a.72.72,0,0,0,.67,0l5.14-3a.31.31,0,0,0,0-.53l-2.56-1.47A.65.65,0,0,0,69.19,135.18Z"/><path class="cls-50" d="M61.81,139.53l-5.14,3a.31.31,0,0,0,0,.53l2.55,1.47a.67.67,0,0,0,.67,0l5.14-3a.31.31,0,0,0,0-.53l-2.56-1.47A.65.65,0,0,0,61.81,139.53Z"/><path class="cls-50" d="M54,144l-5.14,3a.32.32,0,0,0,0,.54L51.45,149a.65.65,0,0,0,.66,0l5.14-3a.31.31,0,0,0,0-.53L54.69,144A.7.7,0,0,0,54,144Z"/><path class="cls-50" d="M46.48,148.25l-5.14,3a.3.3,0,0,0,0,.53l2.55,1.47a.65.65,0,0,0,.66,0l5.14-3a.3.3,0,0,0,0-.53l-2.55-1.47A.7.7,0,0,0,46.48,148.25Z"/><path class="cls-50" d="M132.42,110.32l-3.48-2a1.46,1.46,0,0,0-1.47,0l-3.4,2a.72.72,0,0,0,0,1.24l3.39,2.08a1.43,1.43,0,0,0,1.48,0l3.49-2A.72.72,0,0,0,132.42,110.32Z"/><path class="cls-50" d="M124.62,114.81l-3.48-2a1.46,1.46,0,0,0-1.47,0l-3.4,2a.72.72,0,0,0,0,1.24l3.38,2.08a1.45,1.45,0,0,0,1.49,0l3.49-2A.72.72,0,0,0,124.62,114.81Z"/><path class="cls-50" d="M117.05,119.06l-3.49-2a1.44,1.44,0,0,0-1.46,0l-3.41,2a.72.72,0,0,0,0,1.24l3.38,2.08a1.45,1.45,0,0,0,1.49,0l3.49-2A.72.72,0,0,0,117.05,119.06Z"/><path class="cls-50" d="M109,123.44l-3.48-2a1.48,1.48,0,0,0-1.47,0l-3.4,2a.73.73,0,0,0,0,1.25l3.39,2.08a1.45,1.45,0,0,0,1.48,0l3.5-2A.73.73,0,0,0,109,123.44Z"/><path class="cls-50" d="M101.89,127.62l-3.48-2a1.46,1.46,0,0,0-1.47,0l-3.4,2a.72.72,0,0,0,0,1.24l3.39,2.08a1.45,1.45,0,0,0,1.49,0l3.49-2A.72.72,0,0,0,101.89,127.62Z"/><path class="cls-50" d="M94.68,132.08l-3.48-2a1.46,1.46,0,0,0-1.47,0l-3.4,2a.73.73,0,0,0,0,1.25l3.39,2.07a1.45,1.45,0,0,0,1.49,0l3.49-2A.72.72,0,0,0,94.68,132.08Z"/><path class="cls-50" d="M87,136.3l-3.48-2a1.48,1.48,0,0,0-1.47,0l-3.4,2a.73.73,0,0,0,0,1.25L82,139.55a1.47,1.47,0,0,0,1.49,0l3.49-2A.73.73,0,0,0,87,136.3Z"/><path class="cls-50" d="M79.43,140.58l-3.48-2a1.46,1.46,0,0,0-1.47,0l-3.4,2a.72.72,0,0,0,0,1.24l3.39,2.08a1.45,1.45,0,0,0,1.49,0l3.49-2A.72.72,0,0,0,79.43,140.58Z"/><path class="cls-50" d="M72,145.13l-3.49-2a1.44,1.44,0,0,0-1.46,0l-3.41,2a.72.72,0,0,0,0,1.24L67,148.37a1.45,1.45,0,0,0,1.49,0l3.49-2A.72.72,0,0,0,72,145.13Z"/><path class="cls-50" d="M63.94,149.88l-3.49-2a1.46,1.46,0,0,0-1.46,0l-3.4,2a.72.72,0,0,0,0,1.24L59,153.13a1.47,1.47,0,0,0,1.49,0l3.49-2A.73.73,0,0,0,63.94,149.88Z"/><path class="cls-50" d="M56.63,153.85l-3.48-2a1.46,1.46,0,0,0-1.47,0l-3.4,2a.73.73,0,0,0,0,1.24l3.39,2.08a1.45,1.45,0,0,0,1.49,0l3.49-2A.72.72,0,0,0,56.63,153.85Z"/><path class="cls-50" d="M140.18,114.54l-3.48-2a1.46,1.46,0,0,0-1.47,0l-3.4,2a.72.72,0,0,0,0,1.24l3.39,2.08a1.45,1.45,0,0,0,1.49,0l3.49-2A.72.72,0,0,0,140.18,114.54Z"/><path class="cls-50" d="M132.38,119l-3.48-2a1.46,1.46,0,0,0-1.47,0l-3.4,2a.72.72,0,0,0,0,1.24l3.39,2.08a1.45,1.45,0,0,0,1.49,0l3.49-2A.72.72,0,0,0,132.38,119Z"/><path class="cls-50" d="M124.81,123.28l-3.49-2a1.44,1.44,0,0,0-1.46,0l-3.4,2a.72.72,0,0,0,0,1.24l3.38,2.08a1.45,1.45,0,0,0,1.49,0l3.49-2A.72.72,0,0,0,124.81,123.28Z"/><path class="cls-50" d="M116.75,127.67l-3.48-2a1.46,1.46,0,0,0-1.47,0l-3.4,2a.72.72,0,0,0,0,1.24l3.39,2.08a1.45,1.45,0,0,0,1.49,0l3.49-2A.72.72,0,0,0,116.75,127.67Z"/><path class="cls-50" d="M109.65,131.84l-3.48-2a1.46,1.46,0,0,0-1.47,0l-3.4,2a.72.72,0,0,0,0,1.24l3.38,2.08a1.45,1.45,0,0,0,1.49,0l3.49-2A.72.72,0,0,0,109.65,131.84Z"/><path class="cls-50" d="M102.44,136.3l-3.48-2a1.46,1.46,0,0,0-1.47,0l-3.4,2a.73.73,0,0,0,0,1.25l3.39,2.07a1.45,1.45,0,0,0,1.49,0l3.49-2A.72.72,0,0,0,102.44,136.3Z"/><path class="cls-50" d="M94.74,140.52l-3.49-2a1.46,1.46,0,0,0-1.46,0l-3.41,2a.73.73,0,0,0,0,1.25l3.38,2.08a1.47,1.47,0,0,0,1.49,0l3.49-2A.73.73,0,0,0,94.74,140.52Z"/><path class="cls-50" d="M87.19,144.8l-3.48-2a1.44,1.44,0,0,0-1.46,0l-3.41,2a.73.73,0,0,0,0,1.25L82.21,148a1.45,1.45,0,0,0,1.49,0l3.49-2A.72.72,0,0,0,87.19,144.8Z"/><path class="cls-50" d="M79.78,149.35l-3.48-2a1.46,1.46,0,0,0-1.47,0l-3.4,2a.72.72,0,0,0,0,1.24l3.38,2.08a1.45,1.45,0,0,0,1.49,0l3.49-2A.72.72,0,0,0,79.78,149.35Z"/><path class="cls-50" d="M71.7,154.11l-3.48-2a1.46,1.46,0,0,0-1.47,0l-3.4,2a.72.72,0,0,0,0,1.24l3.39,2.08a1.45,1.45,0,0,0,1.49,0l3.49-2A.72.72,0,0,0,71.7,154.11Z"/><path class="cls-50" d="M64.39,158.07l-3.48-2a1.44,1.44,0,0,0-1.46,0L56,158a.72.72,0,0,0,0,1.24l3.38,2.08a1.45,1.45,0,0,0,1.49,0l3.49-2A.72.72,0,0,0,64.39,158.07Z"/><path class="cls-50" d="M147.94,118.76l-3.48-2a1.46,1.46,0,0,0-1.47,0l-3.4,2a.72.72,0,0,0,0,1.24L143,122a1.45,1.45,0,0,0,1.49,0l3.49-2A.72.72,0,0,0,147.94,118.76Z"/><path class="cls-50" d="M140.14,123.25l-3.48-2a1.46,1.46,0,0,0-1.47,0l-3.4,2a.72.72,0,0,0,0,1.24l3.38,2.08a1.45,1.45,0,0,0,1.49,0l3.49-2A.72.72,0,0,0,140.14,123.25Z"/><path class="cls-50" d="M132.57,127.5l-3.48-2a1.46,1.46,0,0,0-1.47,0l-3.4,2a.72.72,0,0,0,0,1.24l3.39,2.08a1.45,1.45,0,0,0,1.49,0l3.49-2A.72.72,0,0,0,132.57,127.5Z"/><path class="cls-50" d="M124.51,131.89l-3.48-2a1.46,1.46,0,0,0-1.47,0l-3.4,2a.72.72,0,0,0,0,1.24l3.38,2.08a1.45,1.45,0,0,0,1.49,0l3.49-2A.72.72,0,0,0,124.51,131.89Z"/><path class="cls-50" d="M117.42,136.06l-3.49-2a1.44,1.44,0,0,0-1.46,0l-3.41,2a.72.72,0,0,0,0,1.24l3.38,2.08a1.45,1.45,0,0,0,1.49,0l3.49-2A.72.72,0,0,0,117.42,136.06Z"/><path class="cls-50" d="M110.2,140.52l-3.48-2a1.46,1.46,0,0,0-1.46,0l-3.41,2a.73.73,0,0,0,0,1.25l3.38,2.07a1.47,1.47,0,0,0,1.49,0l3.49-2A.73.73,0,0,0,110.2,140.52Z"/><path class="cls-50" d="M102.5,144.75l-3.49-2a1.44,1.44,0,0,0-1.46,0l-3.4,2a.72.72,0,0,0,0,1.24L97.51,148A1.45,1.45,0,0,0,99,148l3.49-2A.72.72,0,0,0,102.5,144.75Z"/><path class="cls-50" d="M95,149l-3.49-2A1.44,1.44,0,0,0,90,147l-3.41,2a.73.73,0,0,0,0,1.25L90,152.26a1.45,1.45,0,0,0,1.49,0l3.49-2A.72.72,0,0,0,95,149Z"/><path class="cls-50" d="M87.54,153.57l-3.48-2a1.46,1.46,0,0,0-1.47,0l-3.4,2a.72.72,0,0,0,0,1.24l3.39,2.08a1.45,1.45,0,0,0,1.49,0l3.49-2A.72.72,0,0,0,87.54,153.57Z"/><path class="cls-50" d="M79.46,158.33l-3.48-2a1.46,1.46,0,0,0-1.47,0l-3.4,2a.72.72,0,0,0,0,1.24l3.39,2.08a1.45,1.45,0,0,0,1.49,0l3.49-2A.72.72,0,0,0,79.46,158.33Z"/><path class="cls-50" d="M72.16,162.29l-3.49-2a1.44,1.44,0,0,0-1.46,0l-3.4,2a.73.73,0,0,0,0,1.25l3.38,2.07a1.45,1.45,0,0,0,1.49,0l3.49-2A.72.72,0,0,0,72.16,162.29Z"/><path class="cls-50" d="M155.71,123l-3.49-2a1.44,1.44,0,0,0-1.46,0l-3.41,2a.73.73,0,0,0,0,1.25l3.38,2.07a1.45,1.45,0,0,0,1.49,0l3.49-2A.72.72,0,0,0,155.71,123Z"/><path class="cls-50" d="M147.91,127.47l-3.49-2a1.44,1.44,0,0,0-1.46,0l-3.41,2a.72.72,0,0,0,0,1.24l3.38,2.08a1.45,1.45,0,0,0,1.49,0l3.49-2A.72.72,0,0,0,147.91,127.47Z"/><path class="cls-50" d="M140.33,131.72l-3.48-2a1.46,1.46,0,0,0-1.47,0l-3.4,2a.73.73,0,0,0,0,1.24l3.39,2.08a1.45,1.45,0,0,0,1.49,0l3.49-2A.72.72,0,0,0,140.33,131.72Z"/><path class="cls-50" d="M132.28,136.11l-3.49-2a1.44,1.44,0,0,0-1.46,0l-3.41,2a.72.72,0,0,0,0,1.24l3.38,2.08a1.45,1.45,0,0,0,1.49,0l3.49-2A.72.72,0,0,0,132.28,136.11Z"/><path class="cls-50" d="M124.51,140.74l-3.48-2a1.46,1.46,0,0,0-1.47,0l-17.71,10.23a.72.72,0,0,0,0,1.24l3.38,2.08a1.45,1.45,0,0,0,1.49,0L124.51,142A.72.72,0,0,0,124.51,140.74Z"/><path class="cls-50" d="M102.72,153.24l-3.49-2a1.46,1.46,0,0,0-1.46,0l-3.4,2a.73.73,0,0,0,0,1.25l3.38,2.07a1.47,1.47,0,0,0,1.49,0l3.49-2A.73.73,0,0,0,102.72,153.24Z"/><path class="cls-50" d="M95.3,157.79l-3.48-2a1.46,1.46,0,0,0-1.47,0l-3.4,2a.73.73,0,0,0,0,1.24L90.32,161a1.45,1.45,0,0,0,1.49,0l3.49-2A.72.72,0,0,0,95.3,157.79Z"/><path class="cls-50" d="M87.22,162.55l-3.48-2a1.44,1.44,0,0,0-1.46,0l-3.41,2a.72.72,0,0,0,0,1.24l3.38,2.08a1.45,1.45,0,0,0,1.49,0l3.49-2A.72.72,0,0,0,87.22,162.55Z"/><path class="cls-50" d="M79.92,166.51l-3.48-2a1.46,1.46,0,0,0-1.47,0l-3.4,2a.73.73,0,0,0,0,1.25l3.38,2.07a1.45,1.45,0,0,0,1.49,0l3.49-2A.72.72,0,0,0,79.92,166.51Z"/><path class="cls-51" d="M102.4,105.32l1,0,13.82-.45a3.09,3.09,0,0,0,3-2.51,7.54,7.54,0,0,0-2.46-.14,4.16,4.16,0,0,0,.78-2.42l-.33-1.36a4.31,4.31,0,0,0-2.4-.64l-3.63.12.66-1.27a1.42,1.42,0,0,0-.71-1.83,1.35,1.35,0,0,0-1.88.42L108.85,98l-6.83.22A19.83,19.83,0,0,1,84.58,88.9l-4.8-7.72-1.58-5.5a10.38,10.38,0,0,0-4.45-5.83c0-.3.09-.61.13-.92a8.24,8.24,0,0,1,.25-1.22l.12-.07a1,1,0,0,0,.46-.92,5.63,5.63,0,0,0,.57-.72,4.92,4.92,0,0,0,.51-3,76,76,0,0,1-.39-9c.15-2.13,1.46-4.76.86-6.94a7.41,7.41,0,0,0-2.56-3.72l-.07-.42A8.08,8.08,0,0,0,72.55,40l-26,15A21.53,21.53,0,0,1,47,58,30.52,30.52,0,0,1,46,67,52,52,0,0,1,44.14,73c-.54,1.41-1.23,2.76-1.78,4.17a24.31,24.31,0,0,0,1.1,19,6.77,6.77,0,0,0,1.84,2.57,5.2,5.2,0,0,0,2.88,1,4.85,4.85,0,0,0,.66,0c1.11,13.93,4,31.35,4.51,34.66l2.46-1.48,6.58-4h0L85.45,115c-.41-1.42-.85-2.82-1.3-4.09-1.42-4-.87-8.64-.47-12.7A28.58,28.58,0,0,0,102.4,105.32Z"/><path class="cls-46" d="M86.54,40.87H84.11V40.4a5.33,5.33,0,0,0-7.92-4.66L75,33.62A7.76,7.76,0,0,1,86.54,40.4Z"/><path class="cls-52" d="M72.07,49.42a28.73,28.73,0,0,1,1.54-3.51A21.34,21.34,0,0,1,77,40.52c3.68-3.91,10.91-1.16,11.53,4.14.26,2.26-1.4,5-1.85,7.14a84.75,84.75,0,0,0-1,9.29,5.92,5.92,0,0,1-.93,3.07c-.32.41-.74.74-1,1.16a5.69,5.69,0,0,0-.76,1.85L81.5,72.4c-.61,2.22-1.29,4.56-3,6.11s-4.75,1.85-6.1,0a5.68,5.68,0,0,1-.81-1.91,37.77,37.77,0,0,1-1-14.55C71.08,58.06,70.79,53.2,72.07,49.42Z"/><path class="cls-53" d="M105.27,104.76A23.43,23.43,0,0,1,83.73,90.71L78.52,78.9A3.64,3.64,0,0,1,85.18,76l5.21,11.81A16.19,16.19,0,0,0,106,97.47l13.5-.39a3.64,3.64,0,0,1,.29,7.28l-13.5.39Z"/><path class="cls-54" d="M86.72,110.42c-1-5.1,1.11-11.15,2-15.89a8.25,8.25,0,0,0,.79-7.69L87,80.4l-.8-6.26A9,9,0,0,0,71.81,68L59.4,77.17c-2.91,2.14-3.31,5.73-4,9.29-2.46,13.39-2.15,43.38-2.08,47.9l34-19.72C87.19,113.18,87,111.74,86.72,110.42Z"/><path class="cls-53" d="M77.22,91s5.8-8.71,0-23.87c-.78-2-3.88-7.85-3.88-7.85l-8.63,1.11L66.21,72C66.51,74.34,70.09,90.61,77.22,91Z"/><path class="cls-55" d="M70.52,104.14C80.71,99,77.61,97,78.84,96.75c2.68-.44,2.58.79,7.7-1.73a6.31,6.31,0,0,0,3.33-5.72v1.86a6.57,6.57,0,0,1-3.33,5.72l-4.2,1.83a30.1,30.1,0,0,0-4.63,2.53L70.52,106a4,4,0,0,1-6-3.46v-1.86A4,4,0,0,0,70.52,104.14Z"/><path class="cls-56" d="M65.81,68.86l.73-8.74,6.8-.87s3.1,5.8,3.88,7.85c.31.8,1.15,3.41,1.39,4.17h0a12.41,12.41,0,0,1-5.45-.35l-7.32-2.06Z"/><path class="cls-53" d="M62.52,123.91a86.66,86.66,0,0,1-.06-13.67l1.39-18.35a3.64,3.64,0,0,0-7.26-.55L55.2,109.69a94.14,94.14,0,0,0,.06,14.83l.7,8.32,7-4Z"/><path class="cls-53" d="M65.81,68.86l8.49-1.09c9.37-1.21,11.73-9.23,10.52-18.6h0a6.71,6.71,0,0,0-7.51-5.79L62.76,45.25Z"/><path class="cls-57" d="M60.08,107a4.4,4.4,0,0,0,4-3.89l1.29-11.73a4.41,4.41,0,1,0-8.76-1l-1.3,11.73a4.4,4.4,0,0,0,4.77,4.9Z"/><path class="cls-58" d="M56.13,65a36,36,0,0,0,2.36-9.31c.35-5.28-2-10.52,2.41-14.78,3.18-3.07,8-3.38,12.46-3.42,3,0,10.39-1.44,12,2.27a3.55,3.55,0,0,1,.17,1.59A12.09,12.09,0,0,1,82.59,49c-1.26,1.33-3,2.14-4.21,3.55-1.38,1.66-.93,4.07-2.14,5.9A26.36,26.36,0,0,1,71,64.67c-4.56,3.72-3.87,6.4-3.83,12.14,0,5.1-.26,10.93-4.19,14.17A9.65,9.65,0,0,0,61.6,92.2a11.19,11.19,0,0,0-1.24,2.41,7.48,7.48,0,0,1-6.24,4.06,4.54,4.54,0,0,1-3.32-1A5.78,5.78,0,0,1,49.38,95a26.63,26.63,0,0,1,1.74-19.55c.74-1.45,1.61-2.83,2.35-4.28C54.33,69.41,55.28,67.28,56.13,65Z"/><path class="cls-59" d="M85.32,39.8c-1-2.44-4.61-2.66-7.78-2.52,2.49.09,4.83.64,5.64,2.54a3.4,3.4,0,0,1,.16,1.59A12.09,12.09,0,0,1,80.44,49c-1.26,1.33-3,2.14-4.2,3.55-1.38,1.66-.94,4.06-2.15,5.9a26.56,26.56,0,0,1-5.21,6.22c-4.55,3.72-3.87,6.4-3.83,12.14,0,5.1-.25,10.93-4.19,14.17a10.22,10.22,0,0,0-1.41,1.21,11.51,11.51,0,0,0-1.24,2.42,7.49,7.49,0,0,1-5.3,4,6.11,6.11,0,0,0,1.21.09,7.48,7.48,0,0,0,6.24-4.06A11.19,11.19,0,0,1,61.6,92.2,9.65,9.65,0,0,1,63,91c3.93-3.24,4.22-9.07,4.19-14.17,0-5.74-.73-8.42,3.83-12.14a26.36,26.36,0,0,0,5.21-6.22c1.21-1.83.76-4.24,2.14-5.9,1.17-1.41,3-2.22,4.21-3.55a12.09,12.09,0,0,0,2.9-7.61A3.55,3.55,0,0,0,85.32,39.8Z"/><path class="cls-46" d="M68.23,60.23H65.81V49.28A17.92,17.92,0,0,1,75,33.62l1.18,2.12a15.51,15.51,0,0,0-8,13.54Z"/><path class="cls-44" d="M78,67.36a3.77,3.77,0,0,1-1.89-.5L70,63.31l.45-.79,6.16,3.55a2.88,2.88,0,0,0,2.87,0L82,64.61l.45.79-2.53,1.46A3.78,3.78,0,0,1,78,67.36Z"/><path class="cls-44" d="M67,51.12c-2.75-1.59-5-.29-5,2.89a11.09,11.09,0,0,0,5,8.66c2.75,1.59,5,.29,5-2.89A11.1,11.1,0,0,0,67,51.12Z"/><path class="cls-60" d="M67,51.12c-1.63-.94-3.08-.85-4,0a4.1,4.1,0,0,1,2.67.62,11.11,11.11,0,0,1,5,8.67,3.85,3.85,0,0,1-1,2.85c1.39-.22,2.33-1.47,2.33-3.52A11.1,11.1,0,0,0,67,51.12Z"/><path class="cls-61" d="M66.36,54.38c-1.52-.88-2.76-.16-2.76,1.59a6.11,6.11,0,0,0,2.76,4.77c1.51.87,2.75.16,2.75-1.59A6.11,6.11,0,0,0,66.36,54.38Z"/><path class="cls-62" d="M66.36,54.38a1.76,1.76,0,0,0-2.2,0,2.24,2.24,0,0,1,1.47.34,6.13,6.13,0,0,1,2.75,4.77,2.17,2.17,0,0,1-.55,1.58c.77-.13,1.28-.82,1.28-1.94A6.11,6.11,0,0,0,66.36,54.38Z"/><path class="cls-44" d="M81.37,66.88a1.22,1.22,0,0,1-.61-2.27l1.52-.88a1.22,1.22,0,0,1,1.66.45,1.2,1.2,0,0,1-.44,1.65L82,66.71A1.21,1.21,0,0,1,81.37,66.88Z"/><path class="cls-53" d="M112.31,100.31h0a1.38,1.38,0,0,1-.42-1.89l2.54-4a1.36,1.36,0,0,1,1.88-.43h0a1.36,1.36,0,0,1,.42,1.89l-2.53,4A1.38,1.38,0,0,1,112.31,100.31Z"/><path class="cls-63" d="M65.28,2l4.3,21a2.76,2.76,0,0,1-1.29,3.09l-3.07,2-2,7c-.09,1-1.24,1.52-2.37,1l-4.68-2.8L29.47,48.54c-1.29.76-3.34-.3-3.66-1.9L21.45,25.31a2.75,2.75,0,0,1,1.29-3.08L61.64.09C62.94-.65,65,.42,65.28,2Z"/><path class="cls-64" d="M27.56,47.45,23.2,26.13A2.76,2.76,0,0,1,24.49,23L63.39.9A1.93,1.93,0,0,1,64.5.68,2.5,2.5,0,0,0,61.64.09L22.74,22.23a2.75,2.75,0,0,0-1.29,3.08l4.36,21.33a2.87,2.87,0,0,0,2.52,2.14A2.57,2.57,0,0,1,27.56,47.45Z"/><polygon class="cls-49" points="26.66 26.68 63.13 6.02 63.63 8.49 27.17 29.15 26.66 26.68"/><polygon class="cls-49" points="27.98 33.1 64.44 12.44 64.94 14.91 28.48 35.57 27.98 33.1"/><polygon class="cls-49" points="29.29 39.52 50.11 27.6 50.61 30.07 29.79 41.99 29.29 39.52"/><path class="cls-65" d="M108.44,96.73c5.24-3,13.81-3,19,0s5.24,8,0,11-13.81,3-19,0S103.2,99.76,108.44,96.73Z"/><path class="cls-46" d="M120.76,95.42l-.55.45h-4.74L115,95.4A7.36,7.36,0,0,1,112.58,90V87.91H123.4v1.85A7.38,7.38,0,0,1,120.76,95.42Z"/><path class="cls-46" d="M118.68,97.32h-1.77a1.57,1.57,0,0,1-1.57-1.57h4.91A1.57,1.57,0,0,1,118.68,97.32Z"/><path class="cls-66" d="M121.79,85.71a8.49,8.49,0,0,0-7.64,0c-2.1,1.22-2.1,3.2,0,4.41a8.43,8.43,0,0,0,7.64,0C123.89,88.91,123.89,86.93,121.79,85.71Z"/><path class="cls-67" d="M118,67.61a9.89,9.89,0,0,0-5.41,18.17V88h0a2.8,2.8,0,0,0,1.61,2.13,8.51,8.51,0,0,0,7.62,0A2.67,2.67,0,0,0,123.36,88h0V85.78A9.89,9.89,0,0,0,118,67.61Z"/><path class="cls-49" d="M112.46,78.58a6.47,6.47,0,0,1,6.47-6.47c3.3,0,3-2.75-1.17-2.75A7.63,7.63,0,0,0,110.13,77C110.13,79.66,112.46,80.85,112.46,78.58Z"/><path class="cls-68" d="M121.81,91a8.51,8.51,0,0,1-7.62,0,2.78,2.78,0,0,1-1.61-2.13v.74a2.78,2.78,0,0,0,1.61,2.13,8.51,8.51,0,0,0,7.62,0,2.7,2.7,0,0,0,1.55-2.12h0v-.74h0A2.7,2.7,0,0,1,121.81,91Z"/><path class="cls-68" d="M121.78,93.15a8.48,8.48,0,0,1-7.62,0,3.61,3.61,0,0,1-1.3-1.19,7.59,7.59,0,0,0,.55,1.39,4.37,4.37,0,0,0,.75.54,8.48,8.48,0,0,0,7.62,0,4.26,4.26,0,0,0,.62-.44,6.78,6.78,0,0,0,.66-1.51A3.34,3.34,0,0,1,121.78,93.15Z"/><path class="cls-69" d="M118,66.79h0a.8.8,0,0,1-.8-.81l0-6.18A.8.8,0,0,1,118,59h0a.8.8,0,0,1,.8.81l0,6.18A.8.8,0,0,1,118,66.79Zm6.6,1.17,3.12-5.33a.8.8,0,0,0-1.39-.81l-3.12,5.33a.79.79,0,0,0,.29,1.1.71.71,0,0,0,.4.11A.8.8,0,0,0,124.56,68Zm4,4.62L134,69.52a.8.8,0,0,0-.79-1.4l-5.38,3a.81.81,0,0,0,.8,1.41Zm-20.07-.37a.81.81,0,0,0-.28-1.11l-5.3-3.17a.81.81,0,0,0-.83,1.39l5.3,3.17a.82.82,0,0,0,1.11-.28Zm4.06-4a.81.81,0,0,0,.31-1.1l-3-5.4a.82.82,0,0,0-1.1-.32.81.81,0,0,0-.31,1.1l3,5.4a.8.8,0,0,0,.71.42A.94.94,0,0,0,112.58,68.22Z"/></g></g></svg>